Dactyl Stroked.sfdir
StartChar: !
Encoding: 33 33 0
Width: 226
InSpiro: 1
        Flags: H
        LayerCount: 2
        Back
        SplineSet
58 664 m 0
62 664 l 0
62 240 l 0
58 240 l 0
58 664 l 0
Z
59 664 m 0
63 664 l 0
63 240 l 0
59 240 l 0
59 664 l 0
Z
60 664 m 0
64 664 l 0
64 240 l 0
60 240 l 0
60 664 l 0
Z
61 664 m 0
66 664 l 0
66 240 l 0
61 240 l 0
61 664 l 0
Z
90 0 m 0
90 30 120 60 150 60 c 0
180 60 210 30 210 0 c 0
210 -30 180 -60 150 -60 c 0
120 -60 90 -30 90 0 c 0
Z
58 62 m 0
57 62 58 62 58 63 c 0
58 63 58 64 59 64 c 0
60 64 61 65 62 65 c 0
62 64 63 64 64 64 c 0
64 64 65 63 65 63 c 0
65 62 65 62 66 62 c 0
66 61 65 60 65 60 c 0
65 59 64 59 64 59 c 0
63 58 62 58 61 59 c 0
60 59 59 59 58 60 c 0
58 60 58 61 58 62 c 0
Z
62 62 m 0
61 62 61 62 61 62 c 0
60 62 60 62 60 62 c 0
60 62 60 62 59 62 c 0
59 61 59 61 59 61 c 0
59 61 59 61 59 61 c 0
59 61 59 61 60 61 c 0
60 60 60 60 60 60 c 0
60 60 60 61 61 61 c 0
61 60 61 60 61 60 c 0
61 60 61 60 62 60 c 0
62 60 62 60 62 60 c 0
62 60 62 60 62 60 c 0
62 60 62 60 63 61 c 0
63 61 63 61 62 61 c 0
62 61 62 61 62 61 c 0
62 61 62 61 62 62 c 0
Z
59 62 m 0
58 62 59 62 59 62 c 0
59 63 59 63 60 63 c 0
60 63 61 64 62 64 c 0
62 63 63 63 63 63 c 0
64 63 64 63 64 62 c 0
64 62 64 62 65 62 c 0
65 61 64 61 64 60 c 0
64 60 64 60 63 59 c 0
62 59 61 59 61 60 c 0
60 60 60 60 59 60 c 0
59 60 59 61 59 61 c 0
59 61 59 61 59 62 c 0
Z
Spiro
58 664 v
62 664 v
62 240 v
58 240 v
59 664 v
63 664 v
63 240 v
59 240 v
60 664 v
64 664 v
64 240 v
60 240 v
61 664 v
66 664 v
66 240 v
61 240 v
62 61 c
61 61 c
61 62 c
62 61 c
58 62 c
62 65 c
66 62 c
61 59 c
62 62 c
60 61 c
61 61 c
63 61 c
59 62 c
62 64 c
65 62 c
61 60 c
0 0 z
EndSpiro
EndSplineSet
        Fore
        SplineSet
0 662 m 0
5 662 l 0
5 238 l 0
0 238 l 0
0 662 l 0
Z
40 662 m 0
45 662 l 0
45 238 l 0
40 238 l 0
40 662 l 0
Z
80 662 m 0
85 662 l 0
85 238 l 0
80 238 l 0
80 662 l 0
Z
120 662 m 0
125 662 l 0
125 238 l 0
120 238 l 0
120 662 l 0
Z
60 1 m 0
75 1 89 7 100 18 c 0
110 29 116 43 117 59 c 0
117 74 111 89 100 100 c 0
89 111 74 118 59 118 c 0
43 117 28 111 18 100 c 0
7 89 1 74 2 59 c 0
2 43 8 28 19 17 c 0
29 7 44 0 60 1 c 0
Z
-2 60 m 0
-2 76 4 92 16 103 c 0
27 114 43 121 60 121 c 0
76 120 92 114 103 103 c 0
115 92 121 76 122 60 c 0
122 43 115 27 103 16 c 0
91 5 75 -1 59 -1 c 0
43 0 27 5 15 17 c 0
4 28 -1 44 -2 60 c 0
Z
60 31 m 0
67 31 74 34 79 39 c 0
84 44 86 51 87 59 c 0
87 66 84 74 79 79 c 0
73 84 66 88 59 88 c 0
51 87 44 84 39 79 c 0
34 73 31 66 32 59 c 0
32 51 35 44 40 39 c 0
45 33 52 30 60 31 c 0
Z
27 60 m 0
27 68 30 76 37 82 c 0
43 88 51 91 60 91 c 0
68 90 76 87 82 81 c 0
88 76 91 68 92 60 c 0
92 51 88 42 82 37 c 0
76 31 67 27 59 28 c 0
50 28 42 31 36 37 c 0
30 43 26 51 27 60 c 0
Z
Spiro
0 662 v
5 662 v
5 238 v
0 238 v
40 662 v
45 662 v
45 238 v
40 238 v
80 662 v
85 662 v
85 238 v
80 238 v
120 662 v
125 662 v
125 238 v
120 238 v
60 1 c
117 59 c
59 118 c
2 59 c
-2 60 c
60 121 c
122 60 c
59 -1 c
60 31 c
87 59 c
59 88 c
32 59 c
27 60 c
60 91 c
92 60 c
59 28 c
0 0 z
EndSpiro
EndSplineSet
        EndChar
StartChar: &
Encoding: 38 38 0
Width: 526
InSpiro: 1
        Flags: H
        LayerCount: 2
        Back
        SplineSet
365 60 m 0
360 60 l 0
211 211 l 0
170 252 130 294 102 345 c 0
74 395 58 453 60 511 c 0
60 552 70 596 98 628 c 0
111 644 129 656 149 662 c 0
169 669 191 669 211 661 c 0
224 655 236 646 245 635 c 0
254 623 261 610 264 596 c 0
272 568 270 538 262 511 c 0
244 452 203 404 161 361 c 0
139 339 117 318 99 293 c 0
80 269 65 241 62 211 c 0
57 178 66 145 84 118 c 0
102 91 130 71 161 61 c 0
200 47 244 51 281 70 c 0
318 89 347 123 360 163 c 0
365 163 l 0
351 122 322 87 284 68 c 0
246 49 200 45 160 59 c 0
128 69 100 89 81 117 c 0
62 144 53 179 58 212 c 0
61 242 76 271 95 295 c 0
114 320 136 341 158 364 c 0
199 407 239 454 257 512 c 0
265 538 268 567 261 594 c 0
257 608 251 621 242 632 c 0
234 643 222 652 210 658 c 0
191 666 169 666 149 659 c 0
130 653 113 641 100 625 c 0
74 593 65 550 65 510 c 0
64 453 80 396 107 346 c 0
134 296 174 254 214 214 c 0
365 60 l 0
Z
364 60 m 0
359 60 l 0
210 210 l 0
169 251 129 293 101 344 c 0
73 395 58 453 60 511 c 0
60 552 71 596 98 628 c 0
111 644 129 657 149 663 c 0
169 669 191 669 211 662 c 0
224 656 236 647 245 636 c 0
255 624 261 611 265 597 c 0
273 569 271 539 263 511 c 0
245 452 204 403 162 360 c 0
140 338 118 317 100 293 c 0
81 268 67 241 63 211 c 0
58 179 67 145 85 119 c 0
103 92 130 72 161 62 c 0
200 48 244 52 281 70 c 0
317 89 346 123 359 163 c 0
364 163 l 0
350 122 321 88 283 69 c 0
245 50 200 46 160 60 c 0
128 70 100 90 81 118 c 0
63 145 54 179 59 212 c 0
63 242 77 270 96 295 c 0
115 319 137 340 159 363 c 0
200 406 240 454 258 512 c 0
266 539 269 568 261 595 c 0
258 609 251 622 243 633 c 0
234 644 223 653 210 659 c 0
191 667 169 667 149 660 c 0
129 654 112 641 99 625 c 0
73 594 64 551 64 510 c 0
63 452 78 396 106 345 c 0
133 295 172 253 213 213 c 0
364 60 l 0
Z
363 59 m 0
358 59 l 0
209 209 l 0
167 250 127 293 99 344 c 0
72 395 57 453 59 512 c 0
60 554 70 597 98 629 c 0
112 645 129 658 149 664 c 0
170 671 192 671 212 663 c 0
225 657 237 648 247 636 c 0
256 625 263 611 267 597 c 0
275 568 272 538 264 510 c 0
246 451 205 402 163 359 c 0
141 337 119 316 101 292 c 0
82 268 67 240 64 210 c 0
59 178 68 145 86 119 c 0
104 92 131 72 162 63 c 0
200 50 244 53 281 72 c 0
317 91 345 124 358 164 c 0
363 164 l 0
350 123 321 89 283 69 c 0
246 50 201 46 161 60 c 0
129 70 101 90 83 117 c 0
64 144 55 178 60 211 c 0
63 241 78 269 97 294 c 0
116 318 138 339 160 362 c 0
201 405 241 453 259 511 c 0
267 538 270 567 263 595 c 0
259 609 253 622 244 633 c 0
235 645 224 654 211 660 c 0
191 668 169 668 150 662 c 0
130 655 113 643 99 627 c 0
73 595 63 552 63 511 c 0
62 453 77 396 104 345 c 0
131 295 171 252 212 212 c 0
363 59 l 0
Z
362 58 m 0
357 58 l 0
208 208 l 0
166 249 126 292 98 343 c 0
70 395 56 453 58 512 c 0
59 554 70 598 97 630 c 0
111 646 129 658 149 665 c 0
169 671 192 671 212 664 c 0
225 658 238 649 247 637 c 0
257 626 264 612 268 598 c 0
276 569 274 538 266 510 c 0
248 450 207 401 164 358 c 0
142 336 120 315 102 291 c 0
84 267 69 239 66 210 c 0
62 178 70 146 87 120 c 0
105 93 132 74 162 64 c 0
200 50 244 54 280 72 c 0
316 91 345 125 357 164 c 0
362 164 l 0
349 124 320 89 282 70 c 0
245 51 200 47 161 61 c 0
130 71 102 91 83 118 c 0
65 145 56 178 61 211 c 0
65 241 79 269 98 293 c 0
117 318 139 339 161 361 c 0
203 404 243 452 261 511 c 0
269 538 272 568 264 596 c 0
260 610 254 623 245 635 c 0
236 646 224 655 211 661 c 0
191 668 169 669 149 662 c 0
130 656 112 643 99 627 c 0
72 595 62 552 62 511 c 0
60 453 75 395 103 345 c 0
130 294 170 251 211 211 c 0
362 58 l 0
Z
Spiro
365 60 v
360 60 v
211 211 ]
60 511 c
211 661 c
262 511 c
161 361 c
62 211 c
161 61 c
360 163 v
365 163 v
160 59 c
58 212 c
158 364 c
257 512 c
210 658 c
65 510 c
214 214 [
364 60 v
359 60 v
210 210 ]
60 511 c
211 662 c
263 511 c
162 360 c
63 211 c
161 62 c
359 163 v
364 163 v
160 60 c
59 212 c
159 363 c
258 512 c
210 659 c
64 510 c
213 213 [
363 59 v
358 59 v
209 209 ]
59 512 c
212 663 c
264 510 c
163 359 c
64 210 c
162 63 c
358 164 v
363 164 v
161 60 c
60 211 c
160 362 c
259 511 c
211 660 c
63 511 c
212 212 [
362 58 v
357 58 v
208 208 ]
58 512 c
212 664 c
266 510 c
164 358 c
66 210 c
162 64 c
357 164 v
362 164 v
161 61 c
61 211 c
161 361 c
261 511 c
211 661 c
62 511 c
211 211 [
0 0 z
EndSpiro
EndSplineSet
        Fore
        SplineSet
402 100 m 0
397 100 l 0
248 250 l 0
213 285 179 322 155 365 c 0
131 408 117 457 113 507 c 0
111 519 111 532 112 544 c 0
113 557 116 569 123 580 c 0
129 591 138 600 150 605 c 0
162 610 175 610 187 605 c 0
193 601 199 596 203 590 c 0
207 583 209 576 210 569 c 0
213 555 210 540 206 526 c 0
190 476 155 436 120 399 c 0
95 372 69 345 48 315 c 0
27 285 10 252 5 216 c 0
-2 170 8 122 33 84 c 0
59 45 98 17 142 3 c 0
195 -14 255 -9 304 16 c 0
354 42 393 88 410 142 c 0
415 142 l 0
397 87 358 40 307 14 c 0
256 -11 195 -17 141 0 c 0
96 14 55 43 29 82 c 0
3 121 -7 170 0 217 c 0
5 253 23 287 44 317 c 0
65 348 91 374 117 402 c 0
151 439 187 478 203 527 c 0
207 540 210 554 208 568 c 0
207 575 204 581 201 587 c 0
197 593 192 598 186 602 c 0
180 604 174 606 168 606 c 0
162 606 156 604 151 602 c 0
140 597 131 588 125 578 c 0
120 567 117 555 116 543 c 0
115 531 116 519 118 508 c 0
123 459 136 411 159 367 c 0
183 324 216 287 251 253 c 0
402 100 l 0
Z
374 72 m 0
369 72 l 0
220 222 l 0
180 261 142 302 115 350 c 0
88 398 72 453 73 509 c 0
73 545 81 584 104 612 c 0
116 626 131 638 149 643 c 0
166 649 186 649 203 642 c 0
214 637 224 629 231 619 c 0
239 609 244 598 247 586 c 0
254 562 251 537 245 514 c 0
228 458 188 412 148 371 c 0
125 347 102 324 83 298 c 0
64 272 49 242 45 211 c 0
39 174 48 137 68 106 c 0
88 75 119 52 154 41 c 0
197 26 247 30 287 51 c 0
328 72 360 110 373 155 c 0
378 155 l 0
364 109 331 70 290 49 c 0
248 27 197 23 153 38 c 0
117 49 85 73 64 104 c 0
43 135 34 174 40 212 c 0
44 244 60 274 79 300 c 0
99 327 122 350 145 374 c 0
184 415 223 460 240 515 c 0
246 537 249 561 244 584 c 0
241 596 236 607 229 616 c 0
222 626 212 634 202 639 c 0
185 646 166 646 149 640 c 0
132 635 117 623 106 609 c 0
95 595 88 578 83 561 c 0
79 543 77 525 78 508 c 0
78 453 93 399 120 351 c 0
146 304 184 263 223 225 c 0
374 72 l 0
Z
345 43 m 0
340 43 l 0
191 193 l 0
148 236 105 281 76 334 c 0
47 387 31 449 34 510 c 0
36 558 51 608 84 644 c 0
101 661 122 675 146 682 c 0
169 688 195 688 218 679 c 0
233 672 248 662 259 649 c 0
270 636 279 620 284 604 c 0
295 571 293 536 284 503 c 0
266 440 223 389 177 344 c 0
156 324 135 304 118 282 c 0
100 260 87 234 84 206 c 0
80 178 88 151 103 128 c 0
118 105 141 88 167 80 c 0
200 68 238 71 269 87 c 0
301 104 325 133 335 168 c 0
340 168 l 0
329 132 304 102 272 85 c 0
239 68 200 65 166 77 c 0
139 85 115 103 99 126 c 0
83 149 75 178 79 207 c 0
82 235 96 262 114 284 c 0
132 307 153 326 174 347 c 0
219 391 261 442 279 504 c 0
288 536 290 570 280 602 c 0
275 618 267 633 256 646 c 0
246 659 232 669 217 676 c 0
194 685 169 685 146 679 c 0
123 672 102 658 86 641 c 0
54 605 40 556 39 509 c 0
36 448 52 388 81 335 c 0
110 283 151 238 194 196 c 0
345 43 l 0
Z
317 15 m 0
312 15 l 0
163 165 l 0
116 212 70 261 39 319 c 0
8 378 -7 444 -4 511 c 0
0 572 21 633 65 676 c 0
87 697 114 713 143 721 c 0
173 728 205 727 234 716 c 0
274 699 306 662 320 621 c 0
335 579 333 533 322 491 c 0
302 422 257 363 205 316 c 0
187 299 168 284 152 265 c 0
137 247 125 225 124 201 c 0
123 183 128 165 137 150 c 0
147 135 162 124 179 118 c 0
202 108 230 110 252 122 c 0
274 134 291 156 297 181 c 0
302 181 l 0
295 155 278 132 254 120 c 0
231 107 202 105 178 115 c 0
160 121 144 133 134 148 c 0
123 164 117 183 119 202 c 0
120 226 132 249 148 268 c 0
164 286 183 302 202 319 c 0
253 366 298 424 317 492 c 0
328 533 330 578 316 619 c 0
302 660 272 696 233 713 c 0
205 724 173 725 144 718 c 0
114 711 88 695 66 673 c 0
23 631 3 570 0 510 c 0
-3 444 12 378 43 320 c 0
74 263 119 214 166 168 c 0
317 15 l 0
Z
Spiro
402 100 v
397 100 v
248 250 ]
113 507 c
187 605 c
206 526 c
120 399 c
5 216 c
142 3 c
410 142 v
415 142 v
141 0 c
0 217 c
117 402 c
203 527 c
186 602 c
118 508 c
251 253 [
374 72 v
369 72 v
220 222 ]
73 509 c
203 642 c
245 514 c
148 371 c
45 211 c
154 41 c
373 155 v
378 155 v
153 38 c
40 212 c
145 374 c
240 515 c
202 639 c
78 508 c
223 225 [
345 43 v
340 43 v
191 193 ]
34 510 c
218 679 c
284 503 c
177 344 c
84 206 c
167 80 c
335 168 v
340 168 v
166 77 c
79 207 c
174 347 c
279 504 c
217 676 c
39 509 c
194 196 [
317 15 v
312 15 v
163 165 ]
-4 511 c
234 716 c
322 491 c
205 316 c
124 201 c
179 118 c
297 181 v
302 181 v
178 115 c
119 202 c
202 319 c
317 492 c
233 713 c
0 510 c
166 168 [
0 0 z
EndSpiro
EndSplineSet
        EndChar
StartChar: )
Encoding: 41 41 0
Width: 376
InSpiro: 1
        Flags: H
        LayerCount: 2
        Back
        SplineSet
58 688 m 0
58 692 l 0
154 611 212 487 212 362 c 0
211 236 154 112 58 32 c 0
58 36 l 0
151 116 207 238 207 362 c 0
207 485 151 607 58 688 c 0
Z
59 689 m 0
59 693 l 0
155 612 213 487 213 362 c 0
213 236 155 111 59 31 c 0
59 35 l 0
152 116 208 238 208 362 c 0
208 485 152 607 59 689 c 0
Z
60 690 m 0
60 694 l 0
156 612 214 487 214 362 c 0
213 236 156 111 60 30 c 0
60 34 l 0
153 115 209 238 209 362 c 0
209 485 153 608 60 690 c 0
Z
60 691 m 0
60 695 l 0
157 613 216 488 216 362 c 0
216 235 157 110 60 29 c 0
60 33 l 0
154 114 211 237 211 362 c 0
211 486 154 609 60 691 c 0
Z
Spiro
58 688 v
58 692 v
212 362 c
58 32 v
58 36 v
207 362 c
59 689 v
59 693 v
213 362 c
59 31 v
59 35 v
208 362 c
60 690 v
60 694 v
214 362 c
60 30 v
60 34 v
209 362 c
60 691 v
60 695 v
216 362 c
60 29 v
60 33 v
211 362 c
0 0 z
EndSpiro
EndSplineSet
        Fore
        SplineSet
16 675 m 0
16 679 l 0
103 597 154 479 155 360 c 0
155 240 103 121 16 40 c 0
16 44 l 0
100 125 149 241 150 359 c 0
150 476 100 593 16 675 c 0
Z
45 703 m 0
45 707 l 0
139 618 194 489 195 360 c 0
195 230 139 101 45 12 c 0
45 16 l 0
136 104 189 231 190 359 c 0
190 486 136 613 45 703 c 0
Z
73 732 m 0
73 736 l 0
174 639 235 500 235 360 c 0
235 219 174 80 73 -16 c 0
73 -12 l 0
172 84 230 221 230 360 c 0
230 498 172 635 73 732 c 0
Z
101 760 m 0
101 764 l 0
210 660 275 510 275 360 c 0
275 209 210 59 101 -44 c 0
101 -40 l 0
207 63 270 211 270 360 c 0
270 508 207 656 101 760 c 0
Z
Spiro
16 675 v
16 679 v
155 360 c
16 40 v
16 44 v
150 359 c
45 703 v
45 707 v
195 360 c
45 12 v
45 16 v
190 359 c
73 732 v
73 736 v
235 360 c
73 -16 v
73 -12 v
230 360 c
101 760 v
101 764 v
275 360 c
101 -44 v
101 -40 v
270 360 c
0 0 z
EndSpiro
EndSplineSet
        EndChar
StartChar: .
Encoding: 46 46 0
Width: 376
InSpiro: 1
        Flags: H
        LayerCount: 2
        Back
        SplineSet
90 0 m 0
90 30 120 60 150 60 c 0
180 60 210 30 210 0 c 0
210 -30 180 -60 150 -60 c 0
120 -60 90 -30 90 0 c 0
Z
207 62 m 0
206 62 207 63 207 63 c 0
207 64 208 64 208 64 c 0
209 65 210 65 212 65 c 0
212 64 213 64 214 64 c 0
214 63 215 63 215 63 c 0
215 62 215 62 216 62 c 0
216 61 215 60 215 60 c 0
215 59 214 59 214 59 c 0
213 58 212 58 211 59 c 0
210 59 209 59 208 59 c 0
208 60 207 60 207 60 c 0
207 61 207 61 207 62 c 0
Z
212 62 m 0
211 62 211 62 211 62 c 0
210 62 210 62 210 62 c 0
210 62 210 62 209 62 c 0
209 61 209 61 209 61 c 0
209 61 209 61 209 61 c 0
209 61 209 61 210 61 c 0
210 60 210 60 210 60 c 0
210 60 210 61 211 61 c 0
211 60 211 60 211 60 c 0
211 60 211 60 212 60 c 0
212 60 212 60 212 60 c 0
212 60 212 60 212 60 c 0
212 60 212 60 213 61 c 0
213 61 213 61 212 61 c 0
212 61 212 61 212 61 c 0
212 61 212 61 212 62 c 0
Z
208 62 m 0
207 62 208 62 208 63 c 0
208 63 209 63 209 63 c 0
210 64 211 64 212 64 c 0
212 63 213 63 213 63 c 0
214 63 214 63 214 62 c 0
214 62 214 62 215 62 c 0
215 61 214 61 214 60 c 0
214 60 213 60 213 60 c 0
212 59 211 59 211 60 c 0
210 60 209 60 209 60 c 0
208 60 208 60 208 61 c 0
208 61 208 61 208 62 c 0
Z
Spiro
212 61 c
211 61 c
211 62 c
212 61 c
207 62 c
212 65 c
216 62 c
211 59 c
212 62 c
210 61 c
211 61 c
213 61 c
208 62 c
212 64 c
215 62 c
211 60 c
0 0 z
EndSpiro
EndSplineSet
        Fore
        SplineSet
210 1 m 0
225 1 239 7 250 18 c 0
260 29 266 43 267 59 c 0
267 74 261 89 250 100 c 0
239 111 224 118 209 118 c 0
193 117 178 111 168 100 c 0
157 89 151 74 152 59 c 0
152 43 158 28 169 17 c 0
179 7 194 0 210 1 c 0
Z
147 60 m 0
146 76 154 92 165 103 c 0
177 114 193 121 210 121 c 0
226 120 242 114 253 103 c 0
265 92 271 76 272 60 c 0
272 43 264 27 253 16 c 0
241 5 225 -1 209 -1 c 0
192 0 176 5 165 16 c 0
153 27 147 43 147 60 c 0
Z
210 31 m 0
217 31 224 34 229 39 c 0
234 44 236 51 237 59 c 0
237 66 234 74 229 79 c 0
223 84 216 88 209 88 c 0
201 87 194 84 189 79 c 0
184 73 181 66 182 59 c 0
182 51 185 44 190 39 c 0
195 33 202 30 210 31 c 0
Z
177 60 m 0
177 68 180 76 187 82 c 0
193 88 201 91 210 91 c 0
218 90 226 87 232 81 c 0
238 76 241 68 242 60 c 0
242 51 238 42 232 37 c 0
226 31 217 27 209 28 c 0
200 28 192 31 186 37 c 0
180 43 176 51 177 60 c 0
Z
Spiro
210 1 c
267 59 c
209 118 c
152 59 c
147 60 c
210 121 c
272 60 c
209 -1 c
210 31 c
237 59 c
209 88 c
182 59 c
177 60 c
210 91 c
242 60 c
209 28 c
0 0 z
EndSpiro
EndSplineSet
        EndChar
StartChar: /
Encoding: 47 47 0
Width: 526
InSpiro: 1
        Flags: H
        LayerCount: 2
        Back
        SplineSet
357 694 m 0
362 694 l 0
62 31 l 0
58 31 l 0
357 694 l 0
Z
358 694 m 0
363 694 l 0
63 31 l 0
59 31 l 0
358 694 l 0
Z
359 693 m 0
364 693 l 0
64 30 l 0
60 30 l 0
359 693 l 0
Z
360 693 m 0
365 693 l 0
65 30 l 0
60 30 l 0
360 693 l 0
Z
Spiro
357 694 v
362 694 v
62 31 v
58 31 v
358 694 v
363 694 v
63 31 v
59 31 v
359 693 v
364 693 v
64 30 v
60 30 v
360 693 v
365 693 v
65 30 v
60 30 v
0 0 z
EndSpiro
EndSplineSet
        Fore
        SplineSet
304 745 m 0
309 745 l 0
9 21 l 0
4 21 l 0
304 745 l 0
Z
341 729 m 0
346 729 l 0
46 5 l 0
41 5 l 0
341 729 l 0
Z
378 714 m 0
383 714 l 0
83 -9 l 0
78 -9 l 0
378 714 l 0
Z
415 698 m 0
420 698 l 0
120 -25 l 0
115 -25 l 0
415 698 l 0
Z
Spiro
304 745 v
309 745 v
9 21 v
4 21 v
341 729 v
346 729 v
46 5 v
41 5 v
378 714 v
383 714 v
83 -9 v
78 -9 v
415 698 v
420 698 v
120 -25 v
115 -25 v
0 0 z
EndSpiro
EndSplineSet
        EndChar
StartChar: 0
Encoding: 48 48 0
Width: 526
InSpiro: 1
        Flags: H
        LayerCount: 2
        Back
        SplineSet
62 361 m 0
61 298 57 234 77 174 c 0
87 145 103 117 126 95 c 0
149 74 179 61 211 61 c 0
242 61 272 74 295 95 c 0
318 117 334 145 344 174 c 0
364 234 359 298 360 361 c 0
359 423 364 487 344 547 c 0
334 576 318 604 295 626 c 0
272 647 242 660 211 661 c 0
179 661 149 647 126 626 c 0
103 604 87 576 77 547 c 0
57 487 62 423 62 361 c 0
Z
212 664 m 0
243 663 274 650 297 628 c 0
321 607 337 579 347 549 c 0
368 490 364 425 365 362 c 0
365 298 368 233 348 173 c 0
337 143 321 115 298 94 c 0
274 72 243 59 212 59 c 0
180 58 149 72 125 93 c 0
102 114 85 143 75 173 c 0
54 233 57 298 58 362 c 0
58 425 54 490 75 550 c 0
85 580 102 608 125 629 c 0
149 650 180 664 212 664 c 0
Z
63 361 m 0
62 298 58 234 78 175 c 0
87 145 103 117 126 96 c 0
149 75 179 62 211 62 c 0
242 62 272 75 295 96 c 0
318 117 334 145 343 175 c 0
363 234 358 298 359 361 c 0
358 423 363 487 343 546 c 0
334 576 318 604 295 625 c 0
272 646 242 659 211 660 c 0
179 660 149 646 126 625 c 0
103 604 87 576 78 546 c 0
58 487 63 423 63 361 c 0
Z
212 663 m 0
243 662 274 649 297 628 c 0
320 606 337 578 347 549 c 0
367 489 363 424 364 362 c 0
364 298 367 234 347 174 c 0
337 144 321 116 297 95 c 0
274 73 243 60 212 60 c 0
180 59 149 73 126 94 c 0
102 115 86 144 75 173 c 0
55 233 58 298 59 362 c 0
59 425 55 489 76 549 c 0
86 579 102 607 126 628 c 0
149 649 180 663 212 663 c 0
Z
64 361 m 0
63 298 59 235 78 176 c 0
88 146 104 118 126 97 c 0
149 76 179 63 211 63 c 0
242 63 272 76 295 97 c 0
317 118 333 146 343 176 c 0
362 235 357 298 358 361 c 0
357 423 362 486 343 545 c 0
333 575 317 603 295 624 c 0
272 645 242 658 211 659 c 0
179 659 149 645 126 624 c 0
104 603 88 575 78 545 c 0
59 486 64 423 64 361 c 0
Z
210 662 m 0
241 662 272 648 296 627 c 0
319 606 336 578 346 548 c 0
367 488 363 423 363 360 c 0
362 297 366 232 345 172 c 0
335 143 319 115 295 94 c 0
272 73 241 59 210 60 c 0
178 60 148 74 125 95 c 0
102 116 86 144 76 173 c 0
56 233 60 297 60 360 c 0
59 422 55 487 75 547 c 0
85 576 101 605 124 626 c 0
148 647 178 661 210 662 c 0
Z
66 361 m 0
65 299 61 235 79 177 c 0
89 147 104 119 127 98 c 0
150 77 180 64 211 64 c 0
241 64 271 77 294 98 c 0
317 119 332 147 342 177 c 0
360 235 355 299 356 361 c 0
355 422 360 486 342 544 c 0
332 574 317 602 294 623 c 0
271 644 241 657 211 658 c 0
180 658 150 644 127 623 c 0
104 602 89 574 79 544 c 0
61 486 66 422 66 361 c 0
Z
210 661 m 0
241 661 272 647 295 626 c 0
318 605 335 577 345 547 c 0
365 487 361 422 361 360 c 0
360 297 364 233 344 173 c 0
334 144 318 116 295 95 c 0
271 74 241 60 210 61 c 0
178 61 148 74 125 96 c 0
102 117 86 145 76 174 c 0
57 233 61 297 61 360 c 0
60 422 56 486 76 546 c 0
86 576 102 604 125 625 c 0
148 646 178 660 210 661 c 0
Z
357 664 m 0
362 664 l 0
62 60 l 0
58 60 l 0
357 664 l 0
Z
358 664 m 0
363 664 l 0
63 60 l 0
59 60 l 0
358 664 l 0
Z
359 663 m 0
364 663 l 0
64 59 l 0
60 59 l 0
359 663 l 0
Z
360 663 m 0
365 663 l 0
65 59 l 0
60 59 l 0
360 663 l 0
Z
Spiro
62 361 c
211 61 c
360 361 c
211 661 c
212 664 c
365 362 c
212 59 c
58 362 c
63 361 c
211 62 c
359 361 c
211 660 c
212 663 c
364 362 c
212 60 c
59 362 c
64 361 c
211 63 c
358 361 c
211 659 c
210 662 c
363 360 c
210 60 c
60 360 c
66 361 c
211 64 c
356 361 c
211 658 c
210 661 c
361 360 c
210 61 c
61 360 c
357 664 v
362 664 v
62 60 v
58 60 v
358 664 v
363 664 v
63 60 v
59 60 v
359 663 v
364 663 v
64 59 v
60 59 v
360 663 v
365 663 v
65 59 v
60 59 v
0 0 z
EndSpiro
EndSplineSet
        Fore
        SplineSet
5 359 m 0
4 282 6 203 36 132 c 0
51 97 73 64 103 40 c 0
133 16 170 1 209 1 c 0
247 1 284 16 314 40 c 0
344 64 366 97 381 132 c 0
411 203 412 282 413 359 c 0
412 435 411 514 381 585 c 0
366 620 344 653 314 677 c 0
284 701 247 716 209 717 c 0
170 717 133 701 103 677 c 0
73 653 51 620 36 585 c 0
6 514 5 435 5 359 c 0
Z
210 720 m 0
248 719 286 704 316 680 c 0
346 656 369 623 385 588 c 0
415 517 417 437 418 360 c 0
418 282 416 202 385 131 c 0
369 95 347 63 316 38 c 0
286 14 248 0 210 -1 c 0
171 -1 132 13 102 38 c 0
71 62 48 95 33 130 c 0
1 201 0 282 0 360 c 0
0 437 2 517 33 588 c 0
49 624 72 656 102 681 c 0
133 705 171 720 210 720 c 0
Z
45 359 m 0
44 292 41 223 64 160 c 0
75 129 93 99 118 77 c 0
143 55 175 41 209 41 c 0
242 41 274 55 299 77 c 0
324 99 342 129 353 160 c 0
376 223 372 292 373 359 c 0
372 425 376 494 353 557 c 0
342 588 324 618 299 640 c 0
274 662 242 676 209 677 c 0
175 677 143 662 118 640 c 0
93 618 75 588 64 557 c 0
41 494 45 425 45 359 c 0
Z
210 680 m 0
243 679 276 665 301 643 c 0
327 621 345 591 356 559 c 0
380 496 377 427 378 360 c 0
378 292 380 222 357 159 c 0
345 127 327 97 302 75 c 0
276 52 243 38 210 38 c 0
176 37 142 52 117 74 c 0
91 96 72 126 61 158 c 0
37 222 39 291 40 360 c 0
40 427 37 497 61 560 c 0
73 592 91 621 117 643 c 0
143 666 176 680 210 680 c 0
Z
84 359 m 0
83 301 76 243 91 188 c 0
98 160 112 133 132 113 c 0
152 93 180 80 209 80 c 0
237 80 265 93 285 113 c 0
305 133 319 160 326 188 c 0
341 243 333 301 334 359 c 0
333 416 341 474 326 529 c 0
319 557 305 584 285 604 c 0
265 624 237 637 209 638 c 0
180 638 152 624 132 604 c 0
112 584 98 557 91 529 c 0
76 474 84 416 84 359 c 0
Z
208 641 m 0
237 641 265 627 286 607 c 0
307 587 321 560 329 532 c 0
345 476 339 416 339 358 c 0
338 299 345 240 329 184 c 0
320 156 307 130 286 110 c 0
265 90 237 76 208 77 c 0
179 77 151 90 130 110 c 0
109 131 96 157 88 185 c 0
72 241 79 300 79 358 c 0
78 416 72 475 87 531 c 0
95 559 109 586 130 606 c 0
150 627 178 640 208 641 c 0
Z
124 359 m 0
123 311 112 263 119 216 c 0
123 192 131 169 146 150 c 0
154 141 163 134 174 128 c 0
185 123 197 120 209 120 c 0
220 120 232 123 243 128 c 0
254 134 263 141 271 150 c 0
286 169 294 192 298 216 c 0
305 263 293 311 294 359 c 0
293 406 305 454 298 501 c 0
294 525 286 548 271 567 c 0
263 576 254 583 243 589 c 0
232 594 220 597 209 598 c 0
197 598 185 594 174 589 c 0
163 583 154 576 146 567 c 0
131 548 123 525 119 501 c 0
112 454 124 406 124 359 c 0
Z
208 601 m 0
220 601 232 598 243 592 c 0
254 587 264 579 272 570 c 0
288 551 297 528 301 504 c 0
309 456 299 406 299 358 c 0
298 309 309 260 301 212 c 0
296 189 287 165 271 147 c 0
263 138 253 130 243 125 c 0
232 119 220 116 208 117 c 0
195 117 183 120 173 125 c 0
162 131 152 139 145 148 c 0
129 166 120 189 116 213 c 0
108 261 119 309 119 358 c 0
118 406 107 455 115 503 c 0
119 527 128 551 144 569 c 0
152 578 162 586 172 592 c 0
183 597 195 600 208 601 c 0
Z
306 688 m 0
311 688 l 0
11 84 l 0
6 84 l 0
306 688 l 0
Z
341 670 m 0
346 670 l 0
46 66 l 0
41 66 l 0
341 670 l 0
Z
377 653 m 0
382 653 l 0
82 49 l 0
77 49 l 0
377 653 l 0
Z
413 635 m 0
418 635 l 0
118 31 l 0
113 31 l 0
413 635 l 0
Z
Spiro
5 359 c
209 1 c
413 359 c
209 717 c
210 720 c
418 360 c
210 -1 c
0 360 c
45 359 c
209 41 c
373 359 c
209 677 c
210 680 c
378 360 c
210 38 c
40 360 c
84 359 c
209 80 c
334 359 c
209 638 c
208 641 c
339 358 c
208 77 c
79 358 c
124 359 c
209 120 c
294 359 c
209 598 c
208 601 c
299 358 c
208 117 c
119 358 c
306 688 v
311 688 v
11 84 v
6 84 v
341 670 v
346 670 v
46 66 v
41 66 v
377 653 v
382 653 v
82 49 v
77 49 v
413 635 v
418 635 v
118 31 v
113 31 v
0 0 z
EndSpiro
EndSplineSet
        EndChar
StartChar: 1
Encoding: 49 49 0
Width: 346
InSpiro: 1
        Flags: H
        LayerCount: 2
        Back
        SplineSet
65 539 m 0
60 539 l 0
120 658 l 0
122 658 l 0
122 60 l 0
117 60 l 0
117 662 l 0
117 662 l 0
125 662 l 0
125 662 l 0
65 539 l 0
Z
64 539 m 0
60 539 l 0
121 660 l 0
121 660 l 0
123 60 l 0
118 60 l 0
118 663 l 0
118 663 l 0
124 663 l 0
124 663 l 0
64 539 l 0
Z
63 540 m 0
59 540 l 0
118 664 l 0
118 664 l 0
124 664 l 0
124 664 l 0
124 60 l 0
119 60 l 0
121 661 l 0
121 661 l 0
63 540 l 0
Z
62 540 m 0
58 540 l 0
116 666 l 0
116 666 l 0
126 666 l 0
126 666 l 0
126 60 l 0
121 60 l 0
121 662 l 0
120 662 l 0
62 540 l 0
Z
Spiro
65 539 v
60 539 v
120 658 v
122 658 v
122 60 v
117 60 v
117 662 v
117 662 v
125 662 v
125 662 v
64 539 v
60 539 v
121 660 v
121 660 v
123 60 v
118 60 v
118 663 v
118 663 v
124 663 v
124 663 v
63 540 v
59 540 v
118 664 v
118 664 v
124 664 v
124 664 v
124 60 v
119 60 v
121 661 v
121 661 v
62 540 v
58 540 v
116 666 v
116 666 v
126 666 v
126 666 v
126 60 v
121 60 v
121 662 v
120 662 v
0 0 z
EndSpiro
EndSplineSet
        Fore
        SplineSet
102 495 m 0
97 495 l 0
119 602 l 0
119 602 l 0
124 602 l 0
124 602 l 0
125 58 l 0
120 58 l 0
121 600 l 0
122 600 l 0
102 495 l 0
Z
74 523 m 0
69 523 l 0
159 642 l 0
159 642 l 0
164 642 l 0
164 642 l 0
165 58 l 0
160 58 l 0
161 640 l 0
162 640 l 0
74 523 l 0
Z
40 552 m 0
40 556 l 0
204 682 l 0
199 682 l 0
204 682 l 0
204 682 l 0
205 58 l 0
200 58 l 0
201 680 l 0
202 680 l 0
40 552 l 0
Z
12 580 m 0
12 584 l 0
244 722 l 0
239 722 l 0
244 722 l 0
244 722 l 0
245 58 l 0
240 58 l 0
241 720 l 0
242 720 l 0
12 580 l 0
Z
Spiro
102 495 v
97 495 v
119 602 v
119 602 v
124 602 v
124 602 v
125 58 v
120 58 v
121 600 v
122 600 v
74 523 v
69 523 v
159 642 v
159 642 v
164 642 v
164 642 v
165 58 v
160 58 v
161 640 v
162 640 v
40 552 v
40 556 v
204 682 v
199 682 v
204 682 v
204 682 v
205 58 v
200 58 v
201 680 v
202 680 v
12 580 v
12 584 v
244 722 v
239 722 v
244 722 v
244 722 v
245 58 v
240 58 v
241 720 v
242 720 v
0 0 z
EndSpiro
EndSplineSet
        EndChar
StartChar: 2
Encoding: 50 50 0
Width: 526
InSpiro: 1
        Flags: H
        LayerCount: 2
        Back
        SplineSet
65 559 m 0
60 559 l 0
70 589 91 616 118 635 c 0
145 653 178 662 211 661 c 0
249 659 287 641 314 614 c 0
341 586 358 549 362 511 c 0
366 456 345 401 315 355 c 0
285 308 247 268 211 227 c 0
62 61 l 0
364 62 l 0
364 58 l 0
56 58 l 0
56 58 l 0
208 230 l 0
243 270 280 311 310 356 c 0
339 402 361 455 357 510 c 0
354 547 337 584 311 611 c 0
284 639 247 656 210 658 c 0
178 659 146 650 120 632 c 0
95 615 75 588 65 559 c 0
Z
64 559 m 0
60 559 l 0
70 589 91 617 118 635 c 0
145 654 178 663 211 662 c 0
249 660 287 642 315 615 c 0
342 587 359 549 363 511 c 0
367 455 346 401 316 354 c 0
287 307 249 266 212 226 c 0
64 63 l 0
364 63 l 0
364 59 l 0
58 59 l 0
58 59 l 0
209 229 l 0
245 269 282 310 311 356 c 0
340 402 362 455 358 510 c 0
354 548 338 585 312 612 c 0
285 639 248 657 210 659 c 0
178 660 146 651 120 633 c 0
94 615 74 589 64 559 c 0
Z
63 560 m 0
59 560 l 0
69 591 90 618 118 637 c 0
145 655 179 664 212 663 c 0
250 660 288 643 315 615 c 0
343 588 360 550 364 512 c 0
369 456 348 401 318 354 c 0
288 307 250 266 213 225 c 0
67 64 l 0
364 64 l 0
364 60 l 0
60 60 l 0
60 60 l 0
210 228 l 0
246 268 283 309 313 355 c 0
342 402 363 456 359 511 c 0
355 549 339 585 312 613 c 0
286 640 249 657 211 660 c 0
179 661 146 652 120 634 c 0
93 616 73 590 63 560 c 0
Z
62 560 m 0
58 560 l 0
68 591 90 619 117 637 c 0
145 656 178 665 212 664 c 0
251 662 289 644 317 616 c 0
345 589 362 551 366 512 c 0
371 456 349 401 319 353 c 0
289 306 251 265 214 224 c 0
70 65 l 0
364 66 l 0
364 61 l 0
63 60 l 0
63 61 l 0
211 227 l 0
247 268 285 308 314 355 c 0
344 401 365 456 361 511 c 0
357 549 341 586 314 614 c 0
286 641 249 659 211 661 c 0
178 662 146 653 119 635 c 0
93 617 72 590 62 560 c 0
Z
Spiro
65 559 v
60 559 v
211 661 c
362 511 c
211 227 [
62 61 v
364 62 v
364 58 v
56 58 v
56 58 v
208 230 ]
357 510 c
210 658 c
64 559 v
60 559 v
211 662 c
363 511 c
212 226 [
64 63 v
364 63 v
364 59 v
58 59 v
58 59 v
209 229 ]
358 510 c
210 659 c
63 560 v
59 560 v
212 663 c
364 512 c
213 225 [
67 64 v
364 64 v
364 60 v
60 60 v
60 60 v
210 228 ]
359 511 c
211 660 c
62 560 v
58 560 v
212 664 c
366 512 c
214 224 [
70 65 v
364 66 v
364 61 v
63 60 v
63 61 v
211 227 ]
361 511 c
211 661 c
0 0 z
EndSpiro
EndSplineSet
        Fore
        SplineSet
115 537 m 0
110 537 l 0
117 556 130 573 147 584 c 0
164 596 185 601 206 601 c 0
231 599 255 588 273 570 c 0
290 552 302 528 305 504 c 0
307 480 303 456 295 434 c 0
286 412 274 391 260 372 c 0
232 333 199 299 168 264 c 0
-67 1 l 0
362 2 l 0
362 -2 l 0
-74 -2 l 0
-74 -2 l 0
165 267 l 0
195 301 228 335 255 373 c 0
269 392 281 412 289 434 c 0
298 456 302 479 300 503 c 0
297 527 286 550 269 568 c 0
252 585 229 596 205 598 c 0
185 598 165 593 149 582 c 0
133 571 121 555 115 537 c 0
Z
78 551 m 0
73 551 l 0
83 578 101 602 126 618 c 0
150 634 179 642 209 641 c 0
243 639 277 624 301 599 c 0
326 575 341 542 345 508 c 0
347 481 343 454 335 429 c 0
326 404 313 381 299 359 c 0
270 314 233 276 198 237 c 0
21 42 l 0
362 42 l 0
362 38 l 0
14 38 l 0
14 38 l 0
195 240 l 0
229 278 265 317 294 360 c 0
308 382 321 405 329 430 c 0
338 454 342 481 340 507 c 0
336 540 322 573 298 597 c 0
274 621 241 636 208 638 c 0
180 639 151 631 128 615 c 0
105 600 87 577 78 551 c 0
Z
40 564 m 0
35 564 l 0
48 599 72 630 103 650 c 0
135 671 173 681 211 680 c 0
254 677 297 658 328 627 c 0
360 596 379 554 384 511 c 0
389 453 368 395 337 345 c 0
307 296 267 253 228 210 c 0
111 82 l 0
362 82 l 0
362 78 l 0
104 78 l 0
104 78 l 0
225 213 l 0
263 255 302 298 332 347 c 0
362 396 383 452 379 510 c 0
375 553 356 594 325 625 c 0
295 655 253 674 210 677 c 0
173 678 136 668 106 648 c 0
76 628 52 598 40 564 c 0
Z
2 578 m 0
-2 578 l 0
14 621 44 658 82 684 c 0
120 709 167 722 213 720 c 0
266 717 318 694 356 657 c 0
395 619 419 568 424 515 c 0
429 451 408 387 375 332 c 0
342 278 299 230 257 183 c 0
201 121 l 0
362 122 l 0
362 118 l 0
194 117 l 0
194 117 l 0
254 186 l 0
295 233 337 281 369 335 c 0
401 389 423 451 419 514 c 0
415 566 391 617 354 654 c 0
316 691 264 714 212 717 c 0
167 718 121 706 84 681 c 0
46 656 17 620 2 578 c 0
Z
Spiro
115 537 v
110 537 v
206 601 c
305 504 c
168 264 [
-67 1 v
362 2 v
362 -2 v
-74 -2 v
-74 -2 v
165 267 ]
300 503 c
205 598 c
78 551 v
73 551 v
209 641 c
345 508 c
198 237 [
21 42 v
362 42 v
362 38 v
14 38 v
14 38 v
195 240 ]
340 507 c
208 638 c
40 564 v
35 564 v
211 680 c
384 511 c
228 210 [
111 82 v
362 82 v
362 78 v
104 78 v
104 78 v
225 213 ]
379 510 c
210 677 c
2 578 v
-2 578 v
213 720 c
424 515 c
257 183 [
201 121 v
362 122 v
362 118 v
194 117 v
194 117 v
254 186 ]
419 514 c
212 717 c
0 0 z
EndSpiro
EndSplineSet
        EndChar
StartChar: 4
Encoding: 52 52 0
Width: 526
InSpiro: 1
        Flags: H
        LayerCount: 2
        Back
        SplineSet
305 59 m 0
300 59 l 0
300 661 l 0
62 212 l 0
364 212 l 0
364 208 l 0
57 208 l 0
57 208 l 0
300 672 l 0
305 672 l 0
305 59 l 0
Z
304 60 m 0
299 60 l 0
299 656 l 0
63 213 l 0
364 213 l 0
364 209 l 0
58 209 l 0
58 209 l 0
299 666 l 0
304 666 l 0
304 60 l 0
Z
303 60 m 0
298 60 l 0
298 650 l 0
66 214 l 0
364 214 l 0
364 210 l 0
60 210 l 0
60 210 l 0
298 661 l 0
303 661 l 0
303 60 l 0
Z
301 60 m 0
296 60 l 0
296 645 l 0
68 216 l 0
364 216 l 0
364 212 l 0
62 212 l 0
62 212 l 0
296 656 l 0
301 656 l 0
301 60 l 0
Z
Spiro
305 59 v
300 59 v
300 661 v
62 212 v
364 212 v
364 208 v
57 208 v
57 208 v
300 672 v
305 672 v
304 60 v
299 60 v
299 656 v
63 213 v
364 213 v
364 209 v
58 209 v
58 209 v
299 666 v
304 666 v
303 60 v
298 60 v
298 650 v
66 214 v
364 214 v
364 210 v
60 210 v
60 210 v
298 661 v
303 661 v
301 60 v
296 60 v
296 645 v
68 216 v
364 216 v
364 212 v
62 212 v
62 212 v
296 656 v
301 656 v
0 0 z
EndSpiro
EndSplineSet
        Fore
        SplineSet
359 57 m 0
354 57 l 0
356 890 l 0
-33 152 l 0
362 152 l 0
362 148 l 0
-39 148 l 0
-39 148 l 0
356 901 l 0
361 901 l 0
359 57 l 0
Z
319 58 m 0
314 58 l 0
316 731 l 0
32 192 l 0
362 192 l 0
362 188 l 0
26 188 l 0
26 188 l 0
316 742 l 0
321 742 l 0
319 58 l 0
Z
279 58 m 0
274 58 l 0
276 571 l 0
98 232 l 0
362 232 l 0
362 228 l 0
92 228 l 0
92 228 l 0
276 582 l 0
281 582 l 0
279 58 l 0
Z
239 58 m 0
234 58 l 0
236 411 l 0
165 272 l 0
362 272 l 0
362 268 l 0
159 268 l 0
159 268 l 0
236 422 l 0
241 422 l 0
239 58 l 0
Z
Spiro
359 57 v
354 57 v
356 890 v
-33 152 v
362 152 v
362 148 v
-39 148 v
-39 148 v
356 901 v
361 901 v
319 58 v
314 58 v
316 731 v
32 192 v
362 192 v
362 188 v
26 188 v
26 188 v
316 742 v
321 742 v
279 58 v
274 58 v
276 571 v
98 232 v
362 232 v
362 228 v
92 228 v
92 228 v
276 582 v
281 582 v
239 58 v
234 58 v
236 411 v
165 272 v
362 272 v
362 268 v
159 268 v
159 268 v
236 422 v
241 422 v
0 0 z
EndSpiro
EndSplineSet
        EndChar
StartChar: 5
Encoding: 53 53 0
Width: 526
InSpiro: 1
        Flags: H
        LayerCount: 2
        Back
        SplineSet
364 666 m 0
364 662 l 0
62 662 l 0
62 360 l 0
58 360 l 0
58 666 l 0
58 666 l 0
364 666 l 0
Z
364 664 m 0
364 660 l 0
63 660 l 0
63 360 l 0
59 360 l 0
59 664 l 0
59 664 l 0
364 664 l 0
Z
364 663 m 0
364 659 l 0
64 659 l 0
64 360 l 0
60 360 l 0
60 663 l 0
60 663 l 0
364 663 l 0
Z
364 662 m 0
364 658 l 0
66 658 l 0
66 360 l 0
61 360 l 0
61 662 l 0
61 662 l 0
364 662 l 0
Z
65 359 m 0
60 359 l 0
68 390 89 419 116 437 c 0
144 456 178 464 211 461 c 0
256 456 298 428 324 390 c 0
350 352 362 305 362 260 c 0
361 214 349 168 323 130 c 0
297 93 256 65 211 61 c 0
178 57 143 65 116 84 c 0
89 103 68 131 60 164 c 0
65 164 l 0
73 133 92 105 118 87 c 0
145 68 178 60 210 64 c 0
254 68 295 96 320 133 c 0
345 170 357 216 357 261 c 0
356 305 345 351 320 388 c 0
295 425 254 453 210 458 c 0
178 461 145 453 119 435 c 0
92 417 73 389 65 359 c 0
Z
64 359 m 0
60 359 l 0
68 390 89 419 116 438 c 0
143 456 178 465 211 462 c 0
256 457 298 429 325 391 c 0
351 353 363 306 363 260 c 0
362 214 350 167 324 130 c 0
298 92 256 64 211 60 c 0
177 56 143 65 116 84 c 0
88 102 68 131 60 164 c 0
64 164 l 0
72 132 91 104 118 86 c 0
144 68 177 59 210 63 c 0
254 67 295 95 321 132 c 0
346 169 358 215 358 261 c 0
357 306 346 352 321 389 c 0
295 426 254 454 210 459 c 0
178 462 145 454 118 435 c 0
92 417 72 389 64 359 c 0
Z
63 360 m 0
59 360 l 0
68 392 88 420 116 439 c 0
144 458 178 466 212 463 c 0
257 457 299 429 325 392 c 0
352 354 363 307 364 262 c 0
364 215 352 168 325 131 c 0
299 93 257 65 212 60 c 0
178 56 144 64 116 83 c 0
88 102 68 130 59 163 c 0
63 163 l 0
71 131 91 103 118 85 c 0
145 66 178 58 211 62 c 0
255 67 296 94 322 132 c 0
347 169 359 215 359 261 c 0
358 306 347 352 322 389 c 0
296 426 255 454 211 460 c 0
178 463 145 455 118 437 c 0
91 419 71 391 63 360 c 0
Z
62 360 m 0
58 360 l 0
67 392 88 421 115 440 c 0
143 459 178 467 212 464 c 0
258 459 300 431 326 393 c 0
353 355 365 308 366 262 c 0
366 215 354 168 327 130 c 0
300 92 258 63 212 59 c 0
178 55 143 64 115 82 c 0
88 101 67 130 58 163 c 0
62 163 l 0
70 131 90 102 117 84 c 0
144 65 178 57 211 61 c 0
256 65 297 93 323 131 c 0
349 168 361 215 361 261 c 0
360 306 349 353 323 390 c 0
297 428 256 456 211 461 c 0
178 464 144 456 117 437 c 0
90 419 70 391 62 360 c 0
Z
Spiro
364 666 v
364 662 v
62 662 v
62 360 v
58 360 v
58 666 v
58 666 v
364 664 v
364 660 v
63 660 v
63 360 v
59 360 v
59 664 v
59 664 v
364 663 v
364 659 v
64 659 v
64 360 v
60 360 v
60 663 v
60 663 v
364 662 v
364 658 v
66 658 v
66 360 v
61 360 v
61 662 v
61 662 v
65 359 v
60 359 v
211 461 c
362 260 c
211 61 c
60 164 v
65 164 v
210 64 c
357 261 c
210 458 c
64 359 v
60 359 v
211 462 c
363 260 c
211 60 c
60 164 v
64 164 v
210 63 c
358 261 c
210 459 c
63 360 v
59 360 v
212 463 c
364 262 c
212 60 c
59 163 v
63 163 v
211 62 c
359 261 c
211 460 c
62 360 v
58 360 v
212 464 c
366 262 c
212 59 c
58 163 v
62 163 v
211 61 c
361 261 c
211 461 c
0 0 z
EndSpiro
EndSplineSet
        Fore
        SplineSet
362 722 m 0
362 718 l 0
4 718 l 0
5 358 l 0
0 358 l 0
0 722 l 0
0 722 l 0
362 722 l 0
Z
362 682 m 0
362 678 l 0
44 678 l 0
45 358 l 0
40 358 l 0
39 682 l 0
39 682 l 0
362 682 l 0
Z
362 642 m 0
362 638 l 0
84 638 l 0
85 358 l 0
80 358 l 0
79 642 l 0
79 642 l 0
362 642 l 0
Z
362 602 m 0
362 598 l 0
124 598 l 0
125 358 l 0
120 358 l 0
119 602 l 0
119 602 l 0
362 602 l 0
Z
116 341 m 0
111 341 l 0
117 359 130 376 146 386 c 0
163 397 183 402 203 401 c 0
219 399 234 393 247 384 c 0
261 375 272 363 281 350 c 0
298 323 305 290 305 258 c 0
304 226 297 193 280 166 c 0
272 153 260 141 247 132 c 0
234 124 218 118 203 117 c 0
183 115 162 120 146 131 c 0
129 142 117 159 111 178 c 0
116 178 l 0
121 160 133 144 148 133 c 0
164 123 183 118 202 120 c 0
217 121 232 126 245 135 c 0
258 144 269 156 277 169 c 0
293 195 300 227 300 259 c 0
299 290 293 322 277 348 c 0
269 361 258 373 245 382 c 0
232 391 217 396 202 398 c 0
183 399 164 394 149 384 c 0
133 374 121 358 116 341 c 0
Z
78 352 m 0
73 352 l 0
81 379 100 404 124 420 c 0
148 436 178 444 208 441 c 0
249 436 287 411 311 376 c 0
334 342 345 299 345 258 c 0
344 216 334 174 310 140 c 0
286 106 249 81 208 77 c 0
178 73 148 81 124 97 c 0
99 113 81 138 73 167 c 0
78 167 l 0
85 139 103 115 126 100 c 0
150 84 178 77 207 80 c 0
227 82 246 89 264 100 c 0
281 111 295 126 307 143 c 0
330 176 340 218 340 259 c 0
339 299 330 341 307 374 c 0
295 391 281 406 264 417 c 0
246 428 227 435 207 438 c 0
179 440 150 433 126 418 c 0
103 402 86 378 78 352 c 0
Z
39 363 m 0
34 363 l 0
45 399 69 432 101 453 c 0
133 474 173 484 212 480 c 0
262 474 309 444 339 403 c 0
369 362 383 310 384 260 c 0
384 208 370 156 339 115 c 0
309 73 262 43 212 38 c 0
173 33 133 43 101 64 c 0
69 85 44 118 34 156 c 0
39 156 l 0
49 119 72 87 103 67 c 0
135 46 173 36 211 41 c 0
260 46 306 76 335 117 c 0
365 157 379 208 379 259 c 0
378 309 365 360 335 400 c 0
306 441 260 471 211 477 c 0
173 481 135 471 104 451 c 0
73 430 49 398 39 363 c 0
Z
2 374 m 0
-2 374 l 0
11 419 41 460 80 487 c 0
120 513 169 525 217 520 c 0
277 513 332 478 369 430 c 0
405 381 423 320 424 260 c 0
424 199 406 137 369 89 c 0
333 40 277 5 217 -1 c 0
169 -6 120 5 80 31 c 0
41 58 11 99 -2 145 c 0
2 145 l 0
14 99 43 59 82 33 c 0
121 7 169 -4 216 1 c 0
275 7 330 42 366 90 c 0
401 138 419 199 419 259 c 0
418 318 401 379 365 427 c 0
330 475 275 510 216 517 c 0
169 522 121 510 82 484 c 0
43 458 14 418 2 374 c 0
Z
Spiro
362 722 v
362 718 v
4 718 v
5 358 v
0 358 v
0 722 v
0 722 v
362 682 v
362 678 v
44 678 v
45 358 v
40 358 v
39 682 v
39 682 v
362 642 v
362 638 v
84 638 v
85 358 v
80 358 v
79 642 v
79 642 v
362 602 v
362 598 v
124 598 v
125 358 v
120 358 v
119 602 v
119 602 v
116 341 v
111 341 v
203 401 c
305 258 c
203 117 c
111 178 v
116 178 v
202 120 c
300 259 c
202 398 c
78 352 v
73 352 v
208 441 c
345 258 c
208 77 c
73 167 v
78 167 v
207 80 c
340 259 c
207 438 c
39 363 v
34 363 v
212 480 c
384 260 c
212 38 c
34 156 v
39 156 v
211 41 c
379 259 c
211 477 c
2 374 v
-2 374 v
217 520 c
424 260 c
217 -1 c
-2 145 v
2 145 v
216 1 c
419 259 c
216 517 c
0 0 z
EndSpiro
EndSplineSet
        EndChar
StartChar: 7
Encoding: 55 55 0
Width: 526
InSpiro: 1
        Flags: H
        LayerCount: 2
        Back
        SplineSet
59 658 m 0
59 662 l 0
360 660 l 0
362 662 l 0
362 662 l 0
212 60 l 0
207 60 l 0
359 660 l 0
360 660 l 0
59 658 l 0
Z
60 659 m 0
60 663 l 0
361 661 l 0
363 663 l 0
363 663 l 0
213 60 l 0
208 60 l 0
360 661 l 0
361 661 l 0
60 659 l 0
Z
60 660 m 0
60 664 l 0
362 662 l 0
364 664 l 0
364 664 l 0
214 59 l 0
209 59 l 0
361 662 l 0
362 662 l 0
60 660 l 0
Z
60 662 m 0
60 666 l 0
364 664 l 0
366 666 l 0
366 666 l 0
216 59 l 0
211 59 l 0
363 664 l 0
364 664 l 0
60 662 l 0
Z
Spiro
59 658 v
59 662 v
360 660 v
362 662 v
362 662 v
212 60 v
207 60 v
359 660 v
360 660 v
60 659 v
60 663 v
361 661 v
363 663 v
363 663 v
213 60 v
208 60 v
360 661 v
361 661 v
60 660 v
60 664 v
362 662 v
364 664 v
364 664 v
214 59 v
209 59 v
361 662 v
362 662 v
60 662 v
60 666 v
364 664 v
366 666 v
366 666 v
216 59 v
211 59 v
363 664 v
364 664 v
0 0 z
EndSpiro
EndSplineSet
        Fore
        SplineSet
57 598 m 0
57 602 l 0
302 600 l 0
304 602 l 0
304 602 l 0
156 72 l 0
151 72 l 0
301 600 l 0
302 600 l 0
57 598 l 0
Z
57 638 m 0
57 642 l 0
342 640 l 0
344 642 l 0
344 642 l 0
195 62 l 0
190 62 l 0
341 640 l 0
342 640 l 0
57 638 l 0
Z
57 678 m 0
57 682 l 0
382 680 l 0
384 682 l 0
384 682 l 0
234 53 l 0
229 53 l 0
381 680 l 0
382 680 l 0
57 678 l 0
Z
57 718 m 0
57 722 l 0
422 720 l 0
424 722 l 0
424 722 l 0
273 43 l 0
268 43 l 0
421 720 l 0
422 720 l 0
57 718 l 0
Z
Spiro
57 598 v
57 602 v
302 600 v
304 602 v
304 602 v
156 72 v
151 72 v
301 600 v
302 600 v
57 638 v
57 642 v
342 640 v
344 642 v
344 642 v
195 62 v
190 62 v
341 640 v
342 640 v
57 678 v
57 682 v
382 680 v
384 682 v
384 682 v
234 53 v
229 53 v
381 680 v
382 680 v
57 718 v
57 722 v
422 720 v
424 722 v
424 722 v
273 43 v
268 43 v
421 720 v
422 720 v
0 0 z
EndSpiro
EndSplineSet
        EndChar
StartChar: 8
Encoding: 56 56 0
Width: 526
InSpiro: 1
        Flags: H
        LayerCount: 2
        Back
        SplineSet
211 662 m 0
170 661 129 648 100 620 c 0
85 606 73 589 67 570 c 0
60 551 58 530 62 511 c 0
65 493 73 476 83 461 c 0
94 446 107 433 121 421 c 0
148 398 180 379 212 361 c 0
243 342 275 323 303 300 c 0
317 288 330 275 340 260 c 0
350 245 358 228 362 211 c 0
365 191 363 170 356 151 c 0
349 132 337 116 322 102 c 0
292 75 252 62 212 62 c 0
171 61 130 74 100 101 c 0
85 115 73 132 65 151 c 0
58 170 56 191 60 211 c 0
63 228 71 245 81 260 c 0
91 275 104 288 118 300 c 0
146 323 178 342 210 361 c 0
241 379 273 398 300 421 c 0
314 433 327 446 338 461 c 0
348 476 356 493 360 511 c 0
363 530 361 551 354 570 c 0
348 589 336 606 321 620 c 0
292 648 251 661 211 662 c 0
Z
365 510 m 0
361 491 353 474 342 459 c 0
332 444 319 431 305 419 c 0
276 395 244 377 213 358 c 0
182 339 150 321 123 298 c 0
109 286 96 273 86 259 c 0
75 244 68 227 65 210 c 0
61 190 63 170 70 152 c 0
77 134 88 117 103 104 c 0
132 77 171 65 211 65 c 0
250 65 289 77 318 104 c 0
333 117 344 134 351 152 c 0
358 170 360 190 357 210 c 0
353 227 346 244 335 259 c 0
325 273 312 286 298 298 c 0
271 321 239 339 209 358 c 0
177 376 145 395 117 419 c 0
103 431 90 444 79 459 c 0
69 474 61 491 58 510 c 0
54 530 56 551 63 570 c 0
70 590 82 607 97 622 c 0
126 650 168 664 210 665 c 0
251 665 294 651 325 623 c 0
340 609 352 591 359 571 c 0
366 552 368 530 365 510 c 0
Z
211 660 m 0
171 659 130 646 101 619 c 0
86 605 75 588 68 569 c 0
61 551 59 530 63 511 c 0
66 493 74 476 84 461 c 0
94 446 107 433 121 422 c 0
149 398 180 380 212 362 c 0
243 343 275 324 303 301 c 0
317 289 330 276 341 261 c 0
351 246 359 229 363 211 c 0
366 191 364 170 357 151 c 0
350 132 338 114 323 101 c 0
293 73 252 60 212 60 c 0
171 59 129 73 99 100 c 0
84 114 72 131 65 150 c 0
58 169 56 190 60 211 c 0
63 229 71 246 81 261 c 0
91 276 104 289 118 301 c 0
146 324 178 343 210 362 c 0
241 380 272 398 300 422 c 0
314 433 327 446 337 461 c 0
347 476 355 493 359 511 c 0
362 530 360 551 353 569 c 0
346 588 335 605 320 619 c 0
291 646 250 659 211 660 c 0
Z
364 510 m 0
360 491 352 474 342 459 c 0
331 444 318 431 304 419 c 0
276 396 244 377 213 359 c 0
181 340 150 322 122 298 c 0
108 287 95 274 85 259 c 0
75 244 67 227 64 210 c 0
60 190 62 170 69 151 c 0
76 133 87 116 102 102 c 0
131 76 171 63 211 63 c 0
250 63 290 76 319 102 c 0
334 116 345 133 352 151 c 0
359 170 361 190 358 210 c 0
354 227 346 244 336 259 c 0
326 274 313 287 299 298 c 0
271 322 240 340 209 359 c 0
177 377 145 396 117 419 c 0
103 431 90 444 80 459 c 0
70 475 62 492 59 510 c 0
55 530 57 551 64 570 c 0
71 589 83 606 98 620 c 0
127 648 169 662 210 663 c 0
251 663 293 650 324 622 c 0
339 608 351 590 358 571 c 0
365 551 367 530 364 510 c 0
Z
211 659 m 0
171 658 131 645 102 619 c 0
87 605 76 588 69 570 c 0
62 551 60 531 64 512 c 0
67 494 75 477 85 462 c 0
95 447 108 434 122 423 c 0
150 399 181 381 213 363 c 0
244 344 276 325 304 302 c 0
318 290 331 277 342 262 c 0
352 247 360 230 364 212 c 0
367 191 365 170 358 151 c 0
351 131 339 114 323 100 c 0
293 72 251 59 210 60 c 0
169 60 128 74 98 101 c 0
83 115 71 132 64 151 c 0
57 171 55 191 59 212 c 0
62 230 70 246 80 262 c 0
90 277 103 290 117 302 c 0
145 325 177 344 209 363 c 0
240 381 271 399 299 423 c 0
313 434 326 447 336 462 c 0
346 477 354 494 358 512 c 0
361 531 359 551 352 570 c 0
345 588 334 605 319 619 c 0
290 645 250 658 211 659 c 0
Z
363 511 m 0
359 492 351 475 341 460 c 0
330 445 317 432 303 420 c 0
275 397 243 378 212 360 c 0
180 341 149 323 121 299 c 0
107 288 94 275 84 260 c 0
74 245 66 228 63 211 c 0
59 191 61 170 68 152 c 0
75 133 86 116 101 102 c 0
130 75 171 62 211 62 c 0
250 62 291 75 320 102 c 0
335 116 346 133 353 152 c 0
360 170 362 191 359 211 c 0
355 228 347 245 337 260 c 0
327 275 314 288 300 299 c 0
272 323 241 341 210 360 c 0
178 378 146 397 118 420 c 0
104 432 91 445 81 460 c 0
71 475 63 492 60 511 c 0
56 531 58 552 65 571 c 0
72 590 84 607 99 621 c 0
129 648 171 662 212 662 c 0
252 661 293 648 323 620 c 0
338 607 350 589 357 570 c 0
364 551 366 530 363 511 c 0
Z
211 658 m 0
171 657 132 644 103 618 c 0
89 604 77 588 71 569 c 0
64 551 62 531 66 512 c 0
69 494 77 477 87 462 c 0
97 448 110 435 124 423 c 0
151 400 183 382 214 364 c 0
245 344 277 326 306 302 c 0
320 290 333 277 344 262 c 0
354 247 362 230 366 212 c 0
369 191 367 170 360 150 c 0
352 131 340 113 325 99 c 0
294 71 251 58 210 59 c 0
169 59 127 73 97 101 c 0
82 115 70 132 63 151 c 0
56 170 54 191 58 212 c 0
61 230 68 247 79 262 c 0
89 277 102 290 116 302 c 0
144 326 176 345 208 364 c 0
238 382 270 400 297 423 c 0
311 435 324 448 334 462 c 0
344 477 352 494 356 512 c 0
359 531 357 551 350 569 c 0
344 588 332 604 318 618 c 0
289 644 250 657 211 658 c 0
Z
361 511 m 0
357 493 349 476 339 461 c 0
328 446 315 433 302 421 c 0
274 398 242 379 211 361 c 0
179 342 148 323 120 300 c 0
106 288 93 275 83 260 c 0
73 245 65 228 62 211 c 0
58 191 60 170 67 151 c 0
74 132 86 115 100 102 c 0
130 74 170 61 211 61 c 0
251 60 292 74 322 101 c 0
336 115 348 132 355 151 c 0
362 170 364 191 361 211 c 0
357 228 349 245 339 260 c 0
328 275 315 288 301 300 c 0
274 323 242 342 211 361 c 0
179 379 147 398 120 421 c 0
106 433 93 446 82 461 c 0
72 476 64 493 61 511 c 0
57 530 59 551 66 570 c 0
73 589 85 606 100 620 c 0
130 648 171 661 212 661 c 0
252 660 292 647 322 619 c 0
337 606 348 589 355 570 c 0
362 551 364 530 361 511 c 0
Z
Spiro
211 662 c
62 511 c
212 361 a
312 301 h
362 211 c
212 62 c
60 211 c
210 361 a
310 421 h
360 511 c
365 510 c
213 358 a
113 298 h
65 210 c
211 65 c
357 210 c
209 358 a
109 418 h
58 510 c
210 665 c
211 660 c
63 511 c
212 362 a
312 302 h
363 211 c
212 60 c
60 211 c
210 362 a
310 422 h
359 511 c
364 510 c
213 359 a
113 299 h
64 210 c
211 63 c
358 210 c
209 359 a
109 419 h
59 510 c
210 663 c
211 659 c
64 512 c
213 363 a
313 303 h
364 212 c
210 60 c
59 212 c
209 363 a
309 423 h
358 512 c
363 511 c
212 360 a
112 300 h
63 211 c
211 62 c
359 211 c
210 360 a
110 420 h
60 511 c
212 662 c
211 658 c
66 512 c
214 364 a
314 304 h
366 212 c
210 59 c
58 212 c
208 364 a
308 424 h
356 512 c
361 511 c
211 361 a
111 301 h
62 211 c
211 61 c
361 211 c
211 361 a
111 421 h
61 511 c
212 661 c
0 0 z
EndSpiro
EndSplineSet
        Fore
        SplineSet
209 718 m 0
152 717 94 696 54 655 c 0
34 635 19 610 10 583 c 0
1 556 0 526 5 499 c 0
13 455 39 416 71 385 c 0
104 355 142 331 181 309 c 0
205 294 230 281 254 265 c 0
266 257 278 248 287 237 c 0
296 226 303 213 305 199 c 0
306 187 303 175 298 164 c 0
293 154 285 145 276 138 c 0
257 123 233 118 210 118 c 0
186 117 161 123 142 137 c 0
132 144 124 153 119 164 c 0
114 174 111 187 113 199 c 0
114 213 121 226 130 237 c 0
139 248 151 257 163 265 c 0
187 280 212 294 237 309 c 0
275 331 313 355 346 385 c 0
378 416 404 455 413 499 c 0
418 526 416 556 407 583 c 0
398 610 383 635 363 655 c 0
323 696 265 717 209 718 c 0
Z
418 498 m 0
409 453 382 414 350 383 c 0
317 352 278 329 240 306 c 0
215 291 190 278 167 263 c 0
155 255 144 246 135 235 c 0
126 225 119 211 118 198 c 0
116 186 119 175 124 165 c 0
129 155 136 146 145 139 c 0
163 126 186 121 209 121 c 0
231 121 254 126 272 139 c 0
281 146 288 155 293 165 c 0
298 175 301 186 300 198 c 0
298 211 291 225 282 235 c 0
273 246 262 255 250 262 c 0
227 278 202 291 178 306 c 0
139 329 100 352 67 383 c 0
35 414 8 453 0 498 c 0
-5 526 -3 556 5 583 c 0
14 611 30 636 50 657 c 0
91 698 149 720 208 721 c 0
266 721 325 699 366 658 c 0
387 637 403 612 412 584 c 0
421 556 423 526 418 498 c 0
Z
209 678 m 0
163 677 118 661 85 629 c 0
69 613 57 594 50 572 c 0
42 551 40 528 45 506 c 0
52 467 76 434 105 408 c 0
134 382 168 363 202 343 c 0
231 325 261 308 287 287 c 0
301 277 313 265 324 252 c 0
334 238 342 222 345 206 c 0
348 188 345 170 339 154 c 0
332 137 321 123 308 111 c 0
281 88 245 78 210 78 c 0
174 77 137 87 110 110 c 0
96 122 85 137 79 153 c 0
72 170 69 188 73 206 c 0
75 222 83 238 93 252 c 0
104 265 116 277 130 287 c 0
156 308 186 325 216 343 c 0
249 363 283 382 312 408 c 0
341 434 365 467 373 506 c 0
377 528 375 551 367 572 c 0
360 594 348 613 332 629 c 0
299 661 254 677 209 678 c 0
Z
378 505 m 0
370 466 345 432 316 406 c 0
286 380 252 360 219 340 c 0
190 322 160 306 134 285 c 0
121 275 108 263 98 250 c 0
88 237 80 221 78 205 c 0
75 188 77 170 83 154 c 0
90 138 100 124 113 113 c 0
139 91 174 81 209 81 c 0
243 81 278 91 304 113 c 0
317 124 327 138 334 154 c 0
340 170 342 188 340 205 c 0
337 221 329 237 319 250 c 0
309 263 296 275 283 285 c 0
257 306 227 322 199 340 c 0
165 360 131 380 101 406 c 0
72 432 47 466 40 505 c 0
35 527 37 551 45 573 c 0
52 595 65 615 82 631 c 0
114 663 161 680 208 681 c 0
254 681 301 664 335 632 c 0
352 616 365 595 372 573 c 0
380 551 382 527 378 505 c 0
Z
209 638 m 0
175 637 141 626 116 603 c 0
104 592 94 578 88 562 c 0
82 546 81 529 84 513 c 0
86 496 94 481 103 467 c 0
113 454 125 442 138 432 c 0
164 411 193 395 222 378 c 0
256 357 290 337 320 311 c 0
350 285 376 252 384 213 c 0
388 189 386 165 377 143 c 0
369 121 355 101 338 85 c 0
303 53 255 37 208 38 c 0
161 38 113 53 78 85 c 0
61 101 48 121 40 143 c 0
31 165 29 189 34 213 c 0
41 252 67 285 97 311 c 0
127 337 161 357 196 378 c 0
224 395 253 411 279 432 c 0
292 442 304 454 314 467 c 0
323 481 331 496 334 513 c 0
336 529 335 546 329 562 c 0
323 578 313 592 301 603 c 0
276 626 242 637 209 638 c 0
Z
339 512 m 0
336 495 328 479 318 466 c 0
308 452 296 440 283 430 c 0
257 409 227 392 199 375 c 0
165 354 131 334 101 309 c 0
71 283 46 250 39 212 c 0
34 189 37 165 44 144 c 0
52 122 66 103 82 87 c 0
116 56 163 41 209 41 c 0
254 41 301 56 335 87 c 0
351 103 365 122 373 144 c 0
380 165 383 189 379 212 c 0
371 250 346 283 316 309 c 0
286 334 252 354 219 375 c 0
190 392 160 409 134 430 c 0
121 440 109 452 99 466 c 0
89 479 81 495 79 512 c 0
75 529 77 547 84 563 c 0
90 579 100 594 113 606 c 0
139 630 175 641 210 641 c 0
244 640 279 629 305 605 c 0
317 593 328 579 334 563 c 0
340 546 342 529 339 512 c 0
Z
209 598 m 0
187 597 164 591 147 577 c 0
139 570 132 561 128 552 c 0
123 542 121 530 123 520 c 0
124 506 131 493 140 482 c 0
148 471 159 462 171 455 c 0
194 439 219 426 243 412 c 0
281 388 320 365 354 334 c 0
387 303 414 264 423 220 c 0
428 191 425 160 416 133 c 0
406 105 390 80 368 59 c 0
326 18 266 -1 208 -1 c 0
149 0 91 20 50 61 c 0
29 81 13 106 3 134 c 0
-5 161 -8 191 -3 220 c 0
5 264 31 303 64 334 c 0
97 365 136 388 175 412 c 0
198 426 223 439 246 455 c 0
258 462 269 471 277 482 c 0
286 493 293 506 295 520 c 0
296 530 294 542 289 552 c 0
285 561 278 570 270 577 c 0
253 591 230 597 209 598 c 0
Z
300 519 m 0
298 504 291 491 282 480 c 0
273 469 262 460 250 452 c 0
227 436 202 423 178 409 c 0
139 386 101 362 68 332 c 0
35 301 9 262 1 219 c 0
-4 190 -1 161 7 134 c 0
16 107 32 82 52 62 c 0
93 21 151 1 209 1 c 0
266 0 324 21 365 61 c 0
386 81 402 106 411 133 c 0
420 161 423 190 418 219 c 0
409 262 382 301 349 332 c 0
317 362 278 385 240 409 c 0
215 423 190 436 167 452 c 0
155 460 144 469 135 480 c 0
126 491 119 504 118 519 c 0
116 530 118 542 123 553 c 0
128 563 135 572 144 580 c 0
162 594 186 601 210 601 c 0
232 600 256 594 273 579 c 0
282 572 290 563 294 552 c 0
299 542 301 530 300 519 c 0
Z
Spiro
209 718 c
5 499 c
181 309 a
281 249 h
305 199 c
210 118 c
113 199 c
237 309 a
337 369 h
413 499 c
418 498 c
240 306 a
140 246 h
118 198 c
209 121 c
300 198 c
178 306 a
78 366 h
0 498 c
208 721 c
209 678 c
45 506 c
202 343 a
302 283 h
345 206 c
210 78 c
73 206 c
216 343 a
316 403 h
373 506 c
378 505 c
219 340 a
119 280 h
78 205 c
209 81 c
340 205 c
199 340 a
99 400 h
40 505 c
208 681 c
209 638 c
84 513 c
222 378 a
322 318 h
384 213 c
208 38 c
34 213 c
196 378 a
296 438 h
334 513 c
339 512 c
199 375 a
99 315 h
39 212 c
209 41 c
379 212 c
219 375 a
119 435 h
79 512 c
210 641 c
209 598 c
123 520 c
243 412 a
343 352 h
423 220 c
208 -1 c
-3 220 c
175 412 a
275 472 h
295 520 c
300 519 c
178 409 a
78 349 h
1 219 c
209 1 c
418 219 c
240 409 a
140 469 h
118 519 c
210 601 c
0 0 z
EndSpiro
EndSplineSet
        EndChar
StartChar: A
Encoding: 65 65 0
Width: 526
InSpiro: 1
        Flags: H
        LayerCount: 2
        Back
        SplineSet
65 59 m 0
60 59 l 0
97 211 l 0
210 658 l 0
212 658 l 0
325 211 l 0
362 59 l 0
357 59 l 0
320 210 l 0
207 662 l 0
207 662 l 0
215 662 l 0
215 662 l 0
102 210 l 0
65 59 l 0
Z
64 59 m 0
60 59 l 0
96 211 l 0
211 660 l 0
211 660 l 0
326 211 l 0
363 59 l 0
358 59 l 0
321 210 l 0
208 663 l 0
208 663 l 0
214 663 l 0
214 663 l 0
101 210 l 0
64 59 l 0
Z
63 60 m 0
59 60 l 0
95 212 l 0
208 664 l 0
208 664 l 0
214 664 l 0
214 664 l 0
327 212 l 0
364 60 l 0
359 60 l 0
322 211 l 0
211 661 l 0
211 661 l 0
100 211 l 0
63 60 l 0
Z
62 60 m 0
58 60 l 0
93 212 l 0
206 666 l 0
206 666 l 0
216 666 l 0
216 666 l 0
329 212 l 0
366 60 l 0
361 60 l 0
324 211 l 0
212 662 l 0
210 662 l 0
98 211 l 0
62 60 l 0
Z
96 208 m 0
96 212 l 0
327 212 l 0
327 208 l 0
96 208 l 0
Z
96 209 m 0
96 213 l 0
327 213 l 0
327 209 l 0
96 209 l 0
Z
96 210 m 0
96 214 l 0
327 214 l 0
327 210 l 0
96 210 l 0
Z
96 212 m 0
96 216 l 0
327 216 l 0
327 212 l 0
96 212 l 0
Z
Spiro
65 59 v
60 59 v
97 211 v
210 658 v
212 658 v
325 211 v
362 59 v
357 59 v
320 210 v
207 662 v
207 662 v
215 662 v
215 662 v
102 210 v
64 59 v
60 59 v
96 211 v
211 660 v
211 660 v
326 211 v
363 59 v
358 59 v
321 210 v
208 663 v
208 663 v
214 663 v
214 663 v
101 210 v
63 60 v
59 60 v
95 212 v
208 664 v
208 664 v
214 664 v
214 664 v
327 212 v
364 60 v
359 60 v
322 211 v
211 661 v
211 661 v
100 211 v
62 60 v
58 60 v
93 212 v
206 666 v
206 666 v
216 666 v
216 666 v
329 212 v
366 60 v
361 60 v
324 211 v
212 662 v
210 662 v
98 211 v
96 208 v
96 212 v
327 212 v
327 208 v
96 209 v
96 213 v
327 213 v
327 209 v
96 210 v
96 214 v
327 214 v
327 210 v
96 212 v
96 216 v
327 216 v
327 212 v
0 0 z
EndSpiro
EndSplineSet
        Fore
        SplineSet
117 43 m 0
112 43 l 0
149 195 l 0
264 598 l 0
154 598 l 0
269 195 l 0
306 43 l 0
301 43 l 0
264 194 l 0
149 602 l 0
149 602 l 0
269 602 l 0
269 602 l 0
154 194 l 0
117 43 l 0
Z
78 53 m 0
73 53 l 0
110 205 l 0
224 638 l 0
194 638 l 0
308 205 l 0
345 53 l 0
340 53 l 0
303 204 l 0
189 642 l 0
189 642 l 0
229 642 l 0
229 642 l 0
115 204 l 0
78 53 l 0
Z
39 62 m 0
34 62 l 0
71 214 l 0
184 682 l 0
184 682 l 0
234 682 l 0
234 682 l 0
347 214 l 0
384 62 l 0
379 62 l 0
342 213 l 0
230 678 l 0
188 678 l 0
76 213 l 0
39 62 l 0
Z
1 72 m 0
-3 72 l 0
32 224 l 0
144 722 l 0
144 722 l 0
274 722 l 0
274 722 l 0
386 224 l 0
423 72 l 0
418 72 l 0
381 223 l 0
270 718 l 0
148 718 l 0
37 223 l 0
1 72 l 0
Z
94 148 m 0
94 152 l 0
325 152 l 0
325 148 l 0
94 148 l 0
Z
94 188 m 0
94 192 l 0
325 192 l 0
325 188 l 0
94 188 l 0
Z
94 228 m 0
94 232 l 0
325 232 l 0
325 228 l 0
94 228 l 0
Z
94 268 m 0
94 272 l 0
325 272 l 0
325 268 l 0
94 268 l 0
Z
Spiro
117 43 v
112 43 v
149 195 v
264 598 v
154 598 v
269 195 v
306 43 v
301 43 v
264 194 v
149 602 v
149 602 v
269 602 v
269 602 v
154 194 v
78 53 v
73 53 v
110 205 v
224 638 v
194 638 v
308 205 v
345 53 v
340 53 v
303 204 v
189 642 v
189 642 v
229 642 v
229 642 v
115 204 v
39 62 v
34 62 v
71 214 v
184 682 v
184 682 v
234 682 v
234 682 v
347 214 v
384 62 v
379 62 v
342 213 v
230 678 v
188 678 v
76 213 v
1 72 v
-3 72 v
32 224 v
144 722 v
144 722 v
274 722 v
274 722 v
386 224 v
423 72 v
418 72 v
381 223 v
270 718 v
148 718 v
37 223 v
94 148 v
94 152 v
325 152 v
325 148 v
94 188 v
94 192 v
325 192 v
325 188 v
94 228 v
94 232 v
325 232 v
325 228 v
94 268 v
94 272 v
325 272 v
325 268 v
0 0 z
EndSpiro
EndSplineSet
        EndChar
StartChar: B
Encoding: 66 66 0
Width: 526
InSpiro: 1
        Flags: H
        LayerCount: 2
        Back
        SplineSet
65 59 m 0
60 59 l 0
60 662 l 0
60 662 l 0
63 660 l 0
212 662 l 0
232 662 253 662 273 656 c 0
293 651 311 641 326 626 c 0
340 611 350 592 355 573 c 0
360 553 362 532 362 512 c 0
361 491 360 470 354 451 c 0
349 431 339 412 325 398 c 0
311 383 292 373 272 367 c 0
253 362 232 361 212 362 c 0
59 362 l 0
59 366 l 0
212 366 l 0
231 366 251 366 271 371 c 0
290 376 308 387 322 401 c 0
335 415 345 433 350 452 c 0
355 472 357 492 357 512 c 0
356 531 355 551 349 570 c 0
344 589 335 607 321 621 c 0
307 636 289 646 270 651 c 0
251 657 231 657 212 658 c 0
63 660 l 0
63 660 l 0
65 59 l 0
Z
64 60 m 0
60 60 l 0
60 663 l 0
60 663 l 0
62 661 l 0
212 663 l 0
232 663 253 663 273 657 c 0
293 652 312 642 326 627 c 0
341 612 350 593 356 573 c 0
361 553 363 532 363 512 c 0
362 491 361 470 356 450 c 0
350 430 340 411 326 396 c 0
312 381 293 371 273 365 c 0
253 360 232 359 212 360 c 0
60 360 l 0
60 364 l 0
212 364 l 0
232 364 252 364 271 369 c 0
290 374 308 385 322 399 c 0
336 414 346 432 351 451 c 0
356 470 358 491 358 511 c 0
357 530 356 551 351 570 c 0
345 589 336 607 322 622 c 0
308 636 290 647 271 652 c 0
252 658 231 658 212 659 c 0
62 661 l 0
62 661 l 0
64 60 l 0
Z
63 60 m 0
59 60 l 0
59 664 l 0
59 664 l 0
61 662 l 0
212 664 l 0
232 664 253 664 274 658 c 0
294 653 312 642 327 627 c 0
341 613 351 593 357 573 c 0
362 553 364 532 364 512 c 0
363 491 362 470 356 450 c 0
351 430 341 411 327 396 c 0
312 381 293 370 273 364 c 0
253 359 232 358 212 359 c 0
60 359 l 0
60 363 l 0
212 363 l 0
232 363 252 363 271 368 c 0
291 374 309 384 323 398 c 0
337 413 347 431 352 451 c 0
357 470 359 490 359 511 c 0
358 531 357 551 352 570 c 0
346 590 337 608 323 623 c 0
309 637 291 648 271 653 c 0
252 659 232 659 212 660 c 0
61 662 l 0
61 662 l 0
63 60 l 0
Z
62 60 m 0
58 60 l 0
58 666 l 0
58 666 l 0
60 664 l 0
212 666 l 0
233 666 254 666 274 660 c 0
295 655 314 644 329 629 c 0
343 614 353 595 359 574 c 0
364 554 366 533 366 512 c 0
365 491 364 469 358 449 c 0
352 429 342 410 328 395 c 0
313 380 294 369 274 363 c 0
254 358 232 357 212 358 c 0
60 358 l 0
60 362 l 0
212 362 l 0
232 362 253 362 272 367 c 0
292 373 310 383 325 398 c 0
339 412 348 431 354 451 c 0
359 470 361 491 361 512 c 0
360 532 359 552 353 572 c 0
348 591 338 610 324 624 c 0
310 639 291 650 272 655 c 0
252 661 232 661 212 662 c 0
60 664 l 0
60 664 l 0
62 60 l 0
Z
59 358 m 0
59 362 l 0
212 362 l 0
232 362 253 361 272 356 c 0
292 350 311 340 325 325 c 0
339 311 349 292 355 272 c 0
360 253 362 232 362 212 c 0
362 191 360 170 355 151 c 0
349 131 339 112 325 98 c 0
311 83 292 73 272 67 c 0
253 62 232 61 212 62 c 0
59 62 l 0
59 66 l 0
212 66 l 0
231 66 251 66 271 71 c 0
290 76 308 87 321 101 c 0
335 115 345 133 350 152 c 0
355 172 357 192 357 212 c 0
357 231 355 251 350 271 c 0
345 290 335 308 321 322 c 0
308 336 290 347 271 352 c 0
251 357 231 358 212 358 c 0
59 358 l 0
Z
60 359 m 0
60 363 l 0
212 363 l 0
232 363 253 362 273 357 c 0
293 351 311 341 326 326 c 0
340 311 350 292 355 273 c 0
361 253 362 232 363 212 c 0
363 191 361 170 356 150 c 0
350 130 340 111 326 96 c 0
312 81 293 71 273 65 c 0
253 60 232 59 212 60 c 0
60 60 l 0
60 64 l 0
212 64 l 0
231 64 252 64 271 69 c 0
290 75 308 85 322 99 c 0
336 114 345 132 351 151 c 0
356 170 357 191 358 211 c 0
358 231 356 251 351 270 c 0
346 290 336 308 323 323 c 0
309 337 291 347 271 353 c 0
252 358 232 359 212 359 c 0
60 359 l 0
Z
60 360 m 0
60 364 l 0
212 364 l 0
232 364 253 363 273 358 c 0
293 352 312 342 326 327 c 0
341 312 351 293 356 273 c 0
362 253 363 232 364 212 c 0
364 191 362 170 357 150 c 0
351 130 341 111 327 96 c 0
312 81 294 70 273 64 c 0
253 59 232 58 212 59 c 0
60 59 l 0
60 63 l 0
212 63 l 0
232 63 252 63 271 68 c 0
291 74 309 84 323 98 c 0
337 113 346 131 352 151 c 0
357 170 358 190 359 211 c 0
359 231 357 251 352 271 c 0
347 290 337 309 323 323 c 0
309 338 291 348 272 354 c 0
252 359 232 360 212 360 c 0
60 360 l 0
Z
60 362 m 0
60 366 l 0
212 366 l 0
233 366 254 365 274 360 c 0
294 354 313 343 328 328 c 0
343 313 353 294 358 274 c 0
364 254 366 233 366 212 c 0
366 190 364 169 358 149 c 0
353 129 343 110 328 95 c 0
313 80 294 69 274 63 c 0
254 58 233 57 212 58 c 0
60 58 l 0
60 62 l 0
212 62 l 0
232 61 253 62 272 67 c 0
292 73 310 83 324 98 c 0
339 113 348 131 354 151 c 0
359 171 361 191 361 212 c 0
360 232 359 252 354 272 c 0
348 292 339 310 324 325 c 0
310 340 292 350 272 356 c 0
253 361 232 362 212 362 c 0
60 362 l 0
Z
Spiro
65 59 v
60 59 v
60 662 v
60 662 v
63 660 v
212 662 ]
362 512 c
212 362 [
59 362 v
59 366 v
212 366 ]
357 512 c
212 658 [
63 660 v
63 660 v
64 60 v
60 60 v
60 663 v
60 663 v
62 661 v
212 663 ]
363 512 c
212 360 [
60 360 v
60 364 v
212 364 ]
358 511 c
212 659 [
62 661 v
62 661 v
63 60 v
59 60 v
59 664 v
59 664 v
61 662 v
212 664 ]
364 512 c
212 359 [
60 359 v
60 363 v
212 363 ]
359 511 c
212 660 [
61 662 v
61 662 v
62 60 v
58 60 v
58 666 v
58 666 v
60 664 v
212 666 ]
366 512 c
212 358 [
60 358 v
60 362 v
212 362 ]
361 512 c
212 662 [
60 664 v
60 664 v
59 358 v
59 362 v
212 362 ]
362 212 c
212 62 [
59 62 v
59 66 v
212 66 ]
357 212 c
212 358 [
60 359 v
60 363 v
212 363 ]
363 212 c
212 60 [
60 60 v
60 64 v
212 64 ]
358 211 c
212 359 [
60 360 v
60 364 v
212 364 ]
364 212 c
212 59 [
60 59 v
60 63 v
212 63 ]
359 211 c
212 360 [
60 362 v
60 366 v
212 366 ]
366 212 c
212 58 [
60 58 v
60 62 v
212 62 ]
361 212 c
212 362 [
0 0 z
EndSpiro
EndSplineSet
        Fore
        SplineSet
119 57 m 0
114 57 l 0
114 602 l 0
114 602 l 0
117 600 l 0
210 602 l 0
222 602 235 602 248 599 c 0
261 596 272 589 281 580 c 0
291 571 297 559 300 547 c 0
304 534 305 521 305 509 c 0
304 496 303 483 299 471 c 0
295 459 289 448 280 439 c 0
271 430 259 424 247 421 c 0
235 418 222 417 210 418 c 0
57 418 l 0
57 422 l 0
210 422 l 0
222 422 234 422 246 425 c 0
257 428 268 434 277 442 c 0
286 451 292 462 295 474 c 0
299 485 300 497 300 510 c 0
299 522 298 534 295 545 c 0
291 557 285 567 276 576 c 0
268 584 257 590 245 594 c 0
234 597 222 597 210 598 c 0
117 600 l 0
117 600 l 0
119 57 l 0
Z
79 58 m 0
74 58 l 0
74 642 l 0
74 642 l 0
77 640 l 0
210 642 l 0
228 642 246 642 264 637 c 0
282 633 299 623 312 610 c 0
325 597 334 581 339 563 c 0
344 545 345 527 345 509 c 0
344 490 343 472 337 455 c 0
332 438 323 421 310 409 c 0
297 396 281 387 263 382 c 0
246 378 228 377 210 378 c 0
57 378 l 0
57 382 l 0
210 382 l 0
227 382 245 382 262 386 c 0
279 391 295 400 307 412 c 0
320 425 328 440 333 457 c 0
338 474 340 492 340 510 c 0
339 527 338 545 333 561 c 0
328 578 319 594 307 606 c 0
294 619 278 627 262 632 c 0
245 637 227 637 210 638 c 0
77 640 l 0
77 640 l 0
79 58 l 0
Z
39 58 m 0
34 58 l 0
34 682 l 0
34 682 l 0
37 680 l 0
210 682 l 0
233 682 257 682 280 676 c 0
303 670 325 658 341 641 c 0
358 624 370 603 376 580 c 0
383 557 385 533 385 510 c 0
384 486 382 462 376 439 c 0
369 417 357 395 341 379 c 0
324 362 303 350 280 344 c 0
257 338 233 337 210 338 c 0
57 338 l 0
57 342 l 0
210 342 l 0
233 342 256 342 278 348 c 0
300 354 321 365 337 382 c 0
354 398 365 419 371 441 c 0
378 463 380 486 380 510 c 0
379 532 377 556 371 578 c 0
364 600 353 620 337 637 c 0
321 653 300 664 278 670 c 0
256 677 232 677 210 678 c 0
37 680 l 0
37 680 l 0
39 58 l 0
Z
0 58 m 0
-5 58 l 0
-4 722 l 0
-4 722 l 0
-2 720 l 0
210 722 l 0
239 722 268 721 296 714 c 0
325 707 351 692 372 671 c 0
392 651 406 624 414 596 c 0
423 568 425 539 425 510 c 0
424 480 422 451 414 423 c 0
406 395 391 369 371 348 c 0
350 328 324 313 296 306 c 0
268 298 239 297 210 298 c 0
57 298 l 0
57 302 l 0
210 302 l 0
238 302 267 302 294 309 c 0
322 317 348 331 368 351 c 0
388 372 402 398 410 425 c 0
418 452 420 481 420 510 c 0
419 538 417 567 409 594 c 0
401 621 387 647 367 667 c 0
347 687 321 701 294 709 c 0
267 716 238 717 210 718 c 0
-2 720 l 0
-1 720 l 0
0 58 l 0
Z
57 298 m 0
57 302 l 0
210 302 l 0
222 302 235 301 248 298 c 0
260 295 272 288 281 279 c 0
290 270 296 259 300 247 c 0
304 234 305 221 305 209 c 0
304 196 303 183 299 171 c 0
295 159 289 148 280 139 c 0
271 130 259 124 247 121 c 0
235 118 222 117 210 118 c 0
57 118 l 0
57 122 l 0
210 122 l 0
222 122 234 122 246 125 c 0
257 128 268 134 277 142 c 0
285 151 292 162 295 174 c 0
298 185 300 197 300 210 c 0
300 222 298 234 295 245 c 0
292 257 285 268 277 277 c 0
268 285 257 291 246 294 c 0
234 297 222 298 210 298 c 0
57 298 l 0
Z
57 338 m 0
57 342 l 0
210 342 l 0
228 342 246 341 264 336 c 0
282 332 298 323 311 310 c 0
324 297 333 280 338 263 c 0
343 245 345 227 345 209 c 0
344 190 343 172 337 155 c 0
332 138 323 121 310 109 c 0
297 96 281 87 263 82 c 0
246 78 228 77 210 78 c 0
57 78 l 0
57 82 l 0
210 82 l 0
227 82 245 82 262 86 c 0
279 91 295 100 307 112 c 0
320 125 328 141 333 157 c 0
338 174 340 192 340 210 c 0
340 227 338 245 333 262 c 0
328 279 319 294 307 307 c 0
295 319 279 328 262 333 c 0
245 337 227 338 210 338 c 0
57 338 l 0
Z
57 378 m 0
57 382 l 0
210 382 l 0
233 382 257 381 280 375 c 0
303 369 324 357 341 340 c 0
357 324 369 302 376 280 c 0
383 257 385 233 385 210 c 0
385 186 383 162 376 139 c 0
369 117 357 95 341 79 c 0
324 62 303 50 280 44 c 0
257 38 233 37 210 38 c 0
57 38 l 0
57 42 l 0
210 42 l 0
233 42 256 42 278 48 c 0
300 54 321 65 337 82 c 0
354 98 365 119 371 141 c 0
378 163 380 186 380 210 c 0
380 233 378 256 371 278 c 0
365 300 354 321 337 337 c 0
321 354 300 365 278 371 c 0
256 377 233 378 210 378 c 0
57 378 l 0
Z
57 418 m 0
57 422 l 0
210 422 l 0
239 422 268 421 296 413 c 0
324 406 351 391 371 371 c 0
392 350 406 324 414 296 c 0
422 268 425 239 425 210 c 0
425 180 422 151 414 123 c 0
406 95 391 69 371 48 c 0
351 28 324 13 296 6 c 0
268 -1 239 -2 210 -2 c 0
57 -2 l 0
57 2 l 0
210 2 l 0
238 1 267 2 294 9 c 0
322 17 348 31 368 51 c 0
388 72 402 98 409 125 c 0
417 152 420 181 420 210 c 0
420 238 417 267 409 294 c 0
401 321 388 347 368 368 c 0
348 388 322 402 294 410 c 0
267 417 238 418 210 418 c 0
57 418 l 0
Z
Spiro
119 57 v
114 57 v
114 602 v
114 602 v
117 600 v
210 602 ]
305 509 c
210 418 [
57 418 v
57 422 v
210 422 ]
300 510 c
210 598 [
117 600 v
117 600 v
79 58 v
74 58 v
74 642 v
74 642 v
77 640 v
210 642 ]
345 509 c
210 378 [
57 378 v
57 382 v
210 382 ]
340 510 c
210 638 [
77 640 v
77 640 v
39 58 v
34 58 v
34 682 v
34 682 v
37 680 v
210 682 ]
385 510 c
210 338 [
57 338 v
57 342 v
210 342 ]
380 510 c
210 678 [
37 680 v
37 680 v
0 58 v
-5 58 v
-4 722 v
-4 722 v
-2 720 v
210 722 ]
425 510 c
210 298 [
57 298 v
57 302 v
210 302 ]
420 510 c
210 718 [
-2 720 v
-1 720 v
57 298 v
57 302 v
210 302 ]
305 209 c
210 118 [
57 118 v
57 122 v
210 122 ]
300 210 c
210 298 [
57 338 v
57 342 v
210 342 ]
345 209 c
210 78 [
57 78 v
57 82 v
210 82 ]
340 210 c
210 338 [
57 378 v
57 382 v
210 382 ]
385 210 c
210 38 [
57 38 v
57 42 v
210 42 ]
380 210 c
210 378 [
57 418 v
57 422 v
210 422 ]
425 210 c
210 -2 [
57 -2 v
57 2 v
210 2 ]
420 210 c
210 418 [
0 0 z
EndSpiro
EndSplineSet
        EndChar
StartChar: C
Encoding: 67 67 0
Width: 526
InSpiro: 1
        Flags: H
        LayerCount: 2
        Back
        SplineSet
365 560 m 0
360 560 l 0
352 592 333 621 305 640 c 0
278 658 243 666 211 661 c 0
180 655 153 640 131 618 c 0
109 597 93 570 83 541 c 0
62 484 62 422 62 361 c 0
61 299 62 237 83 180 c 0
93 151 109 124 131 103 c 0
153 81 180 66 211 61 c 0
243 55 278 63 306 82 c 0
333 100 353 130 360 163 c 0
365 163 l 0
357 129 337 98 308 79 c 0
279 60 243 52 210 59 c 0
179 64 151 80 130 101 c 0
108 123 92 149 81 178 c 0
59 235 58 298 58 360 c 0
57 421 58 485 80 543 c 0
91 572 107 599 129 621 c 0
151 642 179 658 210 664 c 0
243 669 279 662 308 643 c 0
336 624 357 593 365 560 c 0
Z
364 560 m 0
359 560 l 0
351 592 332 621 304 639 c 0
277 657 243 665 211 660 c 0
181 654 153 639 131 617 c 0
110 596 94 569 84 541 c 0
63 484 63 421 63 361 c 0
62 300 63 237 84 180 c 0
94 152 110 125 131 104 c 0
153 82 181 66 211 62 c 0
243 56 278 64 305 82 c 0
332 101 352 130 359 163 c 0
364 163 l 0
356 129 336 99 307 80 c 0
279 61 243 54 210 60 c 0
179 65 151 81 129 102 c 0
108 124 92 151 81 180 c 0
59 237 58 300 59 362 c 0
59 423 60 485 81 543 c 0
92 571 108 598 130 620 c 0
152 641 179 657 210 663 c 0
243 668 279 661 307 642 c 0
336 623 356 593 364 560 c 0
Z
363 559 m 0
358 559 l 0
351 590 331 619 304 638 c 0
278 656 244 664 212 659 c 0
182 654 154 638 132 617 c 0
111 596 95 569 85 540 c 0
64 483 64 421 64 361 c 0
63 300 64 238 84 181 c 0
95 152 111 125 132 104 c 0
154 83 182 67 212 63 c 0
244 57 278 65 305 84 c 0
332 102 351 131 358 164 c 0
363 164 l 0
356 130 335 100 307 81 c 0
279 62 244 54 211 60 c 0
180 65 152 80 130 102 c 0
108 123 92 151 81 179 c 0
60 237 59 300 60 362 c 0
60 423 61 485 82 542 c 0
93 571 109 598 131 619 c 0
153 641 180 656 211 662 c 0
244 667 279 660 307 641 c 0
335 622 355 592 363 559 c 0
Z
361 559 m 0
356 559 l 0
349 590 330 619 303 637 c 0
277 655 243 663 212 658 c 0
182 653 154 637 133 616 c 0
111 595 96 568 86 539 c 0
65 483 66 421 66 361 c 0
65 300 65 238 86 182 c 0
96 153 111 126 133 105 c 0
154 84 182 68 212 64 c 0
243 58 277 66 304 85 c 0
330 103 349 132 356 164 c 0
361 164 l 0
354 131 334 101 306 82 c 0
279 63 244 55 211 61 c 0
180 65 152 81 130 103 c 0
109 124 93 151 82 180 c 0
61 237 60 300 61 362 c 0
61 422 61 485 83 542 c 0
93 570 109 597 131 619 c 0
153 640 180 655 211 661 c 0
243 666 278 658 306 640 c 0
334 621 354 591 361 559 c 0
Z
Spiro
365 560 v
360 560 v
211 661 c
62 361 c
211 61 c
360 163 v
365 163 v
210 59 c
58 360 c
210 664 c
364 560 v
359 560 v
211 660 c
63 361 c
211 62 c
359 163 v
364 163 v
210 60 c
59 362 c
210 663 c
363 559 v
358 559 v
212 659 c
64 361 c
212 63 c
358 164 v
363 164 v
211 60 c
60 362 c
211 662 c
361 559 v
356 559 v
212 658 c
66 361 c
212 64 c
356 164 v
361 164 v
211 61 c
61 362 c
211 661 c
0 0 z
EndSpiro
EndSplineSet
        Fore
        SplineSet
417 571 m 0
412 571 l 0
403 618 376 661 336 688 c 0
297 715 246 726 200 717 c 0
163 709 130 691 103 666 c 0
75 641 55 609 40 576 c 0
10 508 5 432 5 359 c 0
4 285 10 209 40 141 c 0
55 108 75 76 103 51 c 0
130 26 163 8 200 1 c 0
247 -8 297 2 337 29 c 0
376 56 404 100 412 148 c 0
417 148 l 0
408 99 379 55 339 27 c 0
298 0 247 -10 199 -1 c 0
162 6 128 24 101 49 c 0
73 74 52 106 37 140 c 0
6 207 0 283 0 358 c 0
0 432 5 509 36 577 c 0
51 611 73 643 100 668 c 0
128 694 162 712 199 720 c 0
247 729 298 719 339 691 c 0
379 663 408 619 417 571 c 0
Z
378 562 m 0
373 562 l 0
366 598 344 632 313 653 c 0
282 674 243 683 207 677 c 0
175 671 145 654 122 632 c 0
98 609 81 581 70 550 c 0
46 490 45 423 45 359 c 0
44 294 46 227 69 167 c 0
81 136 98 108 122 85 c 0
145 63 175 46 207 41 c 0
243 34 283 43 313 64 c 0
344 86 366 120 373 157 c 0
378 157 l 0
371 118 348 83 316 61 c 0
284 39 244 31 206 38 c 0
173 43 143 60 120 83 c 0
96 105 79 134 66 164 c 0
42 225 40 292 40 358 c 0
39 423 42 491 66 552 c 0
78 583 96 611 119 634 c 0
143 657 173 674 206 680 c 0
243 686 284 678 316 656 c 0
348 634 370 599 378 562 c 0
Z
339 553 m 0
334 553 l 0
328 579 312 603 290 619 c 0
267 634 239 641 213 638 c 0
185 634 159 619 139 599 c 0
120 578 107 553 98 526 c 0
81 472 85 415 85 359 c 0
84 302 81 245 98 191 c 0
106 164 120 139 139 118 c 0
159 98 185 83 213 80 c 0
239 76 268 83 290 99 c 0
312 114 328 139 334 166 c 0
339 166 l 0
333 138 316 112 293 96 c 0
269 79 240 72 212 77 c 0
183 81 157 96 137 116 c 0
117 137 103 162 95 190 c 0
77 244 79 302 80 360 c 0
80 416 78 474 95 528 c 0
104 555 118 581 138 601 c 0
157 622 183 636 212 641 c 0
240 645 269 638 292 622 c 0
316 605 333 580 339 553 c 0
Z
300 544 m 0
295 544 l 0
290 559 280 574 266 583 c 0
253 593 236 598 220 598 c 0
195 597 173 584 157 567 c 0
141 549 131 526 126 502 c 0
116 455 125 407 125 359 c 0
124 310 116 262 126 215 c 0
131 191 140 168 157 150 c 0
173 133 195 120 220 120 c 0
236 119 253 124 266 134 c 0
280 144 290 158 295 175 c 0
300 175 l 0
295 157 284 142 269 131 c 0
255 121 236 116 219 117 c 0
194 118 171 130 155 148 c 0
138 167 128 190 123 213 c 0
112 261 119 311 120 360 c 0
120 408 112 457 123 504 c 0
129 528 139 551 155 569 c 0
172 587 194 599 219 601 c 0
236 601 254 596 269 586 c 0
283 576 294 561 300 544 c 0
Z
Spiro
417 571 v
412 571 v
200 717 c
5 359 c
200 1 c
412 148 v
417 148 v
199 -1 c
0 358 c
199 720 c
378 562 v
373 562 v
207 677 c
45 359 c
207 41 c
373 157 v
378 157 v
206 38 c
40 358 c
206 680 c
339 553 v
334 553 v
213 638 c
85 359 c
213 80 c
334 166 v
339 166 v
212 77 c
80 360 c
212 641 c
300 544 v
295 544 v
220 598 c
125 359 c
220 120 c
295 175 v
300 175 v
219 117 c
120 360 c
219 601 c
0 0 z
EndSpiro
EndSplineSet
        EndChar
StartChar: D
Encoding: 68 68 0
Width: 526
InSpiro: 1
        Flags: H
        LayerCount: 2
        Back
        SplineSet
63 64 m 0
62 64 l 0
60 662 l 0
60 662 l 0
63 660 l 0
212 662 l 0
232 662 253 662 273 657 c 0
293 652 312 642 327 627 c 0
342 612 351 593 356 573 c 0
361 553 362 532 362 512 c 0
362 212 l 0
362 191 361 170 356 150 c 0
351 130 342 111 327 96 c 0
312 81 293 71 273 66 c 0
253 61 232 61 212 62 c 0
63 64 l 0
Z
212 66 m 0
232 66 252 66 271 71 c 0
291 76 309 85 323 100 c 0
337 114 347 132 351 152 c 0
356 171 357 191 357 212 c 0
357 512 l 0
357 531 356 552 351 571 c 0
346 590 337 609 323 623 c 0
309 637 290 647 271 652 c 0
252 657 231 657 212 658 c 0
63 660 l 0
63 660 l 0
65 61 l 0
65 61 l 0
60 61 l 0
60 66 l 0
212 66 l 0
Z
62 62 m 0
61 62 l 0
60 663 l 0
60 663 l 0
62 661 l 0
212 663 l 0
232 663 253 663 274 658 c 0
294 653 313 643 328 628 c 0
342 613 352 594 357 574 c 0
362 553 363 532 363 512 c 0
363 212 l 0
363 191 362 169 357 149 c 0
352 129 343 109 328 94 c 0
313 80 294 69 274 64 c 0
254 59 232 59 212 60 c 0
62 62 l 0
Z
212 64 m 0
232 64 252 64 272 69 c 0
291 74 310 84 324 98 c 0
338 113 348 131 352 151 c 0
357 171 358 191 358 212 c 0
358 512 l 0
358 532 357 552 352 571 c 0
347 591 338 609 324 624 c 0
309 638 291 648 271 653 c 0
252 658 232 658 212 659 c 0
62 661 l 0
62 661 l 0
64 60 l 0
64 60 l 0
60 60 l 0
60 64 l 0
212 64 l 0
Z
61 61 m 0
60 61 l 0
59 664 l 0
59 664 l 0
61 662 l 0
212 664 l 0
232 664 254 664 274 659 c 0
295 654 314 644 329 629 c 0
343 614 353 594 358 574 c 0
363 554 364 532 364 512 c 0
364 212 l 0
364 190 363 169 358 149 c 0
353 128 343 109 329 94 c 0
314 79 295 68 274 63 c 0
254 58 233 58 212 59 c 0
61 61 l 0
Z
212 63 m 0
232 63 252 63 272 68 c 0
292 73 311 83 325 98 c 0
339 112 349 131 353 151 c 0
358 171 359 191 359 212 c 0
359 512 l 0
359 532 358 552 353 572 c 0
348 592 339 610 324 624 c 0
310 639 291 649 272 654 c 0
252 659 232 659 212 660 c 0
61 662 l 0
61 662 l 0
63 59 l 0
63 59 l 0
59 59 l 0
59 63 l 0
212 63 l 0
Z
60 60 m 0
60 60 l 0
58 666 l 0
58 666 l 0
60 664 l 0
212 666 l 0
233 666 254 666 275 661 c 0
296 656 315 645 330 630 c 0
345 615 355 596 360 575 c 0
365 554 366 533 366 512 c 0
366 212 l 0
366 190 365 169 360 148 c 0
355 127 345 108 330 93 c 0
315 78 296 67 275 62 c 0
254 57 233 57 212 58 c 0
60 60 l 0
Z
212 62 m 0
232 62 253 62 273 67 c 0
293 72 312 82 326 97 c 0
341 111 350 130 355 150 c 0
360 170 361 191 361 212 c 0
361 512 l 0
361 532 360 553 355 573 c 0
350 593 340 611 326 626 c 0
311 641 293 650 273 656 c 0
253 661 232 661 212 662 c 0
60 664 l 0
60 664 l 0
62 58 l 0
62 58 l 0
58 58 l 0
58 62 l 0
212 62 l 0
Z
Spiro
63 64 v
62 64 v
60 662 v
60 662 v
63 660 v
212 662 ]
362 512 [
362 212 ]
212 62 [
212 66 ]
357 212 [
357 512 ]
212 658 [
63 660 v
63 660 v
65 61 v
65 61 v
60 61 v
60 66 v
62 62 v
61 62 v
60 663 v
60 663 v
62 661 v
212 663 ]
363 512 [
363 212 ]
212 60 [
212 64 ]
358 212 [
358 512 ]
212 659 [
62 661 v
62 661 v
64 60 v
64 60 v
60 60 v
60 64 v
61 61 v
60 61 v
59 664 v
59 664 v
61 662 v
212 664 ]
364 512 [
364 212 ]
212 59 [
212 63 ]
359 212 [
359 512 ]
212 660 [
61 662 v
61 662 v
63 59 v
63 59 v
59 59 v
59 63 v
60 60 v
60 60 v
58 666 v
58 666 v
60 664 v
212 666 ]
366 512 [
366 212 ]
212 58 [
212 62 ]
361 212 [
361 512 ]
212 662 [
60 664 v
60 664 v
62 58 v
62 58 v
58 58 v
58 62 v
0 0 z
EndSpiro
EndSplineSet
        Fore
        SplineSet
117 120 m 0
116 120 l 0
114 602 l 0
114 602 l 0
117 600 l 0
210 602 l 0
222 602 236 602 248 599 c 0
261 596 273 590 282 581 c 0
291 572 298 561 301 548 c 0
304 536 305 522 305 510 c 0
305 210 l 0
305 197 304 183 301 171 c 0
298 158 291 147 282 138 c 0
273 129 261 123 248 120 c 0
236 117 222 117 210 118 c 0
117 120 l 0
Z
210 122 m 0
222 122 234 122 246 124 c 0
258 127 269 133 278 141 c 0
287 150 293 161 296 173 c 0
299 185 300 197 300 210 c 0
300 510 l 0
300 522 299 534 296 546 c 0
293 558 287 569 278 577 c 0
269 585 258 591 246 594 c 0
234 597 222 597 210 598 c 0
117 600 l 0
117 600 l 0
119 118 l 0
119 118 l 0
114 118 l 0
114 122 l 0
210 122 l 0
Z
77 80 m 0
76 80 l 0
74 642 l 0
74 642 l 0
77 640 l 0
210 642 l 0
228 642 247 642 265 638 c 0
283 633 300 625 313 612 c 0
326 599 335 582 340 564 c 0
344 547 345 528 345 510 c 0
345 210 l 0
345 191 344 172 340 155 c 0
335 137 326 120 313 107 c 0
300 94 282 86 265 81 c 0
247 77 228 77 210 78 c 0
77 80 l 0
Z
210 82 m 0
227 82 245 82 262 86 c 0
280 90 296 98 309 111 c 0
322 123 330 139 335 157 c 0
339 174 340 192 340 210 c 0
340 510 l 0
340 527 339 545 335 562 c 0
330 579 321 595 309 608 c 0
296 620 279 628 262 633 c 0
245 637 227 637 210 638 c 0
77 640 l 0
77 640 l 0
79 78 l 0
79 78 l 0
74 78 l 0
74 82 l 0
210 82 l 0
Z
37 40 m 0
36 40 l 0
34 682 l 0
34 682 l 0
37 680 l 0
210 682 l 0
233 682 258 682 281 676 c 0
304 671 326 660 344 643 c 0
361 626 372 604 378 581 c 0
384 558 385 533 385 510 c 0
385 210 l 0
385 186 384 161 378 138 c 0
372 115 361 93 344 76 c 0
326 59 304 48 281 43 c 0
258 37 233 37 210 38 c 0
37 40 l 0
Z
210 42 m 0
233 42 256 42 279 47 c 0
302 53 323 64 340 80 c 0
356 96 368 118 373 140 c 0
379 163 380 186 380 210 c 0
380 510 l 0
380 533 379 556 373 579 c 0
367 601 356 622 339 638 c 0
323 655 301 666 279 671 c 0
256 677 233 677 210 678 c 0
37 680 l 0
37 680 l 0
39 38 l 0
39 38 l 0
34 38 l 0
34 42 l 0
210 42 l 0
Z
-1 0 m 0
-2 0 l 0
-4 722 l 0
-4 722 l 0
-2 720 l 0
210 722 l 0
239 722 269 722 297 715 c 0
326 708 353 694 374 673 c 0
395 653 410 626 417 597 c 0
424 569 425 539 425 510 c 0
425 210 l 0
425 180 424 150 417 122 c 0
410 93 395 66 374 45 c 0
353 25 326 11 297 4 c 0
269 -2 239 -2 210 -2 c 0
-1 0 l 0
Z
210 2 m 0
238 2 267 2 295 9 c 0
323 16 350 29 370 49 c 0
391 70 405 96 412 124 c 0
419 152 420 181 420 210 c 0
420 510 l 0
420 538 419 567 412 595 c 0
405 623 391 649 370 669 c 0
349 689 323 703 295 710 c 0
267 717 238 717 210 718 c 0
-2 720 l 0
-1 720 l 0
0 -2 l 0
0 -2 l 0
-4 -2 l 0
-4 2 l 0
210 2 l 0
Z
Spiro
117 120 v
116 120 v
114 602 v
114 602 v
117 600 v
210 602 ]
305 510 [
305 210 ]
210 118 [
210 122 ]
300 210 [
300 510 ]
210 598 [
117 600 v
117 600 v
119 118 v
119 118 v
114 118 v
114 122 v
77 80 v
76 80 v
74 642 v
74 642 v
77 640 v
210 642 ]
345 510 [
345 210 ]
210 78 [
210 82 ]
340 210 [
340 510 ]
210 638 [
77 640 v
77 640 v
79 78 v
79 78 v
74 78 v
74 82 v
37 40 v
36 40 v
34 682 v
34 682 v
37 680 v
210 682 ]
385 510 [
385 210 ]
210 38 [
210 42 ]
380 210 [
380 510 ]
210 678 [
37 680 v
37 680 v
39 38 v
39 38 v
34 38 v
34 42 v
-1 0 v
-2 0 v
-4 722 v
-4 722 v
-2 720 v
210 722 ]
425 510 [
425 210 ]
210 -2 [
210 2 ]
420 210 [
420 510 ]
210 718 [
-2 720 v
-1 720 v
0 -2 v
0 -2 v
-4 -2 v
-4 2 v
0 0 z
EndSpiro
EndSplineSet
        EndChar
StartChar: F
Encoding: 70 70 0
Width: 526
InSpiro: 1
        Flags: H
        LayerCount: 2
        Back
        SplineSet
364 666 m 0
364 662 l 0
62 662 l 0
62 60 l 0
58 60 l 0
58 666 l 0
58 666 l 0
364 666 l 0
Z
364 664 m 0
364 660 l 0
63 660 l 0
63 60 l 0
59 60 l 0
59 664 l 0
59 664 l 0
364 664 l 0
Z
364 663 m 0
364 659 l 0
64 659 l 0
64 60 l 0
60 60 l 0
60 663 l 0
60 663 l 0
364 663 l 0
Z
364 662 m 0
364 658 l 0
66 658 l 0
66 60 l 0
61 60 l 0
61 662 l 0
61 662 l 0
364 662 l 0
Z
59 358 m 0
59 362 l 0
264 362 l 0
264 358 l 0
59 358 l 0
Z
60 359 m 0
60 363 l 0
264 363 l 0
264 359 l 0
60 359 l 0
Z
60 360 m 0
60 364 l 0
264 364 l 0
264 360 l 0
60 360 l 0
Z
60 362 m 0
60 366 l 0
264 366 l 0
264 362 l 0
60 362 l 0
Z
Spiro
364 666 v
364 662 v
62 662 v
62 60 v
58 60 v
58 666 v
58 666 v
364 664 v
364 660 v
63 660 v
63 60 v
59 60 v
59 664 v
59 664 v
364 663 v
364 659 v
64 659 v
64 60 v
60 60 v
60 663 v
60 663 v
364 662 v
364 658 v
66 658 v
66 60 v
61 60 v
61 662 v
61 662 v
59 358 v
59 362 v
264 362 v
264 358 v
60 359 v
60 363 v
264 363 v
264 359 v
60 360 v
60 364 v
264 364 v
264 360 v
60 362 v
60 366 v
264 366 v
264 362 v
0 0 z
EndSpiro
EndSplineSet
        Fore
        SplineSet
362 722 m 0
362 718 l 0
4 718 l 0
5 58 l 0
0 58 l 0
0 722 l 0
0 722 l 0
362 722 l 0
Z
362 682 m 0
362 678 l 0
44 678 l 0
45 58 l 0
40 58 l 0
39 682 l 0
39 682 l 0
362 682 l 0
Z
362 642 m 0
362 638 l 0
84 638 l 0
85 58 l 0
80 58 l 0
79 642 l 0
79 642 l 0
362 642 l 0
Z
362 602 m 0
362 598 l 0
124 598 l 0
125 58 l 0
120 58 l 0
119 602 l 0
119 602 l 0
362 602 l 0
Z
57 298 m 0
57 302 l 0
262 302 l 0
262 298 l 0
57 298 l 0
Z
57 338 m 0
57 342 l 0
262 342 l 0
262 338 l 0
57 338 l 0
Z
57 378 m 0
57 382 l 0
262 382 l 0
262 378 l 0
57 378 l 0
Z
57 418 m 0
57 422 l 0
262 422 l 0
262 418 l 0
57 418 l 0
Z
Spiro
362 722 v
362 718 v
4 718 v
5 58 v
0 58 v
0 722 v
0 722 v
362 682 v
362 678 v
44 678 v
45 58 v
40 58 v
39 682 v
39 682 v
362 642 v
362 638 v
84 638 v
85 58 v
80 58 v
79 642 v
79 642 v
362 602 v
362 598 v
124 598 v
125 58 v
120 58 v
119 602 v
119 602 v
57 298 v
57 302 v
262 302 v
262 298 v
57 338 v
57 342 v
262 342 v
262 338 v
57 378 v
57 382 v
262 382 v
262 378 v
57 418 v
57 422 v
262 422 v
262 418 v
0 0 z
EndSpiro
EndSplineSet
        EndChar
StartChar: M
Encoding: 77 77 0
Width: 676
InSpiro: 1
        Flags: H
        LayerCount: 2
        Back
        SplineSet
65 59 m 0
60 59 l 0
60 658 l 0
62 658 l 0
286 62 l 0
510 658 l 0
512 658 l 0
512 60 l 0
507 60 l 0
507 662 l 0
507 662 l 0
515 662 l 0
515 662 l 0
289 55 l 0
284 55 l 0
58 662 l 0
58 662 l 0
65 662 l 0
65 662 l 0
65 59 l 0
Z
64 60 m 0
60 60 l 0
61 660 l 0
61 660 l 0
286 65 l 0
511 660 l 0
511 660 l 0
513 60 l 0
508 60 l 0
508 663 l 0
508 663 l 0
514 663 l 0
514 663 l 0
289 58 l 0
284 58 l 0
59 663 l 0
59 663 l 0
64 663 l 0
64 663 l 0
64 60 l 0
Z
63 60 m 0
59 60 l 0
59 664 l 0
59 664 l 0
64 664 l 0
64 664 l 0
286 68 l 0
508 664 l 0
508 664 l 0
514 664 l 0
514 664 l 0
514 60 l 0
509 60 l 0
511 661 l 0
511 661 l 0
289 60 l 0
284 61 l 0
61 661 l 0
61 661 l 0
63 60 l 0
Z
62 60 m 0
58 60 l 0
58 666 l 0
58 666 l 0
66 666 l 0
66 666 l 0
286 72 l 0
506 666 l 0
506 666 l 0
516 666 l 0
516 666 l 0
516 60 l 0
511 60 l 0
511 662 l 0
510 662 l 0
289 65 l 0
284 65 l 0
62 662 l 0
62 662 l 0
62 60 l 0
Z
Spiro
65 59 v
60 59 v
60 658 v
62 658 v
286 62 v
510 658 v
512 658 v
512 60 v
507 60 v
507 662 v
507 662 v
515 662 v
515 662 v
289 55 v
284 55 v
58 662 v
58 662 v
65 662 v
65 662 v
64 60 v
60 60 v
61 660 v
61 660 v
286 65 v
511 660 v
511 660 v
513 60 v
508 60 v
508 663 v
508 663 v
514 663 v
514 663 v
289 58 v
284 58 v
59 663 v
59 663 v
64 663 v
64 663 v
63 60 v
59 60 v
59 664 v
59 664 v
64 664 v
64 664 v
286 68 v
508 664 v
508 664 v
514 664 v
514 664 v
514 60 v
509 60 v
511 661 v
511 661 v
289 60 v
284 61 v
61 661 v
61 661 v
62 60 v
58 60 v
58 666 v
58 666 v
66 666 v
66 666 v
286 72 v
506 666 v
506 666 v
516 666 v
516 666 v
516 60 v
511 60 v
511 662 v
510 662 v
289 65 v
284 65 v
62 662 v
62 662 v
0 0 z
EndSpiro
EndSplineSet
        Fore
        SplineSet
119 57 m 0
114 57 l 0
114 598 l 0
5 598 l 0
284 -104 l 0
563 598 l 0
454 598 l 0
455 58 l 0
450 58 l 0
449 602 l 0
449 602 l 0
569 602 l 0
569 602 l 0
287 -112 l 0
282 -112 l 0
0 602 l 0
0 602 l 0
119 602 l 0
119 602 l 0
119 57 l 0
Z
79 58 m 0
74 58 l 0
74 638 l 0
44 638 l 0
284 8 l 0
524 638 l 0
494 638 l 0
495 58 l 0
490 58 l 0
489 642 l 0
489 642 l 0
529 642 l 0
529 642 l 0
287 0 l 0
282 1 l 0
39 642 l 0
39 642 l 0
79 642 l 0
79 642 l 0
79 58 l 0
Z
39 58 m 0
34 58 l 0
34 682 l 0
34 682 l 0
84 682 l 0
84 682 l 0
284 121 l 0
484 682 l 0
484 682 l 0
534 682 l 0
534 682 l 0
535 58 l 0
530 58 l 0
529 678 l 0
488 678 l 0
287 114 l 0
282 114 l 0
80 678 l 0
39 678 l 0
39 58 l 0
Z
0 58 m 0
-5 58 l 0
-4 722 l 0
-4 722 l 0
124 722 l 0
124 722 l 0
284 236 l 0
444 722 l 0
444 722 l 0
574 722 l 0
574 722 l 0
575 58 l 0
570 58 l 0
569 718 l 0
448 718 l 0
287 228 l 0
282 228 l 0
120 718 l 0
0 718 l 0
0 58 l 0
Z
Spiro
119 57 v
114 57 v
114 598 v
5 598 v
284 -104 v
563 598 v
454 598 v
455 58 v
450 58 v
449 602 v
449 602 v
569 602 v
569 602 v
287 -112 v
282 -112 v
0 602 v
0 602 v
119 602 v
119 602 v
79 58 v
74 58 v
74 638 v
44 638 v
284 8 v
524 638 v
494 638 v
495 58 v
490 58 v
489 642 v
489 642 v
529 642 v
529 642 v
287 0 v
282 1 v
39 642 v
39 642 v
79 642 v
79 642 v
39 58 v
34 58 v
34 682 v
34 682 v
84 682 v
84 682 v
284 121 v
484 682 v
484 682 v
534 682 v
534 682 v
535 58 v
530 58 v
529 678 v
488 678 v
287 114 v
282 114 v
80 678 v
39 678 v
0 58 v
-5 58 v
-4 722 v
-4 722 v
124 722 v
124 722 v
284 236 v
444 722 v
444 722 v
574 722 v
574 722 v
575 58 v
570 58 v
569 718 v
448 718 v
287 228 v
282 228 v
120 718 v
0 718 v
0 0 z
EndSpiro
EndSplineSet
        EndChar
StartChar: S
Encoding: 83 83 0
Width: 526
InSpiro: 1
        Flags: H
        LayerCount: 2
        Back
        SplineSet
365 560 m 0
360 560 l 0
349 590 329 617 302 635 c 0
275 653 243 662 211 661 c 0
172 659 135 641 108 614 c 0
81 586 65 549 62 511 c 0
60 488 62 465 70 444 c 0
78 423 92 404 111 391 c 0
139 370 175 365 210 360 c 0
245 356 282 351 311 331 c 0
329 317 343 298 352 277 c 0
360 256 363 233 362 211 c 0
359 172 342 134 314 107 c 0
287 79 249 62 211 61 c 0
178 59 145 68 118 87 c 0
91 105 70 133 60 164 c 0
65 164 l 0
74 134 94 107 120 89 c 0
146 71 178 62 210 64 c 0
248 65 285 82 311 109 c 0
338 136 354 174 357 212 c 0
358 233 355 256 347 276 c 0
339 296 325 315 308 328 c 0
279 348 242 353 208 358 c 0
173 362 136 367 108 388 c 0
88 401 74 421 66 443 c 0
58 464 55 488 58 512 c 0
61 550 78 588 106 616 c 0
133 643 171 661 210 664 c 0
243 666 277 656 305 638 c 0
332 619 354 591 365 560 c 0
Z
364 560 m 0
359 560 l 0
348 590 328 616 301 634 c 0
275 652 242 661 211 660 c 0
172 658 135 640 109 613 c 0
82 586 66 549 63 511 c 0
61 488 63 465 71 444 c 0
80 424 93 405 112 392 c 0
140 371 176 366 211 361 c 0
246 357 283 352 312 332 c 0
330 318 344 299 353 278 c 0
361 257 364 233 363 211 c 0
359 172 343 134 315 106 c 0
287 78 250 61 211 60 c 0
178 58 145 68 118 86 c 0
91 105 70 132 60 164 c 0
64 164 l 0
73 133 93 107 120 89 c 0
146 70 178 61 210 63 c 0
248 64 285 81 312 109 c 0
339 136 355 173 358 212 c 0
359 234 356 256 348 277 c 0
340 297 326 316 309 329 c 0
280 349 243 354 209 359 c 0
174 363 137 368 109 389 c 0
90 402 75 421 67 443 c 0
59 465 56 488 59 512 c 0
62 550 79 587 106 615 c 0
133 643 171 660 210 663 c 0
243 664 276 655 304 637 c 0
331 618 353 591 364 560 c 0
Z
363 559 m 0
358 559 l 0
347 588 327 615 301 633 c 0
275 651 243 660 212 659 c 0
173 657 136 640 109 612 c 0
82 585 66 548 64 510 c 0
62 487 65 465 73 445 c 0
81 424 95 405 113 393 c 0
141 372 177 367 212 362 c 0
247 358 284 353 313 333 c 0
332 319 346 300 354 278 c 0
363 256 366 233 364 210 c 0
360 171 343 133 315 106 c 0
288 79 250 61 212 60 c 0
179 58 145 67 118 86 c 0
91 104 69 131 59 163 c 0
63 163 l 0
73 132 93 105 120 87 c 0
146 69 178 60 211 62 c 0
249 63 286 81 312 108 c 0
339 135 355 172 359 211 c 0
360 233 358 256 350 277 c 0
341 297 328 316 310 330 c 0
281 350 244 355 210 360 c 0
175 364 138 369 110 390 c 0
91 403 77 422 69 443 c 0
60 464 58 488 60 511 c 0
63 549 80 587 107 614 c 0
134 642 172 660 211 662 c 0
243 663 277 654 304 635 c 0
331 617 352 590 363 559 c 0
Z
362 559 m 0
357 559 l 0
346 588 327 615 301 632 c 0
275 650 243 659 212 658 c 0
174 656 137 639 111 611 c 0
84 584 68 547 66 510 c 0
64 488 67 466 75 445 c 0
83 425 96 406 114 394 c 0
142 373 178 367 213 363 c 0
248 358 285 354 314 334 c 0
333 320 348 301 356 279 c 0
365 257 368 233 366 210 c 0
362 170 345 133 317 105 c 0
289 77 251 60 212 59 c 0
178 57 145 66 117 85 c 0
90 104 69 131 58 163 c 0
62 163 l 0
72 132 92 105 119 87 c 0
146 68 178 59 211 61 c 0
249 62 287 79 314 107 c 0
341 135 357 172 361 211 c 0
362 233 360 256 351 277 c 0
343 298 329 317 311 331 c 0
282 351 245 356 211 361 c 0
176 365 139 370 111 391 c 0
92 404 78 423 70 444 c 0
61 465 59 488 61 511 c 0
64 549 80 586 107 614 c 0
135 641 172 659 211 661 c 0
243 662 276 653 303 635 c 0
330 616 351 589 362 559 c 0
Z
Spiro
365 560 v
360 560 v
211 661 c
62 511 c
111 391 c
311 331 c
362 211 c
211 61 c
60 164 v
65 164 v
210 64 c
357 212 c
308 328 c
108 388 c
58 512 c
210 664 c
364 560 v
359 560 v
211 660 c
63 511 c
112 392 c
312 332 c
363 211 c
211 60 c
60 164 v
64 164 v
210 63 c
358 212 c
309 329 c
109 389 c
59 512 c
210 663 c
363 559 v
358 559 v
212 659 c
64 510 c
113 393 c
313 333 c
364 210 c
212 60 c
59 163 v
63 163 v
211 62 c
359 211 c
310 330 c
110 390 c
60 511 c
211 662 c
362 559 v
357 559 v
212 658 c
66 510 c
114 394 c
314 334 c
366 210 c
212 59 c
58 163 v
62 163 v
211 61 c
361 211 c
311 331 c
111 391 c
61 511 c
211 661 c
0 0 z
EndSpiro
EndSplineSet
        Fore
        SplineSet
415 578 m 0
410 578 l 0
396 620 369 657 332 682 c 0
296 707 251 720 207 717 c 0
155 713 105 688 69 651 c 0
34 614 11 564 5 513 c 0
0 480 2 446 14 415 c 0
25 385 47 357 76 342 c 0
107 325 143 322 179 318 c 0
196 316 214 313 231 308 c 0
248 302 264 294 277 282 c 0
295 264 305 238 305 213 c 0
304 187 293 162 275 145 c 0
257 127 232 117 207 117 c 0
186 116 165 122 148 134 c 0
131 145 117 162 110 182 c 0
115 182 l 0
121 163 134 147 150 136 c 0
166 125 186 119 206 120 c 0
230 120 254 130 272 147 c 0
289 165 299 189 300 214 c 0
300 237 290 261 274 279 c 0
261 291 245 300 229 305 c 0
212 311 195 314 177 316 c 0
142 320 106 322 75 339 c 0
44 354 22 382 10 414 c 0
-2 445 -4 480 0 514 c 0
6 566 29 616 66 654 c 0
103 691 153 716 206 720 c 0
251 723 297 710 335 685 c 0
372 659 401 621 415 578 c 0
Z
377 564 m 0
372 564 l 0
361 597 339 628 309 648 c 0
280 668 244 679 209 677 c 0
166 674 125 654 96 624 c 0
66 593 49 552 45 510 c 0
42 484 45 458 54 434 c 0
63 409 79 388 101 374 c 0
130 354 166 350 201 345 c 0
219 343 236 341 253 336 c 0
270 331 287 324 301 314 c 0
316 302 328 285 335 267 c 0
343 249 346 229 345 210 c 0
342 175 327 141 302 117 c 0
277 92 243 78 209 77 c 0
179 75 150 84 125 100 c 0
101 116 82 140 72 168 c 0
77 168 l 0
86 141 104 118 128 102 c 0
151 87 179 79 208 80 c 0
242 81 275 95 299 119 c 0
323 143 338 177 340 211 c 0
341 229 338 248 331 266 c 0
324 283 312 299 298 311 c 0
284 321 267 329 250 333 c 0
233 338 216 341 198 343 c 0
164 347 127 351 98 371 c 0
75 385 58 407 49 432 c 0
39 457 37 484 40 511 c 0
44 553 63 595 93 626 c 0
123 657 164 677 208 680 c 0
244 682 282 671 312 650 c 0
342 630 365 599 377 564 c 0
Z
340 551 m 0
335 551 l 0
326 576 309 599 287 615 c 0
265 631 238 639 211 638 c 0
177 636 145 621 122 597 c 0
99 572 85 540 84 507 c 0
82 488 85 469 92 452 c 0
98 434 109 418 124 407 c 0
137 395 153 388 170 383 c 0
187 378 205 375 222 373 c 0
257 369 294 365 324 347 c 0
346 332 363 310 373 285 c 0
383 261 386 233 384 207 c 0
379 163 359 121 328 90 c 0
297 59 254 40 211 38 c 0
173 35 135 46 103 67 c 0
72 88 47 119 35 155 c 0
40 155 l 0
52 120 75 90 106 69 c 0
136 49 173 39 210 41 c 0
253 43 294 62 325 92 c 0
355 123 374 165 379 208 c 0
381 233 378 260 368 284 c 0
359 308 342 329 321 344 c 0
291 363 254 367 220 371 c 0
202 373 185 376 168 380 c 0
151 385 134 393 121 404 c 0
105 416 94 432 87 450 c 0
80 468 77 488 79 508 c 0
81 541 95 575 119 599 c 0
142 624 175 639 210 641 c 0
238 642 266 634 290 617 c 0
313 601 331 577 340 551 c 0
Z
302 537 m 0
297 537 l 0
291 554 280 570 265 581 c 0
250 592 231 598 213 598 c 0
189 597 166 586 149 568 c 0
133 551 124 527 124 504 c 0
123 480 131 456 147 439 c 0
158 425 174 416 191 410 c 0
207 404 225 401 242 399 c 0
277 395 314 394 346 379 c 0
376 364 400 336 412 304 c 0
425 272 428 237 424 204 c 0
417 151 392 100 355 63 c 0
317 26 266 2 213 -1 c 0
167 -3 120 8 81 34 c 0
43 59 13 97 -2 141 c 0
2 141 l 0
16 98 45 60 83 35 c 0
120 10 166 -1 212 1 c 0
264 4 314 28 351 65 c 0
388 102 412 152 419 205 c 0
423 237 420 271 408 302 c 0
396 333 374 360 345 376 c 0
313 392 276 393 241 397 c 0
223 399 205 402 189 408 c 0
172 414 156 423 144 436 c 0
126 454 118 479 119 505 c 0
119 529 129 553 146 571 c 0
163 589 187 600 212 601 c 0
231 601 251 595 267 584 c 0
283 572 296 555 302 537 c 0
Z
Spiro
415 578 v
410 578 v
207 717 c
5 513 c
76 342 c
277 282 c
305 213 c
207 117 c
110 182 v
115 182 v
206 120 c
300 214 c
274 279 c
75 339 c
0 514 c
206 720 c
377 564 v
372 564 v
209 677 c
45 510 c
101 374 c
301 314 c
345 210 c
209 77 c
72 168 v
77 168 v
208 80 c
340 211 c
298 311 c
98 371 c
40 511 c
208 680 c
340 551 v
335 551 v
211 638 c
84 507 c
124 407 c
324 347 c
384 207 c
211 38 c
35 155 v
40 155 v
210 41 c
379 208 c
321 344 c
121 404 c
79 508 c
210 641 c
302 537 v
297 537 v
213 598 c
124 504 c
147 439 c
346 379 c
424 204 c
213 -1 c
-2 141 v
2 141 v
212 1 c
419 205 c
345 376 c
144 436 c
119 505 c
212 601 c
0 0 z
EndSpiro
EndSplineSet
        EndChar
StartChar: T
Encoding: 84 84 0
Width: 526
InSpiro: 1
        Flags: H
        LayerCount: 2
        Back
        SplineSet
59 658 m 0
59 662 l 0
364 662 l 0
364 658 l 0
59 658 l 0
Z
60 659 m 0
60 663 l 0
364 663 l 0
364 659 l 0
60 659 l 0
Z
60 660 m 0
60 664 l 0
364 664 l 0
364 660 l 0
60 660 l 0
Z
60 662 m 0
60 666 l 0
364 666 l 0
364 662 l 0
60 662 l 0
Z
207 664 m 0
212 664 l 0
212 60 l 0
207 60 l 0
207 664 l 0
Z
208 664 m 0
213 664 l 0
213 60 l 0
208 60 l 0
208 664 l 0
Z
209 664 m 0
214 664 l 0
214 60 l 0
209 60 l 0
209 664 l 0
Z
211 664 m 0
216 664 l 0
216 60 l 0
211 60 l 0
211 664 l 0
Z
Spiro
59 658 v
59 662 v
364 662 v
364 658 v
60 659 v
60 663 v
364 663 v
364 659 v
60 660 v
60 664 v
364 664 v
364 660 v
60 662 v
60 666 v
364 666 v
364 662 v
207 664 v
212 664 v
212 60 v
207 60 v
208 664 v
213 664 v
213 60 v
208 60 v
209 664 v
214 664 v
214 60 v
209 60 v
211 664 v
216 664 v
216 60 v
211 60 v
0 0 z
EndSpiro
EndSplineSet
        Fore
        SplineSet
57 598 m 0
57 602 l 0
362 602 l 0
362 598 l 0
57 598 l 0
Z
57 638 m 0
57 642 l 0
362 642 l 0
362 638 l 0
57 638 l 0
Z
57 678 m 0
57 682 l 0
362 682 l 0
362 678 l 0
57 678 l 0
Z
57 718 m 0
57 722 l 0
362 722 l 0
362 718 l 0
57 718 l 0
Z
150 662 m 0
155 662 l 0
155 58 l 0
150 58 l 0
150 662 l 0
Z
190 662 m 0
195 662 l 0
195 58 l 0
190 58 l 0
190 662 l 0
Z
230 662 m 0
235 662 l 0
235 58 l 0
230 58 l 0
230 662 l 0
Z
270 662 m 0
275 662 l 0
275 58 l 0
270 58 l 0
270 662 l 0
Z
Spiro
57 598 v
57 602 v
362 602 v
362 598 v
57 638 v
57 642 v
362 642 v
362 638 v
57 678 v
57 682 v
362 682 v
362 678 v
57 718 v
57 722 v
362 722 v
362 718 v
150 662 v
155 662 v
155 58 v
150 58 v
190 662 v
195 662 v
195 58 v
190 58 v
230 662 v
235 662 v
235 58 v
230 58 v
270 662 v
275 662 v
275 58 v
270 58 v
0 0 z
EndSpiro
EndSplineSet
        EndChar
StartChar: U
Encoding: 85 85 0
Width: 526
InSpiro: 1
        Flags: H
        LayerCount: 2
        Back
        SplineSet
58 664 m 0
62 664 l 0
62 362 l 0
61 299 60 235 79 176 c 0
89 147 104 118 127 97 c 0
149 75 179 61 211 61 c 0
242 61 272 75 294 97 c 0
317 118 332 147 342 176 c 0
361 235 359 299 360 362 c 0
360 664 l 0
365 664 l 0
365 362 l 0
364 299 366 234 345 174 c 0
335 145 319 116 296 95 c 0
273 73 243 59 212 59 c 0
180 58 149 73 126 94 c 0
103 116 87 144 77 174 c 0
56 234 58 298 58 362 c 0
58 664 l 0
Z
59 664 m 0
63 664 l 0
63 362 l 0
62 299 61 236 80 177 c 0
90 147 105 119 127 98 c 0
149 76 179 62 211 62 c 0
242 62 272 76 294 98 c 0
316 119 331 147 341 177 c 0
360 236 358 299 359 362 c 0
359 664 l 0
364 664 l 0
364 362 l 0
363 299 365 235 345 175 c 0
335 145 319 117 296 96 c 0
273 74 243 60 212 60 c 0
180 59 150 74 127 95 c 0
104 117 88 145 78 175 c 0
57 234 59 299 59 362 c 0
59 664 l 0
Z
60 664 m 0
64 664 l 0
64 362 l 0
63 300 62 237 81 178 c 0
90 148 105 120 128 99 c 0
150 77 180 63 211 63 c 0
241 63 271 77 293 99 c 0
316 120 331 148 340 178 c 0
359 236 357 300 358 362 c 0
358 664 l 0
363 664 l 0
363 362 l 0
363 299 364 234 344 175 c 0
333 145 318 116 295 95 c 0
272 73 241 59 210 60 c 0
178 60 148 74 126 96 c 0
103 118 88 146 78 176 c 0
58 235 60 299 60 362 c 0
60 664 l 0
Z
61 664 m 0
66 664 l 0
66 362 l 0
65 300 64 238 82 179 c 0
92 150 106 122 128 100 c 0
150 79 180 65 211 65 c 0
241 65 271 79 293 100 c 0
315 122 329 150 339 179 c 0
357 238 355 300 356 362 c 0
356 664 l 0
361 664 l 0
361 362 l 0
361 299 362 235 342 176 c 0
332 146 316 118 294 97 c 0
271 76 241 61 210 62 c 0
178 62 148 76 126 98 c 0
104 119 88 147 79 177 c 0
59 236 61 299 61 362 c 0
61 664 l 0
Z
Spiro
58 664 v
62 664 v
62 362 ]
211 61 c
360 362 [
360 664 v
365 664 v
365 362 ]
212 59 c
58 362 [
59 664 v
63 664 v
63 362 ]
211 62 c
359 362 [
359 664 v
364 664 v
364 362 ]
212 60 c
59 362 [
60 664 v
64 664 v
64 362 ]
211 63 c
358 362 [
358 664 v
363 664 v
363 362 ]
210 60 c
60 362 [
61 664 v
66 664 v
66 362 ]
211 65 c
356 362 [
356 664 v
361 664 v
361 362 ]
210 62 c
61 362 [
0 0 z
EndSpiro
EndSplineSet
        Fore
        SplineSet
0 662 m 0
5 662 l 0
5 360 l 0
5 283 5 204 35 133 c 0
50 98 73 65 103 41 c 0
132 17 170 2 209 2 c 0
247 1 285 16 315 40 c 0
345 64 367 97 382 132 c 0
413 203 413 283 414 360 c 0
414 662 l 0
419 662 l 0
419 360 l 0
419 282 418 201 386 130 c 0
371 94 348 61 317 37 c 0
287 13 248 -1 210 -2 c 0
170 -2 132 12 101 37 c 0
71 61 47 94 32 129 c 0
0 201 0 281 0 360 c 0
0 662 l 0
Z
40 662 m 0
45 662 l 0
45 360 l 0
45 293 44 225 66 162 c 0
77 131 94 101 119 79 c 0
143 56 175 42 209 42 c 0
242 41 274 56 299 78 c 0
323 101 341 131 352 162 c 0
374 225 373 293 374 360 c 0
374 662 l 0
379 662 l 0
379 360 l 0
378 292 379 223 356 159 c 0
344 127 326 98 301 75 c 0
276 52 243 38 210 38 c 0
176 37 143 52 117 75 c 0
92 97 74 127 62 159 c 0
39 222 40 292 40 360 c 0
40 662 l 0
Z
80 662 m 0
85 662 l 0
85 360 l 0
85 303 82 246 96 191 c 0
103 164 115 137 134 116 c 0
144 106 155 97 168 91 c 0
180 84 194 81 209 81 c 0
223 80 237 84 249 90 c 0
262 96 274 105 283 116 c 0
302 136 314 163 322 190 c 0
336 245 333 303 334 360 c 0
334 662 l 0
339 662 l 0
339 360 l 0
338 302 341 243 325 188 c 0
317 160 304 133 284 112 c 0
264 91 236 77 208 78 c 0
179 78 152 92 132 113 c 0
112 134 100 161 92 189 c 0
77 244 80 302 80 360 c 0
80 662 l 0
Z
120 662 m 0
125 662 l 0
125 360 l 0
125 313 121 266 127 220 c 0
130 196 136 173 150 154 c 0
157 145 165 136 175 130 c 0
185 124 197 121 209 121 c 0
220 120 232 124 242 130 c 0
252 136 261 144 267 154 c 0
281 173 288 196 291 219 c 0
297 265 293 313 294 360 c 0
294 662 l 0
299 662 l 0
299 360 l 0
298 312 302 263 294 216 c 0
291 193 283 169 269 150 c 0
261 141 252 132 242 127 c 0
231 121 219 117 208 118 c 0
196 118 184 121 174 127 c 0
164 133 155 142 148 151 c 0
134 170 127 194 123 217 c 0
116 264 120 312 120 360 c 0
120 662 l 0
Z
Spiro
0 662 v
5 662 v
5 360 ]
209 2 c
414 360 [
414 662 v
419 662 v
419 360 ]
210 -2 c
0 360 [
40 662 v
45 662 v
45 360 ]
209 42 c
374 360 [
374 662 v
379 662 v
379 360 ]
210 38 c
40 360 [
80 662 v
85 662 v
85 360 ]
209 81 c
334 360 [
334 662 v
339 662 v
339 360 ]
208 78 c
80 360 [
120 662 v
125 662 v
125 360 ]
209 121 c
294 360 [
294 662 v
299 662 v
299 360 ]
208 118 c
120 360 [
0 0 z
EndSpiro
EndSplineSet
        EndChar
StartChar: W
Encoding: 87 87 0
Width: 826
InSpiro: 1
        Flags: H
        LayerCount: 2
        Back
        SplineSet
58 663 m 0
62 663 l 0
211 62 l 0
360 658 l 0
362 658 l 0
511 62 l 0
660 663 l 0
665 663 l 0
514 52 l 0
509 52 l 0
357 662 l 0
357 662 l 0
365 662 l 0
365 662 l 0
214 52 l 0
209 52 l 0
58 663 l 0
Z
59 663 m 0
63 663 l 0
211 68 l 0
361 660 l 0
361 660 l 0
511 68 l 0
659 663 l 0
664 663 l 0
514 58 l 0
509 58 l 0
358 663 l 0
358 663 l 0
364 663 l 0
364 663 l 0
214 58 l 0
209 58 l 0
59 663 l 0
Z
60 664 m 0
64 664 l 0
211 72 l 0
358 664 l 0
358 664 l 0
364 664 l 0
364 664 l 0
511 72 l 0
658 664 l 0
663 664 l 0
514 61 l 0
509 62 l 0
361 661 l 0
361 661 l 0
214 61 l 0
209 62 l 0
60 664 l 0
Z
61 664 m 0
66 664 l 0
211 78 l 0
356 666 l 0
356 666 l 0
366 666 l 0
366 666 l 0
511 78 l 0
656 664 l 0
661 664 l 0
514 68 l 0
509 68 l 0
362 662 l 0
360 662 l 0
214 68 l 0
209 68 l 0
61 664 l 0
Z
Spiro
58 663 v
62 663 v
211 62 v
360 658 v
362 658 v
511 62 v
660 663 v
665 663 v
514 52 v
509 52 v
357 662 v
357 662 v
365 662 v
365 662 v
214 52 v
209 52 v
59 663 v
63 663 v
211 68 v
361 660 v
361 660 v
511 68 v
659 663 v
664 663 v
514 58 v
509 58 v
358 663 v
358 663 v
364 663 v
364 663 v
214 58 v
209 58 v
60 664 v
64 664 v
211 72 v
358 664 v
358 664 v
364 664 v
364 664 v
511 72 v
658 664 v
663 664 v
514 61 v
509 62 v
361 661 v
361 661 v
214 61 v
209 62 v
61 664 v
66 664 v
211 78 v
356 666 v
356 666 v
366 666 v
366 666 v
511 78 v
656 664 v
661 664 v
514 68 v
509 68 v
362 662 v
360 662 v
214 68 v
209 68 v
0 0 z
EndSpiro
EndSplineSet
        Fore
        SplineSet
1 647 m 0
6 647 l 0
209 -178 l 0
414 598 l 0
304 598 l 0
509 -178 l 0
712 647 l 0
717 647 l 0
512 -189 l 0
507 -189 l 0
299 602 l 0
299 602 l 0
419 602 l 0
419 602 l 0
211 -189 l 0
206 -189 l 0
1 647 l 0
Z
40 657 m 0
45 657 l 0
210 -13 l 0
374 638 l 0
344 638 l 0
509 -13 l 0
673 657 l 0
678 657 l 0
512 -24 l 0
507 -24 l 0
339 642 l 0
339 642 l 0
379 642 l 0
379 642 l 0
212 -24 l 0
207 -24 l 0
40 657 l 0
Z
79 666 m 0
84 666 l 0
209 150 l 0
334 682 l 0
334 682 l 0
384 682 l 0
384 682 l 0
510 150 l 0
634 666 l 0
639 666 l 0
512 140 l 0
507 140 l 0
380 678 l 0
338 678 l 0
212 140 l 0
207 140 l 0
79 666 l 0
Z
118 676 m 0
123 676 l 0
209 316 l 0
294 722 l 0
294 722 l 0
424 722 l 0
424 722 l 0
510 316 l 0
595 676 l 0
600 676 l 0
512 305 l 0
507 305 l 0
420 718 l 0
298 718 l 0
212 305 l 0
207 305 l 0
118 676 l 0
Z
Spiro
1 647 v
6 647 v
209 -178 v
414 598 v
304 598 v
509 -178 v
712 647 v
717 647 v
512 -189 v
507 -189 v
299 602 v
299 602 v
419 602 v
419 602 v
211 -189 v
206 -189 v
40 657 v
45 657 v
210 -13 v
374 638 v
344 638 v
509 -13 v
673 657 v
678 657 v
512 -24 v
507 -24 v
339 642 v
339 642 v
379 642 v
379 642 v
212 -24 v
207 -24 v
79 666 v
84 666 v
209 150 v
334 682 v
334 682 v
384 682 v
384 682 v
510 150 v
634 666 v
639 666 v
512 140 v
507 140 v
380 678 v
338 678 v
212 140 v
207 140 v
118 676 v
123 676 v
209 316 v
294 722 v
294 722 v
424 722 v
424 722 v
510 316 v
595 676 v
600 676 v
512 305 v
507 305 v
420 718 v
298 718 v
212 305 v
207 305 v
0 0 z
EndSpiro
EndSplineSet
        EndChar
StartChar: X
Encoding: 88 88 0
Width: 526
InSpiro: 1
        Flags: H
        LayerCount: 2
        Back
        SplineSet
58 663 m 0
62 663 l 0
362 59 l 0
357 59 l 0
58 663 l 0
Z
59 663 m 0
63 663 l 0
363 59 l 0
358 59 l 0
59 663 l 0
Z
60 664 m 0
64 664 l 0
364 60 l 0
359 60 l 0
60 664 l 0
Z
60 664 m 0
65 664 l 0
365 60 l 0
360 60 l 0
60 664 l 0
Z
357 664 m 0
362 664 l 0
62 60 l 0
58 60 l 0
357 664 l 0
Z
358 664 m 0
363 664 l 0
63 60 l 0
59 60 l 0
358 664 l 0
Z
359 663 m 0
364 663 l 0
64 59 l 0
60 59 l 0
359 663 l 0
Z
360 663 m 0
365 663 l 0
65 59 l 0
60 59 l 0
360 663 l 0
Z
Spiro
58 663 v
62 663 v
362 59 v
357 59 v
59 663 v
63 663 v
363 59 v
358 59 v
60 664 v
64 664 v
364 60 v
359 60 v
60 664 v
65 664 v
365 60 v
360 60 v
357 664 v
362 664 v
62 60 v
58 60 v
358 664 v
363 664 v
63 60 v
59 60 v
359 663 v
364 663 v
64 59 v
60 59 v
360 663 v
365 663 v
65 59 v
60 59 v
0 0 z
EndSpiro
EndSplineSet
        Fore
        SplineSet
6 635 m 0
11 635 l 0
311 31 l 0
306 31 l 0
6 635 l 0
Z
41 653 m 0
46 653 l 0
346 49 l 0
341 49 l 0
41 653 l 0
Z
77 670 m 0
82 670 l 0
382 66 l 0
377 66 l 0
77 670 l 0
Z
113 688 m 0
118 688 l 0
418 84 l 0
413 84 l 0
113 688 l 0
Z
306 688 m 0
311 688 l 0
11 84 l 0
6 84 l 0
306 688 l 0
Z
341 670 m 0
346 670 l 0
46 66 l 0
41 66 l 0
341 670 l 0
Z
377 653 m 0
382 653 l 0
82 49 l 0
77 49 l 0
377 653 l 0
Z
413 635 m 0
418 635 l 0
118 31 l 0
113 31 l 0
413 635 l 0
Z
Spiro
6 635 v
11 635 v
311 31 v
306 31 v
41 653 v
46 653 v
346 49 v
341 49 v
77 670 v
82 670 v
382 66 v
377 66 v
113 688 v
118 688 v
418 84 v
413 84 v
306 688 v
311 688 v
11 84 v
6 84 v
341 670 v
346 670 v
46 66 v
41 66 v
377 653 v
382 653 v
82 49 v
77 49 v
413 635 v
418 635 v
118 31 v
113 31 v
0 0 z
EndSpiro
EndSplineSet
        EndChar
StartChar: Y
Encoding: 89 89 0
Width: 526
InSpiro: 1
        Flags: H
        LayerCount: 2
        Back
        SplineSet
58 663 m 0
62 663 l 0
211 361 l 0
360 663 l 0
365 663 l 0
214 355 l 0
209 355 l 0
58 663 l 0
Z
59 663 m 0
63 663 l 0
211 364 l 0
359 663 l 0
364 663 l 0
214 358 l 0
209 358 l 0
59 663 l 0
Z
60 664 m 0
64 664 l 0
211 367 l 0
358 664 l 0
363 664 l 0
214 361 l 0
209 361 l 0
60 664 l 0
Z
60 664 m 0
65 664 l 0
211 370 l 0
357 664 l 0
362 664 l 0
214 364 l 0
209 364 l 0
60 664 l 0
Z
207 364 m 0
212 364 l 0
212 60 l 0
207 60 l 0
207 364 l 0
Z
208 364 m 0
213 364 l 0
213 60 l 0
208 60 l 0
208 364 l 0
Z
209 364 m 0
214 364 l 0
214 60 l 0
209 60 l 0
209 364 l 0
Z
211 364 m 0
216 364 l 0
216 60 l 0
211 60 l 0
211 364 l 0
Z
Spiro
58 663 v
62 663 v
211 361 v
360 663 v
365 663 v
214 355 v
209 355 v
59 663 v
63 663 v
211 364 v
359 663 v
364 663 v
214 358 v
209 358 v
60 664 v
64 664 v
211 367 v
358 664 v
363 664 v
214 361 v
209 361 v
60 664 v
65 664 v
211 370 v
357 664 v
362 664 v
214 364 v
209 364 v
207 364 v
212 364 v
212 60 v
207 60 v
208 364 v
213 364 v
213 60 v
208 60 v
209 364 v
214 364 v
214 60 v
209 60 v
211 364 v
216 364 v
216 60 v
211 60 v
0 0 z
EndSpiro
EndSplineSet
        Fore
        SplineSet
6 635 m 0
11 635 l 0
209 229 l 0
407 635 l 0
412 635 l 0
212 223 l 0
207 223 l 0
6 635 l 0
Z
41 653 m 0
46 653 l 0
209 319 l 0
372 653 l 0
377 653 l 0
212 313 l 0
207 313 l 0
41 653 l 0
Z
77 670 m 0
82 670 l 0
209 408 l 0
336 670 l 0
341 670 l 0
212 402 l 0
207 402 l 0
77 670 l 0
Z
113 688 m 0
118 688 l 0
209 498 l 0
300 688 l 0
305 688 l 0
212 492 l 0
207 492 l 0
113 688 l 0
Z
150 362 m 0
155 362 l 0
155 58 l 0
150 58 l 0
150 362 l 0
Z
190 362 m 0
195 362 l 0
195 58 l 0
190 58 l 0
190 362 l 0
Z
230 362 m 0
235 362 l 0
235 58 l 0
230 58 l 0
230 362 l 0
Z
270 362 m 0
275 362 l 0
275 58 l 0
270 58 l 0
270 362 l 0
Z
Spiro
6 635 v
11 635 v
209 229 v
407 635 v
412 635 v
212 223 v
207 223 v
41 653 v
46 653 v
209 319 v
372 653 v
377 653 v
212 313 v
207 313 v
77 670 v
82 670 v
209 408 v
336 670 v
341 670 v
212 402 v
207 402 v
113 688 v
118 688 v
209 498 v
300 688 v
305 688 v
212 492 v
207 492 v
150 362 v
155 362 v
155 58 v
150 58 v
190 362 v
195 362 v
195 58 v
190 58 v
230 362 v
235 362 v
235 58 v
230 58 v
270 362 v
275 362 v
275 58 v
270 58 v
0 0 z
EndSpiro
EndSplineSet
        EndChar
StartChar: Z
Encoding: 90 90 0
Width: 526
InSpiro: 1
        Flags: H
        LayerCount: 2
        Back
        SplineSet
59 658 m 0
59 662 l 0
360 660 l 0
362 662 l 0
362 662 l 0
62 62 l 0
364 62 l 0
364 58 l 0
57 58 l 0
57 58 l 0
359 660 l 0
360 660 l 0
59 658 l 0
Z
60 659 m 0
60 663 l 0
361 661 l 0
363 663 l 0
363 663 l 0
64 63 l 0
364 63 l 0
364 59 l 0
59 59 l 0
59 59 l 0
360 661 l 0
361 661 l 0
60 659 l 0
Z
60 660 m 0
60 664 l 0
362 662 l 0
364 664 l 0
364 664 l 0
66 64 l 0
364 64 l 0
364 60 l 0
60 60 l 0
60 60 l 0
361 662 l 0
362 662 l 0
60 660 l 0
Z
60 662 m 0
60 666 l 0
364 664 l 0
366 666 l 0
366 666 l 0
68 66 l 0
364 66 l 0
364 61 l 0
62 61 l 0
62 62 l 0
363 664 l 0
364 664 l 0
60 662 l 0
Z
Spiro
59 658 v
59 662 v
360 660 v
362 662 v
362 662 v
62 62 v
364 62 v
364 58 v
57 58 v
57 58 v
359 660 v
360 660 v
60 659 v
60 663 v
361 661 v
363 663 v
363 663 v
64 63 v
364 63 v
364 59 v
59 59 v
59 59 v
360 661 v
361 661 v
60 660 v
60 664 v
362 662 v
364 664 v
364 664 v
66 64 v
364 64 v
364 60 v
60 60 v
60 60 v
361 662 v
362 662 v
60 662 v
60 666 v
364 664 v
366 666 v
366 666 v
68 66 v
364 66 v
364 61 v
62 61 v
62 62 v
363 664 v
364 664 v
0 0 z
EndSpiro
EndSplineSet
        Fore
        SplineSet
57 598 m 0
57 602 l 0
302 600 l 0
304 602 l 0
304 602 l 0
-30 2 l 0
362 2 l 0
362 -2 l 0
-36 -2 l 0
-36 -2 l 0
301 600 l 0
302 600 l 0
57 598 l 0
Z
57 638 m 0
57 642 l 0
342 640 l 0
344 642 l 0
344 642 l 0
33 42 l 0
362 42 l 0
362 38 l 0
27 38 l 0
27 38 l 0
341 640 l 0
342 640 l 0
57 638 l 0
Z
57 678 m 0
57 682 l 0
382 680 l 0
384 682 l 0
384 682 l 0
97 82 l 0
362 82 l 0
362 78 l 0
91 78 l 0
91 78 l 0
381 680 l 0
382 680 l 0
57 678 l 0
Z
57 718 m 0
57 722 l 0
422 720 l 0
424 722 l 0
424 722 l 0
162 122 l 0
362 122 l 0
362 118 l 0
156 118 l 0
156 118 l 0
421 720 l 0
422 720 l 0
57 718 l 0
Z
Spiro
57 598 v
57 602 v
302 600 v
304 602 v
304 602 v
-30 2 v
362 2 v
362 -2 v
-36 -2 v
-36 -2 v
301 600 v
302 600 v
57 638 v
57 642 v
342 640 v
344 642 v
344 642 v
33 42 v
362 42 v
362 38 v
27 38 v
27 38 v
341 640 v
342 640 v
57 678 v
57 682 v
382 680 v
384 682 v
384 682 v
97 82 v
362 82 v
362 78 v
91 78 v
91 78 v
381 680 v
382 680 v
57 718 v
57 722 v
422 720 v
424 722 v
424 722 v
162 122 v
362 122 v
362 118 v
156 118 v
156 118 v
421 720 v
422 720 v
0 0 z
EndSpiro
EndSplineSet
        EndChar
StartChar: f
Encoding: 102 102 0
Width: 376
InSpiro: 1
        Flags: H
        LayerCount: 2
        Back
        SplineSet
213 665 m 0
213 661 l 0
187 657 162 647 141 631 c 0
120 616 102 596 90 573 c 0
77 550 69 525 66 499 c 0
62 474 61 448 62 422 c 0
62 60 l 0
58 60 l 0
58 422 l 0
58 448 58 475 62 501 c 0
66 527 74 553 86 576 c 0
99 600 117 620 139 635 c 0
161 651 186 661 213 665 c 0
Z
213 664 m 0
213 660 l 0
187 656 162 645 141 630 c 0
120 615 103 595 90 572 c 0
78 550 70 525 67 499 c 0
63 473 62 447 63 422 c 0
63 60 l 0
59 60 l 0
59 422 l 0
59 448 59 474 63 501 c 0
67 527 74 553 87 576 c 0
100 599 118 619 139 634 c 0
161 650 186 660 213 664 c 0
Z
214 663 m 0
214 659 l 0
188 655 163 645 142 630 c 0
121 615 104 595 91 572 c 0
79 549 71 524 68 499 c 0
64 473 63 447 64 422 c 0
64 60 l 0
60 60 l 0
60 422 l 0
60 448 60 474 64 500 c 0
68 527 75 552 88 575 c 0
101 598 119 619 141 634 c 0
162 649 187 659 214 663 c 0
Z
214 662 m 0
214 658 l 0
188 653 164 643 143 628 c 0
122 613 105 593 93 571 c 0
81 548 73 524 69 498 c 0
66 473 65 447 66 422 c 0
66 60 l 0
61 60 l 0
61 422 l 0
61 448 61 474 65 500 c 0
69 526 76 552 89 574 c 0
102 597 120 618 141 633 c 0
162 648 188 658 214 662 c 0
Z
59 418 m 0
59 422 l 0
214 422 l 0
214 418 l 0
59 418 l 0
Z
60 419 m 0
60 423 l 0
214 423 l 0
214 419 l 0
60 419 l 0
Z
60 420 m 0
60 424 l 0
214 424 l 0
214 420 l 0
60 420 l 0
Z
60 422 m 0
60 426 l 0
214 426 l 0
214 422 l 0
60 422 l 0
Z
Spiro
213 665 v
213 661 v
62 422 [
62 60 v
58 60 v
58 422 ]
213 664 v
213 660 v
63 422 [
63 60 v
59 60 v
59 422 ]
214 663 v
214 659 v
64 422 [
64 60 v
60 60 v
60 422 ]
214 662 v
214 658 v
66 422 [
66 60 v
61 60 v
61 422 ]
59 418 v
59 422 v
214 422 v
214 418 v
60 419 v
60 423 v
214 423 v
214 419 v
60 420 v
60 424 v
214 424 v
214 420 v
60 422 v
60 426 v
214 426 v
214 422 v
0 0 z
EndSpiro
EndSplineSet
        Fore
        SplineSet
202 721 m 0
202 717 l 0
169 713 136 702 109 684 c 0
81 666 58 641 42 612 c 0
25 583 15 551 10 519 c 0
5 486 4 453 5 420 c 0
5 58 l 0
0 58 l 0
0 420 l 0
0 453 0 487 5 520 c 0
10 554 21 586 38 616 c 0
55 645 78 670 107 688 c 0
135 707 168 718 202 721 c 0
Z
209 681 m 0
209 677 l 0
181 673 154 662 131 646 c 0
108 630 89 608 75 583 c 0
61 559 53 531 49 504 c 0
45 476 44 448 45 420 c 0
45 58 l 0
40 58 l 0
40 420 l 0
40 448 40 477 44 506 c 0
48 534 57 562 71 587 c 0
85 612 105 634 129 650 c 0
152 667 180 677 209 681 c 0
Z
215 642 m 0
215 638 l 0
169 628 130 596 108 555 c 0
98 534 91 512 88 489 c 0
85 466 84 443 85 420 c 0
85 58 l 0
80 58 l 0
80 420 l 0
80 443 80 467 83 491 c 0
87 514 93 537 104 558 c 0
116 579 131 598 150 613 c 0
169 627 191 637 215 642 c 0
Z
222 602 m 0
222 598 l 0
187 586 158 560 142 527 c 0
126 494 124 456 125 420 c 0
125 58 l 0
120 58 l 0
120 420 l 0
120 457 121 496 138 530 c 0
155 564 185 591 222 602 c 0
Z
57 358 m 0
57 362 l 0
212 362 l 0
212 358 l 0
57 358 l 0
Z
57 398 m 0
57 402 l 0
212 402 l 0
212 398 l 0
57 398 l 0
Z
57 438 m 0
57 442 l 0
212 442 l 0
212 438 l 0
57 438 l 0
Z
57 478 m 0
57 482 l 0
212 482 l 0
212 478 l 0
57 478 l 0
Z
Spiro
202 721 v
202 717 v
5 420 [
5 58 v
0 58 v
0 420 ]
209 681 v
209 677 v
45 420 [
45 58 v
40 58 v
40 420 ]
215 642 v
215 638 v
85 420 [
85 58 v
80 58 v
80 420 ]
222 602 v
222 598 v
125 420 [
125 58 v
120 58 v
120 420 ]
57 358 v
57 362 v
212 362 v
212 358 v
57 398 v
57 402 v
212 402 v
212 398 v
57 438 v
57 442 v
212 442 v
212 438 v
57 478 v
57 482 v
212 482 v
212 478 v
0 0 z
EndSpiro
EndSplineSet
        EndChar
StartChar: g
Encoding: 103 103 0
Width: 526
InSpiro: 1
        Flags: H
        LayerCount: 2
        Back
        SplineSet
357 424 m 0
362 424 l 0
362 62 l 0
361 0 361 -61 339 -118 c 0
329 -147 313 -174 291 -195 c 0
269 -216 241 -232 211 -237 c 0
177 -242 142 -234 115 -215 c 0
87 -197 67 -167 60 -135 c 0
65 -135 l 0
71 -166 91 -195 117 -213 c 0
144 -231 178 -239 210 -234 c 0
239 -229 267 -213 288 -192 c 0
309 -171 325 -145 335 -117 c 0
356 -60 356 0 357 61 c 0
357 424 l 0
Z
358 424 m 0
363 424 l 0
363 62 l 0
362 0 362 -62 340 -119 c 0
329 -148 313 -175 291 -196 c 0
269 -217 241 -233 211 -238 c 0
177 -243 142 -235 115 -216 c 0
87 -197 67 -167 60 -135 c 0
64 -135 l 0
70 -166 90 -195 117 -214 c 0
143 -232 177 -240 210 -235 c 0
239 -230 267 -214 288 -193 c 0
310 -172 326 -146 336 -117 c 0
357 -61 357 0 358 61 c 0
358 424 l 0
Z
359 424 m 0
364 424 l 0
364 62 l 0
363 0 363 -62 341 -119 c 0
330 -148 314 -175 292 -197 c 0
270 -218 242 -233 212 -239 c 0
178 -244 143 -236 115 -217 c 0
86 -198 66 -169 59 -136 c 0
63 -136 l 0
70 -168 89 -197 117 -215 c 0
144 -233 178 -241 211 -236 c 0
240 -231 268 -215 289 -194 c 0
311 -173 327 -146 337 -118 c 0
358 -61 358 0 359 61 c 0
359 424 l 0
Z
361 424 m 0
366 424 l 0
366 62 l 0
365 0 365 -63 343 -120 c 0
332 -149 315 -176 293 -198 c 0
270 -219 242 -235 212 -240 c 0
178 -245 142 -237 114 -218 c 0
86 -199 65 -169 58 -136 c 0
62 -136 l 0
69 -168 89 -197 116 -216 c 0
143 -234 178 -242 211 -237 c 0
241 -232 268 -216 290 -195 c 0
312 -174 328 -147 339 -119 c 0
360 -62 360 0 361 61 c 0
361 424 l 0
Z
365 320 m 0
360 320 l 0
350 351 330 378 303 396 c 0
276 415 243 423 211 421 c 0
168 417 128 394 101 360 c 0
75 326 62 283 62 241 c 0
61 198 75 155 101 121 c 0
128 87 168 64 211 61 c 0
243 58 276 67 303 85 c 0
330 103 350 131 360 163 c 0
365 163 l 0
355 130 333 102 305 83 c 0
277 64 243 56 210 59 c 0
166 62 126 86 99 119 c 0
72 153 58 196 58 240 c 0
57 283 71 327 98 362 c 0
125 396 166 420 210 424 c 0
243 426 277 418 305 399 c 0
333 380 355 352 365 320 c 0
Z
364 320 m 0
359 320 l 0
349 350 329 378 302 396 c 0
275 414 243 422 211 420 c 0
168 416 128 393 102 359 c 0
76 326 63 283 63 241 c 0
62 198 76 155 102 122 c 0
128 88 168 65 211 62 c 0
243 59 276 68 302 86 c 0
329 104 349 132 359 163 c 0
364 163 l 0
354 131 332 102 305 84 c 0
277 65 243 57 210 60 c 0
167 63 127 86 100 120 c 0
73 153 59 197 59 240 c 0
58 283 72 327 99 361 c 0
126 395 166 419 210 423 c 0
243 425 277 417 305 398 c 0
332 380 354 351 364 320 c 0
Z
363 319 m 0
358 319 l 0
348 349 328 376 302 394 c 0
276 412 243 421 212 419 c 0
169 415 129 392 103 359 c 0
77 326 64 283 64 241 c 0
63 198 77 155 103 122 c 0
129 89 169 66 212 63 c 0
243 60 276 69 302 87 c 0
329 105 349 133 358 164 c 0
363 164 l 0
353 132 332 103 305 85 c 0
278 66 244 57 211 60 c 0
167 63 127 86 100 120 c 0
73 154 59 198 60 242 c 0
60 284 74 328 100 361 c 0
127 395 168 418 211 422 c 0
243 424 277 415 305 397 c 0
332 378 353 350 363 319 c 0
Z
362 319 m 0
357 319 l 0
347 349 328 376 302 394 c 0
275 412 243 420 212 418 c 0
170 414 130 391 104 358 c 0
78 325 66 283 66 241 c 0
65 198 78 156 104 123 c 0
130 90 170 67 212 64 c 0
243 61 276 70 302 88 c 0
328 106 348 133 357 164 c 0
362 164 l 0
352 132 331 104 304 85 c 0
277 67 243 58 211 61 c 0
168 64 127 87 100 121 c 0
74 155 60 198 61 242 c 0
61 284 74 327 101 361 c 0
128 394 168 417 211 421 c 0
243 423 277 414 304 396 c 0
331 378 352 350 362 319 c 0
Z
Spiro
357 424 v
362 424 v
362 62 ]
211 -237 c
60 -135 v
65 -135 v
210 -234 c
357 61 [
358 424 v
363 424 v
363 62 ]
211 -238 c
60 -135 v
64 -135 v
210 -235 c
358 61 [
359 424 v
364 424 v
364 62 ]
212 -239 c
59 -136 v
63 -136 v
211 -236 c
359 61 [
361 424 v
366 424 v
366 62 ]
212 -240 c
58 -136 v
62 -136 v
211 -237 c
361 61 [
365 320 v
360 320 v
211 421 c
62 241 c
211 61 c
360 163 v
365 163 v
210 59 c
58 240 c
210 424 c
364 320 v
359 320 v
211 420 c
63 241 c
211 62 c
359 163 v
364 163 v
210 60 c
59 240 c
210 423 c
363 319 v
358 319 v
212 419 c
64 241 c
212 63 c
358 164 v
363 164 v
211 60 c
60 242 c
211 422 c
362 319 v
357 319 v
212 418 c
66 241 c
212 64 c
357 164 v
362 164 v
211 61 c
61 242 c
211 421 c
0 0 z
EndSpiro
EndSplineSet
        Fore
        SplineSet
300 422 m 0
305 422 l 0
305 60 l 0
304 12 306 -36 293 -82 c 0
287 -106 277 -128 261 -146 c 0
245 -164 223 -178 200 -181 c 0
181 -183 161 -178 145 -168 c 0
129 -158 117 -142 112 -124 c 0
117 -124 l 0
122 -140 133 -155 148 -165 c 0
163 -175 181 -179 199 -178 c 0
222 -175 243 -162 259 -144 c 0
274 -126 284 -103 289 -80 c 0
301 -35 299 12 300 60 c 0
300 422 l 0
Z
340 422 m 0
345 422 l 0
345 60 l 0
344 2 344 -55 325 -109 c 0
316 -135 301 -161 281 -181 c 0
261 -201 235 -216 207 -221 c 0
178 -225 147 -219 122 -202 c 0
98 -186 80 -161 73 -133 c 0
78 -133 l 0
84 -160 102 -184 125 -200 c 0
148 -215 178 -222 206 -218 c 0
233 -213 259 -198 279 -178 c 0
298 -158 312 -133 321 -106 c 0
340 -53 339 3 340 60 c 0
340 422 l 0
Z
380 422 m 0
385 422 l 0
385 60 l 0
384 -6 383 -74 357 -135 c 0
344 -166 325 -194 301 -216 c 0
276 -238 245 -254 213 -260 c 0
174 -266 133 -257 100 -235 c 0
67 -214 43 -180 34 -142 c 0
39 -142 l 0
47 -179 71 -212 102 -233 c 0
134 -254 174 -263 212 -257 c 0
244 -251 274 -235 298 -213 c 0
323 -191 341 -163 353 -133 c 0
378 -72 379 -5 380 60 c 0
380 422 l 0
Z
420 422 m 0
425 422 l 0
425 60 l 0
424 -15 422 -94 390 -163 c 0
374 -197 351 -228 322 -253 c 0
292 -277 257 -294 220 -300 c 0
171 -307 120 -296 79 -269 c 0
38 -241 8 -198 -3 -151 c 0
1 -151 l 0
12 -197 41 -240 81 -266 c 0
121 -293 171 -304 219 -297 c 0
256 -291 291 -274 319 -250 c 0
348 -225 370 -194 386 -160 c 0
417 -92 420 -15 420 60 c 0
420 422 l 0
Z
416 336 m 0
411 336 l 0
398 379 370 417 333 443 c 0
296 468 249 480 205 477 c 0
148 472 94 441 59 397 c 0
23 353 5 295 5 239 c 0
4 182 23 124 59 80 c 0
94 36 148 5 205 1 c 0
250 -2 296 9 333 35 c 0
370 60 398 99 411 143 c 0
416 143 l 0
402 98 373 59 335 33 c 0
297 7 250 -5 204 -1 c 0
146 3 92 34 56 78 c 0
19 122 0 180 0 238 c 0
0 295 18 354 55 399 c 0
91 444 146 474 204 480 c 0
250 483 297 471 335 445 c 0
373 419 402 380 416 336 c 0
Z
378 324 m 0
373 324 l 0
362 358 340 389 310 410 c 0
280 430 243 440 208 437 c 0
161 432 117 407 88 370 c 0
59 333 45 285 45 239 c 0
44 192 59 144 88 107 c 0
117 70 161 45 208 41 c 0
244 37 281 47 311 68 c 0
340 88 363 120 373 155 c 0
378 155 l 0
367 119 344 86 313 65 c 0
282 44 244 34 207 38 c 0
159 42 114 67 85 105 c 0
55 142 40 190 40 238 c 0
39 285 54 334 84 372 c 0
114 409 159 435 207 440 c 0
244 443 282 433 313 412 c 0
344 391 367 359 378 324 c 0
Z
340 311 m 0
335 311 l 0
327 337 311 361 288 376 c 0
266 392 238 400 211 398 c 0
173 394 139 373 116 343 c 0
94 314 84 276 84 239 c 0
83 201 94 163 116 134 c 0
139 104 173 83 211 80 c 0
238 77 266 85 289 101 c 0
311 117 328 141 335 168 c 0
340 168 l 0
332 140 315 115 291 98 c 0
267 82 238 74 210 77 c 0
171 80 136 101 113 132 c 0
89 162 78 201 79 240 c 0
79 277 90 316 113 346 c 0
136 376 172 397 210 401 c 0
238 403 267 395 291 379 c 0
314 363 332 338 340 311 c 0
Z
302 299 m 0
297 299 l 0
292 316 281 332 266 343 c 0
251 353 233 359 215 358 c 0
201 357 187 352 176 345 c 0
164 338 154 328 146 317 c 0
130 294 124 266 124 239 c 0
123 211 130 183 146 160 c 0
154 149 164 139 176 132 c 0
187 125 201 120 215 120 c 0
233 118 252 124 266 135 c 0
281 145 292 162 297 180 c 0
302 180 l 0
297 161 285 144 269 132 c 0
253 121 233 115 214 117 c 0
199 118 185 122 173 130 c 0
161 137 150 147 142 159 c 0
126 182 118 211 119 240 c 0
119 268 126 296 143 319 c 0
159 342 185 358 214 361 c 0
233 362 253 356 269 345 c 0
284 334 296 317 302 299 c 0
Z
Spiro
300 422 v
305 422 v
305 60 ]
200 -181 c
112 -124 v
117 -124 v
199 -178 c
300 60 [
340 422 v
345 422 v
345 60 ]
207 -221 c
73 -133 v
78 -133 v
206 -218 c
340 60 [
380 422 v
385 422 v
385 60 ]
213 -260 c
34 -142 v
39 -142 v
212 -257 c
380 60 [
420 422 v
425 422 v
425 60 ]
220 -300 c
-3 -151 v
1 -151 v
219 -297 c
420 60 [
416 336 v
411 336 v
205 477 c
5 239 c
205 1 c
411 143 v
416 143 v
204 -1 c
0 238 c
204 480 c
378 324 v
373 324 v
208 437 c
45 239 c
208 41 c
373 155 v
378 155 v
207 38 c
40 238 c
207 440 c
340 311 v
335 311 v
211 398 c
84 239 c
211 80 c
335 168 v
340 168 v
210 77 c
79 240 c
210 401 c
302 299 v
297 299 v
215 358 c
124 239 c
215 120 c
297 180 v
302 180 v
214 117 c
119 240 c
214 361 c
0 0 z
EndSpiro
EndSplineSet
        EndChar
StartChar: j
Encoding: 106 106 0
Width: 466
InSpiro: 1
        Flags: H
        LayerCount: 2
        Back
        SplineSet
297 424 m 0
302 424 l 0
302 62 l 0
301 6 304 -48 295 -102 c 0
290 -129 283 -156 269 -180 c 0
256 -204 236 -225 211 -237 c 0
194 -244 176 -247 158 -246 c 0
140 -244 122 -238 107 -228 c 0
92 -218 79 -204 71 -188 c 0
63 -172 59 -154 60 -136 c 0
65 -136 l 0
64 -153 67 -171 75 -186 c 0
83 -202 95 -215 110 -225 c 0
124 -235 141 -241 158 -242 c 0
176 -244 194 -241 210 -234 c 0
234 -222 254 -201 267 -178 c 0
280 -154 287 -127 291 -101 c 0
299 -47 296 6 297 61 c 0
297 424 l 0
Z
298 424 m 0
303 424 l 0
303 62 l 0
302 6 305 -48 296 -103 c 0
291 -130 283 -157 270 -181 c 0
256 -205 236 -226 211 -238 c 0
194 -245 175 -248 157 -246 c 0
139 -245 122 -239 107 -229 c 0
92 -218 79 -204 71 -188 c 0
63 -172 59 -154 60 -136 c 0
64 -136 l 0
63 -153 66 -171 74 -187 c 0
82 -202 94 -216 109 -226 c 0
123 -236 140 -242 158 -243 c 0
176 -245 193 -242 210 -235 c 0
234 -223 254 -202 267 -179 c 0
280 -155 288 -128 292 -101 c 0
300 -48 297 6 298 61 c 0
298 424 l 0
Z
299 424 m 0
304 424 l 0
304 62 l 0
303 6 306 -49 297 -103 c 0
292 -131 284 -158 271 -182 c 0
257 -206 237 -227 212 -239 c 0
195 -246 176 -249 157 -248 c 0
139 -246 121 -240 106 -230 c 0
90 -219 78 -205 70 -188 c 0
61 -172 58 -153 59 -135 c 0
63 -135 l 0
61 -152 65 -171 73 -187 c 0
81 -203 93 -217 108 -227 c 0
123 -237 140 -243 158 -245 c 0
176 -246 194 -243 211 -236 c 0
235 -224 255 -203 268 -179 c 0
281 -155 288 -129 293 -102 c 0
301 -48 298 6 299 61 c 0
299 424 l 0
Z
301 424 m 0
306 424 l 0
306 62 l 0
305 6 308 -49 298 -104 c 0
293 -132 285 -159 271 -183 c 0
257 -207 237 -228 212 -240 c 0
195 -247 176 -250 157 -249 c 0
139 -247 121 -240 105 -230 c 0
90 -220 77 -205 69 -188 c 0
61 -172 57 -153 58 -135 c 0
62 -135 l 0
61 -153 64 -171 72 -187 c 0
80 -203 92 -217 107 -227 c 0
122 -238 140 -244 158 -246 c 0
176 -247 194 -244 211 -237 c 0
235 -225 255 -204 269 -180 c 0
282 -157 290 -130 294 -103 c 0
303 -49 300 6 301 61 c 0
301 424 l 0
Z
90 0 m 0
90 30 120 60 150 60 c 0
180 60 210 30 210 0 c 0
210 -30 180 -60 150 -60 c 0
120 -60 90 -30 90 0 c 0
Z
297 542 m 0
297 542 297 543 297 543 c 0
297 543 298 544 298 544 c 0
299 545 300 545 302 545 c 0
302 544 303 544 304 544 c 0
305 543 305 542 306 542 c 0
306 541 306 540 305 540 c 0
305 539 305 539 304 538 c 0
303 538 302 537 301 538 c 0
299 538 298 538 298 539 c 0
297 539 297 539 297 540 c 0
297 540 296 541 297 542 c 0
Z
302 542 m 0
301 542 301 542 301 542 c 0
300 542 300 542 300 542 c 0
300 542 300 542 299 542 c 0
299 541 299 541 299 541 c 0
299 541 299 541 299 541 c 0
299 541 299 541 300 541 c 0
300 540 300 540 300 540 c 0
300 540 300 541 301 541 c 0
301 540 301 540 301 540 c 0
301 540 301 540 302 540 c 0
302 540 302 540 302 540 c 0
302 540 302 540 302 540 c 0
302 540 302 540 303 541 c 0
303 541 303 541 302 541 c 0
302 541 302 541 302 541 c 0
302 541 302 541 302 542 c 0
Z
298 542 m 0
298 542 298 542 298 543 c 0
298 543 299 543 299 543 c 0
300 544 301 544 302 544 c 0
302 543 303 543 303 543 c 0
304 543 304 542 305 542 c 0
305 541 305 541 304 540 c 0
304 540 304 539 303 539 c 0
303 538 301 538 301 539 c 0
300 539 299 539 298 539 c 0
298 540 298 540 298 540 c 0
297 541 297 541 298 542 c 0
Z
Spiro
297 424 v
302 424 v
302 62 ]
211 -237 c
60 -136 v
65 -136 v
210 -234 c
297 61 [
298 424 v
303 424 v
303 62 ]
211 -238 c
60 -136 v
64 -136 v
210 -235 c
298 61 [
299 424 v
304 424 v
304 62 ]
212 -239 c
59 -135 v
63 -135 v
211 -236 c
299 61 [
301 424 v
306 424 v
306 62 ]
212 -240 c
58 -135 v
62 -135 v
211 -237 c
301 61 [
302 541 c
301 541 c
301 542 c
302 541 c
297 542 c
302 545 c
306 542 c
301 538 c
302 542 c
300 541 c
301 541 c
303 541 c
298 542 c
302 544 c
305 542 c
301 539 c
0 0 z
EndSpiro
EndSplineSet
        Fore
        SplineSet
240 422 m 0
245 422 l 0
245 60 l 0
244 14 249 -30 248 -75 c 0
247 -98 244 -121 234 -141 c 0
230 -152 223 -161 215 -169 c 0
207 -177 196 -183 186 -186 c 0
170 -189 152 -187 139 -178 c 0
125 -169 115 -154 113 -139 c 0
118 -139 l 0
120 -153 129 -167 142 -175 c 0
154 -183 170 -186 185 -183 c 0
195 -180 205 -174 214 -167 c 0
222 -159 228 -149 233 -139 c 0
242 -119 244 -96 244 -74 c 0
244 -29 239 15 240 60 c 0
240 422 l 0
Z
280 422 m 0
285 422 l 0
285 60 l 0
284 8 287 -44 280 -95 c 0
276 -121 270 -146 257 -169 c 0
244 -192 225 -212 202 -222 c 0
174 -233 140 -230 115 -214 c 0
90 -197 73 -168 73 -138 c 0
78 -138 l 0
78 -166 93 -195 118 -211 c 0
142 -227 174 -230 201 -219 c 0
224 -209 243 -189 255 -166 c 0
267 -144 273 -118 276 -93 c 0
282 -42 279 8 280 60 c 0
280 422 l 0
Z
320 422 m 0
325 422 l 0
325 60 l 0
324 0 326 -58 314 -116 c 0
308 -145 298 -174 283 -199 c 0
267 -224 245 -246 219 -259 c 0
198 -268 176 -272 154 -271 c 0
132 -269 110 -262 92 -250 c 0
73 -238 58 -220 48 -201 c 0
38 -181 33 -159 34 -137 c 0
39 -137 l 0
37 -158 42 -180 52 -199 c 0
61 -218 76 -235 94 -247 c 0
112 -259 133 -266 155 -268 c 0
176 -269 198 -265 218 -256 c 0
244 -243 265 -221 280 -196 c 0
295 -171 304 -143 310 -114 c 0
321 -57 319 1 320 60 c 0
320 422 l 0
Z
360 422 m 0
365 422 l 0
365 60 l 0
364 -6 365 -73 349 -138 c 0
340 -170 328 -201 309 -229 c 0
290 -256 265 -280 236 -295 c 0
210 -307 180 -313 151 -311 c 0
122 -310 94 -300 70 -284 c 0
46 -268 26 -246 13 -220 c 0
0 -194 -5 -164 -4 -136 c 0
0 -136 l 0
-1 -164 3 -193 16 -218 c 0
28 -244 48 -266 72 -282 c 0
95 -298 123 -307 152 -309 c 0
180 -310 209 -304 235 -292 c 0
264 -277 288 -253 306 -226 c 0
324 -198 337 -167 344 -135 c 0
360 -72 359 -5 360 60 c 0
360 422 l 0
Z
300 541 m 0
315 541 329 547 340 558 c 0
350 569 356 583 357 599 c 0
357 614 351 629 340 640 c 0
329 651 314 658 299 658 c 0
283 657 268 651 258 640 c 0
247 629 241 614 242 599 c 0
242 583 248 568 259 557 c 0
269 547 284 540 300 541 c 0
Z
237 600 m 0
237 616 244 632 255 643 c 0
267 654 283 661 300 661 c 0
316 660 332 654 343 643 c 0
355 631 361 616 362 600 c 0
362 583 355 567 343 555 c 0
331 544 315 537 299 538 c 0
282 538 266 544 255 556 c 0
243 567 236 583 237 600 c 0
Z
300 571 m 0
307 571 314 574 319 579 c 0
324 584 326 591 327 599 c 0
327 606 324 614 319 619 c 0
313 624 306 628 299 628 c 0
291 627 284 624 279 619 c 0
274 613 271 606 272 599 c 0
272 591 275 584 280 579 c 0
285 573 292 570 300 571 c 0
Z
267 600 m 0
267 608 270 616 277 622 c 0
283 628 291 631 300 631 c 0
308 630 316 627 322 621 c 0
328 616 331 608 332 600 c 0
332 591 328 582 322 577 c 0
316 571 307 567 299 568 c 0
290 568 282 571 276 577 c 0
270 583 266 591 267 600 c 0
Z
Spiro
240 422 v
245 422 v
245 60 ]
186 -186 c
113 -139 v
118 -139 v
185 -183 c
240 60 [
280 422 v
285 422 v
285 60 ]
202 -222 c
73 -138 v
78 -138 v
201 -219 c
280 60 [
320 422 v
325 422 v
325 60 ]
219 -259 c
34 -137 v
39 -137 v
218 -256 c
320 60 [
360 422 v
365 422 v
365 60 ]
236 -295 c
-4 -136 v
0 -136 v
235 -292 c
360 60 [
300 541 c
357 599 c
299 658 c
242 599 c
237 600 c
300 661 c
362 600 c
299 538 c
300 571 c
327 599 c
299 628 c
272 599 c
267 600 c
300 631 c
332 600 c
299 568 c
0 0 z
EndSpiro
EndSplineSet
        EndChar
StartChar: l
Encoding: 108 108 0
Width: 376
InSpiro: 1
        Flags: H
        LayerCount: 2
        Back
        SplineSet
58 664 m 0
62 664 l 0
62 242 l 0
62 219 62 195 66 173 c 0
70 150 79 128 92 110 c 0
106 91 124 76 146 67 c 0
167 59 191 57 214 62 c 0
214 58 l 0
190 53 166 55 144 63 c 0
122 72 103 87 89 106 c 0
75 125 67 148 62 171 c 0
58 194 57 218 58 242 c 0
58 664 l 0
Z
59 664 m 0
63 664 l 0
63 242 l 0
63 219 63 196 67 173 c 0
71 151 80 129 93 110 c 0
107 92 125 77 146 68 c 0
167 60 191 58 214 63 c 0
214 59 l 0
191 54 166 56 144 64 c 0
123 73 104 88 90 107 c 0
76 126 67 148 63 171 c 0
59 194 58 218 59 242 c 0
59 664 l 0
Z
60 664 m 0
64 664 l 0
64 242 l 0
64 219 64 196 68 174 c 0
72 152 80 130 94 112 c 0
107 93 125 79 146 70 c 0
167 61 190 59 213 64 c 0
213 60 l 0
190 55 166 57 144 66 c 0
123 75 104 90 90 108 c 0
77 127 68 149 64 172 c 0
60 195 59 218 60 242 c 0
60 664 l 0
Z
61 664 m 0
66 664 l 0
66 242 l 0
66 219 66 197 70 175 c 0
74 153 82 131 95 113 c 0
108 95 126 80 147 71 c 0
167 63 191 60 213 65 c 0
213 60 l 0
190 55 166 57 145 66 c 0
123 75 105 90 91 109 c 0
78 128 69 150 65 172 c 0
61 195 60 218 61 242 c 0
61 664 l 0
Z
Spiro
58 664 v
62 664 v
62 242 ]
214 62 v
214 58 v
58 242 [
59 664 v
63 664 v
63 242 ]
214 63 v
214 59 v
59 242 [
60 664 v
64 664 v
64 242 ]
213 64 v
213 60 v
60 242 [
61 664 v
66 664 v
66 242 ]
213 65 v
213 60 v
61 242 [
0 0 z
EndSpiro
EndSplineSet
        Fore
        SplineSet
0 662 m 0
5 662 l 0
5 240 l 0
5 207 5 175 11 144 c 0
17 113 30 82 50 57 c 0
70 32 97 12 127 2 c 0
158 -6 191 -6 222 3 c 0
222 -1 l 0
190 -11 156 -11 125 -1 c 0
94 8 66 28 46 53 c 0
26 79 13 110 6 142 c 0
0 174 0 207 0 240 c 0
0 662 l 0
Z
40 662 m 0
45 662 l 0
45 240 l 0
45 214 45 188 50 163 c 0
54 138 64 114 79 93 c 0
94 72 115 56 139 47 c 0
163 38 190 36 215 42 c 0
215 38 l 0
189 31 162 33 137 42 c 0
113 51 91 68 75 89 c 0
60 110 50 135 45 161 c 0
40 187 39 213 40 240 c 0
40 662 l 0
Z
80 662 m 0
85 662 l 0
85 240 l 0
85 220 85 201 88 182 c 0
91 163 98 145 108 129 c 0
119 113 134 100 151 91 c 0
168 83 187 79 207 81 c 0
207 77 l 0
187 74 167 78 149 87 c 0
131 95 116 109 105 125 c 0
93 142 87 161 83 180 c 0
80 200 79 220 80 240 c 0
80 662 l 0
Z
120 662 m 0
125 662 l 0
125 240 l 0
125 226 125 213 127 201 c 0
128 188 132 175 138 164 c 0
145 152 153 142 164 134 c 0
174 127 187 122 200 120 c 0
200 116 l 0
186 117 173 122 162 130 c 0
150 138 141 148 134 160 c 0
128 172 124 185 122 199 c 0
120 212 119 226 120 240 c 0
120 662 l 0
Z
Spiro
0 662 v
5 662 v
5 240 ]
222 3 v
222 -1 v
0 240 [
40 662 v
45 662 v
45 240 ]
215 42 v
215 38 v
40 240 [
80 662 v
85 662 v
85 240 ]
207 81 v
207 77 v
80 240 [
120 662 v
125 662 v
125 240 ]
200 120 v
200 116 v
120 240 [
0 0 z
EndSpiro
EndSplineSet
        EndChar
StartChar: m
Encoding: 109 109 0
Width: 706
InSpiro: 1
        Flags: H
        LayerCount: 2
        Back
        SplineSet
58 424 m 0
62 424 l 0
62 60 l 0
58 60 l 0
58 424 l 0
Z
59 424 m 0
63 424 l 0
63 60 l 0
59 60 l 0
59 424 l 0
Z
60 424 m 0
64 424 l 0
64 60 l 0
60 60 l 0
60 424 l 0
Z
61 424 m 0
66 424 l 0
66 60 l 0
61 60 l 0
61 424 l 0
Z
65 59 m 0
60 59 l 0
60 321 l 0
62 355 81 388 110 408 c 0
139 427 178 432 211 421 c 0
228 415 243 405 256 392 c 0
269 380 279 364 286 348 c 0
300 315 302 278 302 242 c 0
302 60 l 0
297 60 l 0
297 242 l 0
297 277 295 313 282 345 c 0
275 362 266 377 253 389 c 0
241 402 226 412 210 418 c 0
178 429 140 424 112 405 c 0
84 386 66 353 65 320 c 0
65 59 l 0
Z
64 60 m 0
60 60 l 0
60 321 l 0
62 355 81 389 110 408 c 0
139 427 177 433 211 422 c 0
228 416 243 406 256 393 c 0
269 381 280 365 287 348 c 0
301 315 303 278 303 242 c 0
303 60 l 0
298 60 l 0
298 242 l 0
298 277 296 313 283 346 c 0
276 362 266 378 254 390 c 0
241 403 226 413 210 419 c 0
177 430 140 425 112 406 c 0
83 387 65 354 64 320 c 0
64 60 l 0
Z
63 60 m 0
59 60 l 0
59 322 l 0
61 357 81 390 110 410 c 0
140 429 178 434 212 423 c 0
246 411 274 382 288 349 c 0
302 315 304 278 304 242 c 0
304 60 l 0
299 60 l 0
299 242 l 0
299 277 297 314 284 346 c 0
277 363 267 378 255 391 c 0
242 404 227 414 211 420 c 0
178 431 140 426 112 407 c 0
83 388 64 355 63 321 c 0
63 60 l 0
Z
62 60 m 0
58 60 l 0
58 322 l 0
60 357 80 390 110 410 c 0
139 429 178 435 212 424 c 0
246 412 275 384 289 350 c 0
304 316 306 278 306 242 c 0
306 60 l 0
301 60 l 0
301 242 l 0
301 277 299 314 285 347 c 0
278 364 268 379 256 392 c 0
243 405 227 415 211 421 c 0
178 432 140 427 111 407 c 0
82 388 64 355 62 321 c 0
62 60 l 0
Z
305 59 m 0
300 59 l 0
300 272 l 0
300 293 300 314 305 335 c 0
309 356 319 376 333 392 c 0
347 408 367 419 387 424 c 0
408 429 430 428 451 421 c 0
484 409 512 381 526 348 c 0
540 314 542 277 542 242 c 0
542 60 l 0
537 60 l 0
537 242 l 0
536 277 535 313 522 345 c 0
515 361 506 377 493 389 c 0
481 402 466 412 450 418 c 0
430 424 408 426 388 421 c 0
368 415 350 404 336 388 c 0
323 373 314 353 309 333 c 0
305 313 304 292 305 272 c 0
305 59 l 0
Z
304 60 m 0
299 60 l 0
299 272 l 0
299 293 299 315 304 336 c 0
308 357 318 377 332 393 c 0
347 409 366 420 387 425 c 0
408 430 430 429 451 422 c 0
485 410 512 381 527 348 c 0
541 315 543 278 543 242 c 0
543 60 l 0
538 60 l 0
538 242 l 0
538 277 536 313 523 346 c 0
516 362 506 378 494 390 c 0
481 403 466 413 450 419 c 0
430 425 408 427 388 421 c 0
368 416 349 405 336 389 c 0
322 374 313 354 308 334 c 0
304 313 303 292 304 272 c 0
304 60 l 0
Z
303 60 m 0
298 60 l 0
298 272 l 0
298 293 298 315 303 336 c 0
308 358 317 378 332 394 c 0
347 410 366 422 387 427 c 0
408 431 431 430 452 423 c 0
486 410 513 382 528 349 c 0
542 315 544 278 544 242 c 0
544 60 l 0
539 60 l 0
539 242 l 0
539 277 537 313 524 346 c 0
517 363 507 378 495 391 c 0
482 403 467 413 451 420 c 0
431 427 409 428 388 423 c 0
368 418 349 406 335 391 c 0
321 375 312 355 307 334 c 0
303 314 302 293 303 272 c 0
303 60 l 0
Z
301 60 m 0
296 60 l 0
296 272 l 0
296 293 296 316 301 337 c 0
306 358 316 379 330 395 c 0
345 411 365 423 387 428 c 0
408 433 431 431 452 424 c 0
486 411 514 383 529 350 c 0
544 316 546 278 546 242 c 0
546 60 l 0
541 60 l 0
541 242 l 0
541 277 539 314 525 347 c 0
511 380 484 408 451 421 c 0
430 428 408 429 388 424 c 0
367 419 348 407 334 392 c 0
319 376 310 356 305 335 c 0
301 314 300 293 301 272 c 0
301 60 l 0
Z
Spiro
58 424 v
62 424 v
62 60 v
58 60 v
59 424 v
63 424 v
63 60 v
59 60 v
60 424 v
64 424 v
64 60 v
60 60 v
61 424 v
66 424 v
66 60 v
61 60 v
65 59 v
60 59 v
60 321 v
211 421 c
302 242 [
302 60 v
297 60 v
297 242 ]
210 418 c
65 320 v
64 60 v
60 60 v
60 321 v
211 422 c
303 242 [
303 60 v
298 60 v
298 242 ]
210 419 c
64 320 v
63 60 v
59 60 v
59 322 v
212 423 c
304 242 [
304 60 v
299 60 v
299 242 ]
211 420 c
63 321 v
62 60 v
58 60 v
58 322 v
212 424 c
306 242 [
306 60 v
301 60 v
301 242 ]
211 421 c
62 321 v
305 59 v
300 59 v
300 272 ]
451 421 c
542 242 [
542 60 v
537 60 v
537 242 ]
450 418 c
305 272 [
304 60 v
299 60 v
299 272 ]
451 422 c
543 242 [
543 60 v
538 60 v
538 242 ]
450 419 c
304 272 [
303 60 v
298 60 v
298 272 ]
452 423 c
544 242 [
544 60 v
539 60 v
539 242 ]
451 420 c
303 272 [
301 60 v
296 60 v
296 272 ]
452 424 c
546 242 [
546 60 v
541 60 v
541 242 ]
451 421 c
301 272 [
0 0 z
EndSpiro
EndSplineSet
        Fore
        SplineSet
0 422 m 0
5 422 l 0
5 58 l 0
0 58 l 0
0 422 l 0
Z
40 422 m 0
45 422 l 0
45 58 l 0
40 58 l 0
40 422 l 0
Z
80 422 m 0
85 422 l 0
85 58 l 0
80 58 l 0
80 422 l 0
Z
120 422 m 0
125 422 l 0
125 58 l 0
120 58 l 0
120 422 l 0
Z
119 57 m 0
114 57 l 0
114 318 l 0
116 334 127 350 141 358 c 0
156 367 174 369 191 364 c 0
202 360 212 352 220 343 c 0
228 334 233 323 237 311 c 0
244 288 244 264 245 240 c 0
245 58 l 0
240 58 l 0
240 240 l 0
240 263 240 287 233 309 c 0
230 320 225 331 217 340 c 0
210 349 201 357 190 361 c 0
174 366 157 364 143 355 c 0
130 347 120 332 119 317 c 0
119 57 l 0
Z
79 58 m 0
74 58 l 0
74 319 l 0
77 348 94 375 119 391 c 0
143 407 176 411 204 402 c 0
219 396 233 387 244 376 c 0
256 364 265 350 271 335 c 0
283 305 285 272 285 240 c 0
285 58 l 0
280 58 l 0
280 240 l 0
280 271 279 304 267 333 c 0
261 348 253 361 242 373 c 0
231 384 217 393 203 399 c 0
176 408 144 404 121 389 c 0
97 373 81 346 79 318 c 0
79 58 l 0
Z
39 58 m 0
34 58 l 0
34 320 l 0
38 361 62 400 97 422 c 0
132 445 177 451 217 439 c 0
255 426 288 396 305 359 c 0
323 322 325 280 325 240 c 0
325 58 l 0
320 58 l 0
320 240 l 0
320 279 318 321 301 357 c 0
285 393 253 423 216 436 c 0
177 448 133 442 99 420 c 0
65 397 42 359 39 319 c 0
39 58 l 0
Z
0 58 m 0
-5 58 l 0
-4 321 l 0
1 374 31 424 76 453 c 0
120 483 178 492 230 477 c 0
277 462 317 428 340 384 c 0
351 362 357 338 361 313 c 0
364 289 365 264 365 240 c 0
365 58 l 0
360 58 l 0
360 240 l 0
360 264 359 288 356 312 c 0
353 336 346 360 335 381 c 0
314 425 275 459 229 474 c 0
178 489 121 481 77 451 c 0
33 422 4 372 0 320 c 0
0 58 l 0
Z
359 57 m 0
354 57 l 0
354 270 l 0
354 281 354 293 356 305 c 0
358 317 362 328 368 338 c 0
375 348 384 356 395 360 c 0
406 365 418 366 430 364 c 0
441 361 452 353 460 344 c 0
468 335 474 324 477 312 c 0
485 289 484 264 485 240 c 0
485 58 l 0
480 58 l 0
480 240 l 0
479 263 480 287 474 310 c 0
470 321 465 332 458 342 c 0
450 351 440 358 429 361 c 0
418 363 406 361 396 357 c 0
386 352 377 344 371 334 c 0
366 325 362 314 360 303 c 0
359 292 358 281 359 270 c 0
359 57 l 0
Z
319 58 m 0
314 58 l 0
314 270 l 0
314 288 314 307 318 325 c 0
322 343 330 361 342 375 c 0
354 389 371 399 389 404 c 0
407 408 426 407 444 402 c 0
459 396 473 387 484 376 c 0
496 364 505 350 511 335 c 0
523 305 525 272 525 240 c 0
525 58 l 0
520 58 l 0
520 240 l 0
519 271 519 304 507 333 c 0
501 348 493 362 482 373 c 0
471 384 457 393 443 399 c 0
426 404 407 405 390 400 c 0
372 395 357 385 345 371 c 0
334 357 326 341 322 323 c 0
319 305 318 287 319 270 c 0
319 58 l 0
Z
279 58 m 0
274 58 l 0
274 270 l 0
274 295 274 320 280 345 c 0
286 369 298 393 316 410 c 0
334 428 357 441 382 445 c 0
407 450 433 447 457 439 c 0
495 425 527 395 545 359 c 0
562 322 565 280 565 240 c 0
565 58 l 0
560 58 l 0
560 240 l 0
560 279 558 320 541 356 c 0
524 392 493 422 456 436 c 0
432 444 407 446 383 442 c 0
359 437 336 425 319 407 c 0
302 389 291 367 285 343 c 0
279 319 278 294 279 270 c 0
279 58 l 0
Z
239 58 m 0
234 58 l 0
234 270 l 0
234 302 234 334 242 365 c 0
251 396 267 425 290 447 c 0
314 469 344 483 376 488 c 0
408 493 440 488 471 477 c 0
516 459 556 426 579 382 c 0
590 361 597 337 601 313 c 0
604 289 605 264 605 240 c 0
605 58 l 0
600 58 l 0
600 240 l 0
600 264 599 288 596 311 c 0
592 335 586 359 575 380 c 0
553 423 514 456 470 474 c 0
440 485 408 489 377 484 c 0
346 480 316 466 293 444 c 0
270 422 255 394 247 363 c 0
239 333 238 301 239 270 c 0
239 58 l 0
Z
Spiro
0 422 v
5 422 v
5 58 v
0 58 v
40 422 v
45 422 v
45 58 v
40 58 v
80 422 v
85 422 v
85 58 v
80 58 v
120 422 v
125 422 v
125 58 v
120 58 v
119 57 v
114 57 v
114 318 v
191 364 c
245 240 [
245 58 v
240 58 v
240 240 ]
190 361 c
119 317 v
79 58 v
74 58 v
74 319 v
204 402 c
285 240 [
285 58 v
280 58 v
280 240 ]
203 399 c
79 318 v
39 58 v
34 58 v
34 320 v
217 439 c
325 240 [
325 58 v
320 58 v
320 240 ]
216 436 c
39 319 v
0 58 v
-5 58 v
-4 321 v
230 477 c
365 240 [
365 58 v
360 58 v
360 240 ]
229 474 c
0 320 v
359 57 v
354 57 v
354 270 ]
430 364 c
485 240 [
485 58 v
480 58 v
480 240 ]
429 361 c
359 270 [
319 58 v
314 58 v
314 270 ]
444 402 c
525 240 [
525 58 v
520 58 v
520 240 ]
443 399 c
319 270 [
279 58 v
274 58 v
274 270 ]
457 439 c
565 240 [
565 58 v
560 58 v
560 240 ]
456 436 c
279 270 [
239 58 v
234 58 v
234 270 ]
471 477 c
605 240 [
605 58 v
600 58 v
600 240 ]
470 474 c
239 270 [
0 0 z
EndSpiro
EndSplineSet
        EndChar
StartChar: o
Encoding: 111 111 0
Width: 526
InSpiro: 1
        Flags: H
        LayerCount: 2
        Back
        SplineSet
211 421 m 0
189 420 167 415 148 404 c 0
129 394 113 380 100 362 c 0
73 328 62 284 62 241 c 0
61 197 73 153 100 119 c 0
113 101 129 87 148 77 c 0
167 66 189 61 211 61 c 0
232 60 254 66 273 77 c 0
292 87 308 101 321 119 c 0
348 153 359 197 360 241 c 0
359 284 348 328 321 362 c 0
308 380 292 394 273 404 c 0
254 415 232 420 211 421 c 0
Z
365 242 m 0
365 197 352 152 324 117 c 0
311 99 293 84 274 74 c 0
254 64 232 58 210 59 c 0
188 59 166 65 147 75 c 0
127 85 111 100 97 117 c 0
70 152 58 196 58 240 c 0
57 284 70 329 97 365 c 0
110 382 128 397 147 407 c 0
167 418 189 424 212 424 c 0
234 423 255 418 275 407 c 0
294 397 311 382 325 365 c 0
352 330 364 286 365 242 c 0
Z
211 420 m 0
189 419 168 414 149 404 c 0
130 393 113 379 100 362 c 0
74 327 63 284 63 241 c 0
62 197 74 154 100 119 c 0
113 102 130 88 149 77 c 0
168 67 189 62 211 62 c 0
232 61 253 67 272 77 c 0
291 88 308 102 321 119 c 0
347 154 358 197 359 241 c 0
358 284 347 327 321 362 c 0
308 379 291 393 272 404 c 0
253 414 232 419 211 420 c 0
Z
364 242 m 0
364 197 351 152 324 117 c 0
310 100 293 85 273 75 c 0
254 65 232 59 210 60 c 0
188 60 166 66 147 76 c 0
128 86 111 101 98 118 c 0
71 152 59 196 59 240 c 0
58 284 70 329 98 364 c 0
111 381 128 396 148 406 c 0
167 417 189 423 212 423 c 0
233 422 255 417 274 406 c 0
294 396 311 381 324 364 c 0
351 330 363 285 364 242 c 0
Z
211 419 m 0
189 418 168 413 149 403 c 0
130 392 114 378 101 361 c 0
75 327 64 283 64 241 c 0
63 198 75 154 101 120 c 0
114 103 130 89 149 78 c 0
168 68 189 63 211 63 c 0
232 62 253 68 272 78 c 0
291 89 307 103 320 120 c 0
346 154 357 198 358 241 c 0
357 283 346 327 320 361 c 0
307 378 291 392 272 403 c 0
253 413 232 418 211 419 c 0
Z
363 240 m 0
362 196 350 152 323 118 c 0
310 100 293 86 274 76 c 0
255 65 233 60 212 60 c 0
190 59 168 65 148 75 c 0
129 86 112 101 98 118 c 0
71 153 59 198 60 242 c 0
60 285 72 329 98 363 c 0
112 380 128 395 147 405 c 0
166 415 188 421 210 422 c 0
232 422 254 416 273 406 c 0
293 396 310 381 323 363 c 0
350 329 363 284 363 240 c 0
Z
211 418 m 0
189 417 168 412 150 402 c 0
131 391 115 377 102 360 c 0
77 326 66 283 66 241 c 0
65 198 77 155 102 121 c 0
115 104 131 90 150 79 c 0
168 69 189 64 211 64 c 0
232 63 253 69 271 79 c 0
290 90 306 104 319 121 c 0
344 155 355 198 356 241 c 0
355 283 344 326 319 360 c 0
306 377 290 391 271 402 c 0
253 412 232 417 211 418 c 0
Z
361 240 m 0
360 196 348 153 322 119 c 0
309 101 292 87 273 77 c 0
254 66 233 61 212 61 c 0
190 60 168 66 149 76 c 0
129 86 112 101 99 119 c 0
72 153 60 198 61 242 c 0
61 285 73 328 99 362 c 0
112 380 129 394 148 404 c 0
167 415 188 420 210 421 c 0
231 421 253 415 272 405 c 0
292 395 309 380 322 362 c 0
349 328 361 283 361 240 c 0
Z
Spiro
211 421 c
62 241 c
211 61 c
360 241 c
365 242 c
210 59 c
58 240 c
212 424 c
211 420 c
63 241 c
211 62 c
359 241 c
364 242 c
210 60 c
59 240 c
212 423 c
211 419 c
64 241 c
211 63 c
358 241 c
363 240 c
212 60 c
60 242 c
210 422 c
211 418 c
66 241 c
211 64 c
356 241 c
361 240 c
212 61 c
61 242 c
210 421 c
0 0 z
EndSpiro
EndSplineSet
        Fore
        SplineSet
209 477 m 0
179 477 151 469 125 456 c 0
99 443 76 423 58 401 c 0
22 355 4 297 5 239 c 0
5 180 22 122 58 76 c 0
76 54 99 34 125 21 c 0
151 8 179 1 209 1 c 0
238 0 266 8 292 21 c 0
318 34 341 54 359 76 c 0
395 122 412 180 413 239 c 0
412 297 395 355 359 401 c 0
341 423 318 443 292 456 c 0
266 469 238 476 209 477 c 0
Z
418 240 m 0
418 180 399 120 362 74 c 0
324 29 267 -1 208 -1 c 0
149 0 92 29 55 74 c 0
18 120 0 179 0 238 c 0
0 297 17 357 55 403 c 0
92 449 150 480 210 480 c 0
268 479 325 449 362 403 c 0
399 358 417 298 418 240 c 0
Z
209 437 m 0
185 436 161 430 140 419 c 0
119 408 101 391 86 372 c 0
58 335 45 286 45 239 c 0
44 191 58 142 86 105 c 0
101 86 119 69 140 58 c 0
161 47 185 41 209 41 c 0
232 40 256 47 277 58 c 0
298 69 316 86 331 105 c 0
359 142 372 191 373 239 c 0
372 286 359 335 331 372 c 0
316 391 298 408 277 419 c 0
256 430 232 436 209 437 c 0
Z
378 240 m 0
378 191 364 141 334 102 c 0
319 83 300 66 278 55 c 0
256 44 232 37 208 38 c 0
183 38 159 44 138 55 c 0
117 67 98 83 83 102 c 0
54 140 40 189 40 238 c 0
39 286 53 336 83 375 c 0
98 394 117 411 139 422 c 0
161 433 185 440 210 440 c 0
234 439 258 433 279 422 c 0
300 410 319 394 334 375 c 0
363 337 377 288 378 240 c 0
Z
209 398 m 0
190 397 171 392 155 383 c 0
139 373 125 360 114 345 c 0
92 314 84 276 84 239 c 0
83 201 92 163 114 132 c 0
125 117 139 104 155 94 c 0
171 85 190 80 209 80 c 0
227 79 246 85 262 94 c 0
278 104 292 117 303 132 c 0
325 163 333 201 334 239 c 0
333 276 325 314 303 345 c 0
292 360 278 373 262 383 c 0
246 392 227 397 209 398 c 0
Z
339 238 m 0
338 199 329 160 306 130 c 0
295 114 281 101 264 91 c 0
247 82 229 77 210 77 c 0
190 76 171 82 154 91 c 0
137 100 122 114 111 130 c 0
88 161 78 201 79 240 c 0
79 278 88 317 111 347 c 0
122 363 136 376 153 386 c 0
170 395 188 400 208 401 c 0
227 401 246 395 263 386 c 0
280 377 295 363 306 347 c 0
329 316 339 276 339 238 c 0
Z
209 358 m 0
195 357 182 353 170 346 c 0
159 338 149 328 142 317 c 0
128 294 124 266 124 239 c 0
123 211 128 183 142 160 c 0
149 149 159 139 170 131 c 0
182 124 195 120 209 120 c 0
222 119 235 124 247 131 c 0
258 139 268 149 275 160 c 0
289 183 293 211 294 239 c 0
293 266 289 294 275 317 c 0
268 328 258 338 247 346 c 0
235 353 222 357 209 358 c 0
Z
299 238 m 0
298 210 293 181 278 158 c 0
271 146 261 136 249 128 c 0
237 121 223 117 210 117 c 0
195 116 181 121 169 128 c 0
157 135 147 146 139 158 c 0
124 182 118 211 119 240 c 0
119 267 124 296 139 319 c 0
146 331 156 341 168 349 c 0
180 356 194 360 208 361 c 0
222 361 236 356 248 349 c 0
260 342 270 331 278 319 c 0
293 295 299 266 299 238 c 0
Z
Spiro
209 477 c
5 239 c
209 1 c
413 239 c
418 240 c
208 -1 c
0 238 c
210 480 c
209 437 c
45 239 c
209 41 c
373 239 c
378 240 c
208 38 c
40 238 c
210 440 c
209 398 c
84 239 c
209 80 c
334 239 c
339 238 c
210 77 c
79 240 c
208 401 c
209 358 c
124 239 c
209 120 c
294 239 c
299 238 c
210 117 c
119 240 c
208 361 c
0 0 z
EndSpiro
EndSplineSet
        EndChar
StartChar: p
Encoding: 112 112 0
Width: 526
InSpiro: 1
        Flags: H
        LayerCount: 2
        Back
        SplineSet
58 424 m 0
62 424 l 0
62 -240 l 0
58 -240 l 0
58 424 l 0
Z
59 424 m 0
63 424 l 0
63 -240 l 0
59 -240 l 0
59 424 l 0
Z
60 424 m 0
64 424 l 0
64 -240 l 0
60 -240 l 0
60 424 l 0
Z
61 424 m 0
66 424 l 0
66 -240 l 0
61 -240 l 0
61 424 l 0
Z
65 319 m 0
60 319 l 0
69 350 90 378 117 396 c 0
144 414 178 423 211 421 c 0
253 417 294 394 320 361 c 0
347 327 361 284 362 242 c 0
362 198 348 155 321 121 c 0
294 87 254 64 211 61 c 0
178 58 144 67 117 85 c 0
90 104 69 132 60 164 c 0
65 164 l 0
73 133 93 106 119 88 c 0
145 70 178 61 210 64 c 0
252 67 291 90 317 123 c 0
343 156 357 198 357 241 c 0
356 283 343 325 317 358 c 0
291 391 252 414 210 418 c 0
178 420 146 411 120 393 c 0
93 376 74 349 65 319 c 0
Z
64 319 m 0
60 319 l 0
69 350 90 378 117 396 c 0
144 415 178 424 211 422 c 0
254 418 294 395 321 362 c 0
348 328 362 285 363 242 c 0
363 198 349 154 322 120 c 0
295 86 254 63 211 60 c 0
178 57 144 66 117 85 c 0
89 104 69 132 60 164 c 0
64 164 l 0
72 133 92 105 119 87 c 0
145 69 178 60 210 63 c 0
252 66 292 89 318 122 c 0
344 155 358 198 358 241 c 0
357 283 344 326 318 359 c 0
292 392 252 415 210 419 c 0
178 421 145 412 119 394 c 0
93 376 73 349 64 319 c 0
Z
63 320 m 0
59 320 l 0
68 351 89 379 117 398 c 0
144 416 178 425 212 423 c 0
255 419 296 395 323 361 c 0
350 327 364 283 364 240 c 0
363 196 349 153 322 120 c 0
295 86 254 63 212 60 c 0
178 57 144 66 117 84 c 0
89 103 68 131 59 163 c 0
63 163 l 0
72 132 92 104 119 86 c 0
145 68 178 59 211 62 c 0
253 65 293 88 319 122 c 0
345 155 359 198 359 241 c 0
358 283 345 326 319 359 c 0
293 393 253 416 211 420 c 0
178 422 146 414 119 396 c 0
92 378 72 350 63 320 c 0
Z
62 320 m 0
58 320 l 0
68 351 89 380 116 398 c 0
144 417 178 426 212 424 c 0
255 420 297 397 324 362 c 0
352 328 366 284 366 240 c 0
365 196 351 152 323 119 c 0
296 85 255 62 212 59 c 0
178 56 144 65 116 84 c 0
89 102 68 131 58 163 c 0
62 163 l 0
71 131 91 104 118 85 c 0
145 67 178 58 211 61 c 0
253 64 294 87 320 121 c 0
347 154 361 198 361 241 c 0
360 283 347 327 320 360 c 0
294 394 253 417 211 421 c 0
178 423 145 414 118 396 c 0
91 378 71 350 62 320 c 0
Z
Spiro
58 424 v
62 424 v
62 -240 v
58 -240 v
59 424 v
63 424 v
63 -240 v
59 -240 v
60 424 v
64 424 v
64 -240 v
60 -240 v
61 424 v
66 424 v
66 -240 v
61 -240 v
65 319 v
60 319 v
211 421 c
362 242 c
211 61 c
60 164 v
65 164 v
210 64 c
357 241 c
210 418 c
64 319 v
60 319 v
211 422 c
363 242 c
211 60 c
60 164 v
64 164 v
210 63 c
358 241 c
210 419 c
63 320 v
59 320 v
212 423 c
364 240 c
212 60 c
59 163 v
63 163 v
211 62 c
359 241 c
211 420 c
62 320 v
58 320 v
212 424 c
366 240 c
212 59 c
58 163 v
62 163 v
211 61 c
361 241 c
211 421 c
0 0 z
EndSpiro
EndSplineSet
        Fore
        SplineSet
0 422 m 0
5 422 l 0
5 -242 l 0
0 -242 l 0
0 422 l 0
Z
40 422 m 0
45 422 l 0
45 -242 l 0
40 -242 l 0
40 422 l 0
Z
80 422 m 0
85 422 l 0
85 -242 l 0
80 -242 l 0
80 422 l 0
Z
120 422 m 0
125 422 l 0
125 -242 l 0
120 -242 l 0
120 422 l 0
Z
116 299 m 0
111 299 l 0
117 318 130 334 147 345 c 0
164 357 184 362 205 361 c 0
233 358 260 343 278 320 c 0
296 297 304 268 305 240 c 0
305 210 296 181 279 158 c 0
261 135 234 118 205 117 c 0
184 115 164 121 147 132 c 0
130 143 117 160 111 180 c 0
116 180 l 0
121 161 133 145 149 134 c 0
165 124 184 118 204 120 c 0
232 121 258 137 275 160 c 0
292 182 300 210 300 239 c 0
299 267 292 295 275 317 c 0
258 340 232 356 204 358 c 0
185 359 165 354 149 343 c 0
134 332 122 316 116 299 c 0
Z
78 311 m 0
73 311 l 0
82 338 100 363 125 379 c 0
149 395 178 403 208 401 c 0
246 398 283 377 307 347 c 0
332 317 344 278 345 240 c 0
345 200 332 161 308 131 c 0
283 100 246 79 208 77 c 0
178 74 149 82 124 99 c 0
100 115 81 140 73 168 c 0
78 168 l 0
86 141 104 117 127 101 c 0
150 85 178 78 207 80 c 0
244 82 280 103 304 132 c 0
328 162 340 200 340 239 c 0
339 277 328 315 304 345 c 0
280 374 244 395 207 398 c 0
179 399 150 392 127 376 c 0
104 361 86 337 78 311 c 0
Z
40 324 m 0
35 324 l 0
47 359 71 391 103 412 c 0
134 433 173 442 211 440 c 0
259 436 305 410 336 373 c 0
367 335 384 286 384 238 c 0
383 189 367 140 336 103 c 0
305 66 259 41 211 38 c 0
173 35 134 45 102 66 c 0
71 87 46 118 35 155 c 0
40 155 l 0
51 120 74 89 105 68 c 0
135 48 173 38 210 41 c 0
257 44 302 69 332 106 c 0
363 143 379 191 379 239 c 0
378 286 363 334 332 371 c 0
302 408 257 433 210 437 c 0
173 439 136 430 105 409 c 0
75 389 51 358 40 324 c 0
Z
2 336 m 0
-2 336 l 0
12 380 42 419 81 445 c 0
120 471 168 483 215 480 c 0
273 475 328 445 366 400 c 0
404 355 424 296 424 238 c 0
423 179 403 121 365 77 c 0
327 33 272 3 215 -1 c 0
168 -4 120 7 81 33 c 0
42 59 12 98 -2 143 c 0
2 143 l 0
15 99 45 60 83 35 c 0
121 9 168 -2 214 1 c 0
271 5 325 35 362 79 c 0
399 123 419 181 419 239 c 0
418 296 399 354 362 398 c 0
325 442 271 472 214 477 c 0
168 480 121 468 83 443 c 0
45 417 16 379 2 336 c 0
Z
Spiro
0 422 v
5 422 v
5 -242 v
0 -242 v
40 422 v
45 422 v
45 -242 v
40 -242 v
80 422 v
85 422 v
85 -242 v
80 -242 v
120 422 v
125 422 v
125 -242 v
120 -242 v
116 299 v
111 299 v
205 361 c
305 240 c
205 117 c
111 180 v
116 180 v
204 120 c
300 239 c
204 358 c
78 311 v
73 311 v
208 401 c
345 240 c
208 77 c
73 168 v
78 168 v
207 80 c
340 239 c
207 398 c
40 324 v
35 324 v
211 440 c
384 238 c
211 38 c
35 155 v
40 155 v
210 41 c
379 239 c
210 437 c
2 336 v
-2 336 v
215 480 c
424 238 c
215 -1 c
-2 143 v
2 143 v
214 1 c
419 239 c
214 477 c
0 0 z
EndSpiro
EndSplineSet
        EndChar
StartChar: u
Encoding: 117 117 0
Width: 466
InSpiro: 1
        Flags: H
        LayerCount: 2
        Back
        SplineSet
305 59 m 0
300 59 l 0
300 424 l 0
305 424 l 0
305 59 l 0
Z
304 60 m 0
299 60 l 0
299 424 l 0
304 424 l 0
304 60 l 0
Z
303 60 m 0
298 60 l 0
298 424 l 0
303 424 l 0
303 60 l 0
Z
301 60 m 0
296 60 l 0
296 424 l 0
301 424 l 0
301 60 l 0
Z
297 164 m 0
302 164 l 0
300 139 289 115 273 97 c 0
257 78 235 65 211 61 c 0
188 56 164 58 143 67 c 0
122 76 103 91 90 110 c 0
76 128 68 150 64 173 c 0
60 195 59 219 60 242 c 0
60 424 l 0
65 424 l 0
65 242 l 0
65 219 65 197 69 175 c 0
73 153 80 131 93 113 c 0
106 95 123 80 144 71 c 0
164 62 188 59 210 64 c 0
233 68 255 81 270 99 c 0
286 117 295 140 297 164 c 0
Z
298 164 m 0
303 164 l 0
301 139 290 115 274 96 c 0
258 77 235 64 211 60 c 0
188 55 164 57 143 66 c 0
122 75 103 90 90 109 c 0
76 128 68 150 64 173 c 0
60 195 59 218 60 242 c 0
60 424 l 0
64 424 l 0
64 242 l 0
64 219 64 196 68 174 c 0
72 152 80 131 92 112 c 0
105 94 123 79 144 70 c 0
164 61 187 58 210 63 c 0
233 67 255 80 271 98 c 0
287 116 296 140 298 164 c 0
Z
299 163 m 0
304 163 l 0
301 138 291 114 274 96 c 0
258 78 236 65 212 60 c 0
189 55 165 57 143 66 c 0
122 74 103 90 89 108 c 0
76 127 67 149 63 172 c 0
59 195 58 218 59 242 c 0
59 424 l 0
63 424 l 0
63 242 l 0
63 219 63 196 67 174 c 0
71 151 79 130 92 111 c 0
105 92 123 77 144 68 c 0
165 59 188 57 211 62 c 0
234 66 256 79 272 97 c 0
287 115 297 139 299 163 c 0
Z
301 163 m 0
306 163 l 0
303 138 292 114 276 95 c 0
259 77 236 64 212 59 c 0
189 54 164 56 143 65 c 0
121 74 102 89 89 108 c 0
75 127 66 149 62 172 c 0
58 195 57 218 58 242 c 0
58 424 l 0
62 424 l 0
62 242 l 0
62 219 62 196 66 173 c 0
70 151 78 129 91 110 c 0
104 92 122 76 143 68 c 0
164 59 188 56 211 61 c 0
234 65 257 78 273 96 c 0
289 115 299 138 301 163 c 0
Z
Spiro
305 59 v
300 59 v
300 424 v
305 424 v
304 60 v
299 60 v
299 424 v
304 424 v
303 60 v
298 60 v
298 424 v
303 424 v
301 60 v
296 60 v
296 424 v
301 424 v
297 164 v
302 164 v
211 61 c
60 242 [
60 424 v
65 424 v
65 242 ]
210 64 c
298 164 v
303 164 v
211 60 c
60 242 [
60 424 v
64 424 v
64 242 ]
210 63 c
299 163 v
304 163 v
212 60 c
59 242 [
59 424 v
63 424 v
63 242 ]
211 62 c
301 163 v
306 163 v
212 59 c
58 242 [
58 424 v
62 424 v
62 242 ]
211 61 c
0 0 z
EndSpiro
EndSplineSet
        Fore
        SplineSet
359 57 m 0
354 57 l 0
354 422 l 0
359 422 l 0
359 57 l 0
Z
319 58 m 0
314 58 l 0
314 422 l 0
319 422 l 0
319 58 l 0
Z
279 58 m 0
274 58 l 0
274 422 l 0
279 422 l 0
279 58 l 0
Z
239 58 m 0
234 58 l 0
234 422 l 0
239 422 l 0
239 58 l 0
Z
240 167 m 0
245 167 l 0
244 154 238 142 230 133 c 0
221 124 210 117 198 116 c 0
183 113 169 117 156 124 c 0
144 132 134 143 128 156 c 0
121 168 117 182 115 197 c 0
114 211 114 225 114 240 c 0
114 422 l 0
119 422 l 0
119 240 l 0
119 212 119 184 131 159 c 0
137 147 146 135 157 128 c 0
169 120 183 117 197 119 c 0
208 120 219 126 227 135 c 0
234 143 239 155 240 167 c 0
Z
280 163 m 0
285 163 l 0
282 142 273 122 259 107 c 0
245 91 226 80 206 77 c 0
185 73 164 75 146 83 c 0
127 92 111 105 99 122 c 0
88 139 81 159 77 179 c 0
74 199 73 219 74 240 c 0
74 422 l 0
79 422 l 0
79 240 l 0
79 220 79 200 82 181 c 0
85 161 92 142 103 126 c 0
114 109 129 95 147 87 c 0
165 79 185 76 205 80 c 0
224 83 243 93 256 108 c 0
269 123 278 143 280 163 c 0
Z
319 160 m 0
324 160 l 0
320 131 307 103 288 81 c 0
268 60 242 44 214 38 c 0
188 31 160 33 135 42 c 0
110 51 88 67 71 88 c 0
55 109 44 134 39 160 c 0
34 186 33 213 34 240 c 0
34 422 l 0
39 422 l 0
39 240 l 0
39 214 39 187 44 162 c 0
49 137 59 112 75 91 c 0
90 71 112 55 136 46 c 0
160 37 187 35 213 41 c 0
240 47 266 62 285 83 c 0
303 104 316 131 319 160 c 0
Z
359 156 m 0
364 156 l 0
358 119 341 84 316 56 c 0
291 29 258 9 222 0 c 0
190 -8 156 -7 125 1 c 0
93 11 65 29 44 54 c 0
23 79 9 110 2 142 c 0
-4 174 -5 207 -5 240 c 0
-5 422 l 0
0 422 l 0
0 240 l 0
0 207 0 175 7 144 c 0
13 112 27 82 47 58 c 0
68 33 95 14 126 4 c 0
156 -4 189 -5 221 2 c 0
256 10 289 30 313 57 c 0
338 84 354 119 359 156 c 0
Z
Spiro
359 57 v
354 57 v
354 422 v
359 422 v
319 58 v
314 58 v
314 422 v
319 422 v
279 58 v
274 58 v
274 422 v
279 422 v
239 58 v
234 58 v
234 422 v
239 422 v
240 167 v
245 167 v
198 116 c
114 240 [
114 422 v
119 422 v
119 240 ]
197 119 c
280 163 v
285 163 v
206 77 c
74 240 [
74 422 v
79 422 v
79 240 ]
205 80 c
319 160 v
324 160 v
214 38 c
34 240 [
34 422 v
39 422 v
39 240 ]
213 41 c
359 156 v
364 156 v
222 0 c
-5 240 [
-5 422 v
0 422 v
0 240 ]
221 2 c
0 0 z
EndSpiro
EndSplineSet
        EndChar
StartChar: £
Encoding: 163 163 0
Width: 526
InSpiro: 1
        Flags: H
        LayerCount: 2
        Back
        SplineSet
365 559 m 0
360 559 l 0
362 577 359 596 352 613 c 0
344 630 332 644 317 655 c 0
302 665 283 672 265 673 c 0
246 674 228 669 212 661 c 0
188 648 170 626 159 601 c 0
147 577 142 550 139 523 c 0
134 469 137 415 137 362 c 0
137 60 l 0
132 60 l 0
132 362 l 0
132 416 129 471 135 525 c 0
138 552 144 579 155 603 c 0
167 628 185 650 209 664 c 0
225 673 245 678 264 677 c 0
284 676 303 670 319 659 c 0
335 648 348 633 356 615 c 0
364 598 367 578 365 559 c 0
Z
364 559 m 0
359 559 l 0
361 577 358 596 351 612 c 0
343 629 331 644 316 654 c 0
301 665 283 671 265 672 c 0
246 673 228 668 212 660 c 0
188 647 170 625 159 600 c 0
148 576 143 549 140 522 c 0
135 469 138 415 138 362 c 0
138 60 l 0
133 60 l 0
133 362 l 0
133 416 130 470 136 524 c 0
139 551 144 578 156 602 c 0
167 627 185 649 209 663 c 0
225 672 245 677 264 676 c 0
283 675 302 669 318 658 c 0
334 648 347 632 355 615 c 0
363 597 366 578 364 559 c 0
Z
363 560 m 0
358 560 l 0
360 577 357 596 349 612 c 0
342 629 330 643 315 653 c 0
300 663 283 669 265 670 c 0
247 671 228 667 213 659 c 0
189 646 171 624 160 600 c 0
149 575 144 549 141 522 c 0
136 469 139 415 139 362 c 0
139 60 l 0
134 60 l 0
134 362 l 0
134 416 131 470 137 524 c 0
140 550 145 577 157 602 c 0
168 626 186 648 210 662 c 0
226 671 245 675 264 674 c 0
283 674 301 668 317 657 c 0
333 647 346 632 354 615 c 0
361 598 365 578 363 560 c 0
Z
361 560 m 0
356 560 l 0
358 577 355 595 348 612 c 0
341 628 329 642 314 652 c 0
299 662 282 668 264 669 c 0
246 670 228 666 213 658 c 0
189 645 172 623 161 599 c 0
150 574 145 548 142 521 c 0
138 468 141 415 141 362 c 0
141 60 l 0
136 60 l 0
136 362 l 0
136 415 133 470 138 523 c 0
141 550 147 577 158 601 c 0
170 626 188 648 212 661 c 0
228 669 246 674 265 673 c 0
283 672 301 666 317 655 c 0
332 645 344 630 352 614 c 0
360 597 363 578 361 560 c 0
Z
59 58 m 0
59 62 l 0
364 62 l 0
364 58 l 0
59 58 l 0
Z
60 59 m 0
60 63 l 0
364 63 l 0
364 59 l 0
60 59 l 0
Z
60 60 m 0
60 64 l 0
364 64 l 0
364 60 l 0
60 60 l 0
Z
60 62 m 0
60 66 l 0
364 66 l 0
364 61 l 0
60 62 l 0
Z
59 358 m 0
59 362 l 0
214 362 l 0
214 358 l 0
59 358 l 0
Z
60 359 m 0
60 363 l 0
214 363 l 0
214 359 l 0
60 359 l 0
Z
60 360 m 0
60 364 l 0
214 364 l 0
214 360 l 0
60 360 l 0
Z
60 362 m 0
60 366 l 0
214 366 l 0
214 362 l 0
60 362 l 0
Z
Spiro
365 559 v
360 559 v
212 661 c
137 362 [
137 60 v
132 60 v
132 362 ]
209 664 c
364 559 v
359 559 v
212 660 c
138 362 [
138 60 v
133 60 v
133 362 ]
209 663 c
363 560 v
358 560 v
213 659 c
139 362 [
139 60 v
134 60 v
134 362 ]
210 662 c
361 560 v
356 560 v
213 658 c
141 362 [
141 60 v
136 60 v
136 362 ]
212 661 c
59 58 v
59 62 v
364 62 v
364 58 v
60 59 v
60 63 v
364 63 v
364 59 v
60 60 v
60 64 v
364 64 v
364 60 v
60 62 v
60 66 v
364 66 v
364 61 v
59 358 v
59 362 v
214 362 v
214 358 v
60 359 v
60 363 v
214 363 v
214 359 v
60 360 v
60 364 v
214 364 v
214 360 v
60 362 v
60 366 v
214 366 v
214 362 v
0 0 z
EndSpiro
EndSplineSet
        Fore
        SplineSet
418 551 m 0
413 551 l 0
418 579 415 610 404 637 c 0
393 665 374 689 350 706 c 0
325 722 296 732 267 733 c 0
237 733 208 725 183 710 c 0
156 693 134 668 119 640 c 0
104 612 95 581 89 550 c 0
78 487 80 423 80 360 c 0
80 58 l 0
75 58 l 0
75 360 l 0
75 424 73 488 85 551 c 0
91 583 100 614 116 642 c 0
131 670 152 695 180 713 c 0
205 729 236 737 266 737 c 0
296 736 326 727 352 709 c 0
377 692 397 668 408 640 c 0
420 612 423 580 418 551 c 0
Z
378 555 m 0
373 555 l 0
376 576 374 599 366 619 c 0
358 639 343 657 325 669 c 0
308 682 286 689 264 690 c 0
242 691 220 686 202 675 c 0
177 660 158 637 146 611 c 0
134 586 128 558 124 530 c 0
117 473 120 416 120 360 c 0
120 58 l 0
115 58 l 0
115 360 l 0
115 417 112 474 120 531 c 0
123 560 130 588 143 614 c 0
155 639 174 663 199 678 c 0
218 689 241 695 264 694 c 0
286 694 309 686 327 673 c 0
346 661 361 642 370 621 c 0
379 600 381 577 378 555 c 0
Z
339 560 m 0
334 560 l 0
335 573 333 588 327 601 c 0
321 613 312 624 300 633 c 0
289 641 275 646 261 647 c 0
247 648 233 645 221 640 c 0
198 629 181 608 172 584 c 0
162 561 159 536 158 510 c 0
156 460 160 410 160 360 c 0
160 58 l 0
155 58 l 0
155 360 l 0
155 410 151 461 154 512 c 0
155 538 159 563 169 587 c 0
180 610 197 631 220 643 c 0
233 649 248 652 262 650 c 0
277 649 291 644 303 636 c 0
315 627 325 616 331 602 c 0
337 589 340 574 339 560 c 0
Z
299 564 m 0
294 564 l 0
292 576 285 588 275 596 c 0
265 603 252 606 240 605 c 0
228 603 218 597 210 589 c 0
202 581 197 571 193 560 c 0
186 539 186 516 188 494 c 0
193 449 200 404 200 360 c 0
200 58 l 0
195 58 l 0
195 360 l 0
195 405 188 450 185 495 c 0
183 518 184 541 192 562 c 0
195 573 201 583 209 591 c 0
217 599 227 605 239 608 c 0
252 610 267 607 278 599 c 0
289 591 297 577 299 564 c 0
Z
57 -2 m 0
57 2 l 0
362 2 l 0
362 -2 l 0
57 -2 l 0
Z
57 38 m 0
57 42 l 0
362 42 l 0
362 38 l 0
57 38 l 0
Z
57 78 m 0
57 82 l 0
362 82 l 0
362 78 l 0
57 78 l 0
Z
57 118 m 0
57 122 l 0
362 122 l 0
362 118 l 0
57 118 l 0
Z
57 298 m 0
57 302 l 0
212 302 l 0
212 298 l 0
57 298 l 0
Z
57 338 m 0
57 342 l 0
212 342 l 0
212 338 l 0
57 338 l 0
Z
57 378 m 0
57 382 l 0
212 382 l 0
212 378 l 0
57 378 l 0
Z
57 418 m 0
57 422 l 0
212 422 l 0
212 418 l 0
57 418 l 0
Z
Spiro
418 551 v
413 551 v
183 710 c
80 360 [
80 58 v
75 58 v
75 360 ]
180 713 c
378 555 v
373 555 v
202 675 c
120 360 [
120 58 v
115 58 v
115 360 ]
199 678 c
339 560 v
334 560 v
221 640 c
160 360 [
160 58 v
155 58 v
155 360 ]
220 643 c
299 564 v
294 564 v
240 605 c
200 360 [
200 58 v
195 58 v
195 360 ]
239 608 c
57 -2 v
57 2 v
362 2 v
362 -2 v
57 38 v
57 42 v
362 42 v
362 38 v
57 78 v
57 82 v
362 82 v
362 78 v
57 118 v
57 122 v
362 122 v
362 118 v
57 298 v
57 302 v
212 302 v
212 298 v
57 338 v
57 342 v
212 342 v
212 338 v
57 378 v
57 382 v
212 382 v
212 378 v
57 418 v
57 422 v
212 422 v
212 418 v
0 0 z
EndSpiro
EndSplineSet
        EndChar
